<mxfile host="app.diagrams.net" modified="2023-10-10T10:28:46.120Z" agent="Mozilla/5.0 (Windows NT 10.0; Win64; x64) AppleWebKit/537.36 (KHTML, like Gecko) Chrome/117.0.0.0 Safari/537.36" etag="vmiI6pibGjTg1BEv4Z1-" version="22.0.4" type="github">
  <diagram name="Page-1" id="7_IY3sNRQMTkrX1wtIK8">
    <mxGraphModel dx="1035" dy="1662" grid="1" gridSize="10" guides="1" tooltips="1" connect="1" arrows="1" fold="1" page="1" pageScale="1" pageWidth="850" pageHeight="1100" math="0" shadow="0">
      <root>
        <mxCell id="0" />
        <mxCell id="1" parent="0" />
        <mxCell id="ugAIHgSxgHmGyD-dgIst-1" value="" style="rounded=1;whiteSpace=wrap;html=1;fillColor=#8dc071;strokeColor=#82b366;gradientColor=#97d077;" parent="1" vertex="1">
          <mxGeometry x="100" y="-70" width="720" height="760" as="geometry" />
        </mxCell>
        <mxCell id="ugAIHgSxgHmGyD-dgIst-2" value="&lt;span style=&quot;font-size: 18px;&quot;&gt; &lt;/span&gt;Data augmentation using GAI models for plant disease detection" style="rounded=1;whiteSpace=wrap;html=1;fontStyle=1;fontSize=18;fillColor=#f5f5f5;strokeColor=#666666;fontColor=#333333;" parent="1" vertex="1">
          <mxGeometry x="170" y="-30" width="560" height="60" as="geometry" />
        </mxCell>
        <mxCell id="ugAIHgSxgHmGyD-dgIst-3" value="" style="shape=image;verticalLabelPosition=bottom;labelBackgroundColor=default;verticalAlign=top;aspect=fixed;imageAspect=0;image=data:image/jpeg,/9j/4AAQSkZJRgABAQAAAQABAAD/2wCEAAMCAggICgoICgoICggICggICAgKCggICggKCAoICAgKCAgICAgICAgICAgICAoICAgICgoJCAgLDQoIDQgICggBAwQEBgUGCgYGCg8NCw0QDQ8PEA4PDw8ODQ4PDQ0NDQ8PDQ0NDQ0NDQ0NDQ0NDQ0NDQ0NDQ0NDQ0NDQ0NDQ0NDf/AABEIAQABAAMBIgACEQEDEQH/xAAdAAACAwADAQEAAAAAAAAAAAAGBwMEBQACCAEJ/8QAQxAAAgECBAQEBAMGBAYBBAMAAQIRAyEABBIxBQZBURMiYXEHMoGRQlKhFCNyscHwM0Ni0QgkU4Lh8RUWF2OiRFSS/8QAHAEAAgIDAQEAAAAAAAAAAAAAAwQBAgUGBwAI/8QANBEAAQQABQIEAwgCAwEAAAAAAQACAxEEBRIhMUFRBhMiYSNxgRQykaGxwdHhFUIkUvEz/9oADAMBAAIRAxEAPwDcSni1SpY4lPFmnSxuZK3c7rqlLEyUsS+FifwcDQrUKU8TJSxIEAuYAG5JiPvgcz3xKyNKxqgkdEDP+oEfrjG4nMcPhv8A6vA+ZS8k8cf3nAfNEYp47hcBqfGfIdWqDtKNfGtkviZkKm1dR/EGX+YwjHnmCk4lb9TSWbjoHGg8fit0Jj74eLWWqo4lWVgdiCD/ACxL+z4zLJWPFtII9k22QHe7VLwMcFHGj4GOeDglq+qlnCnj74WNDwcfRRx61NhZwp4k8M4xefuf8vw6mKtYmWJVKY+ZyO02AEiT0kdxizyPzjR4hRFejtJVlPzIw6Eeu4PUfUDH/wCQg87yNXq7Jb7THr8uxq7LR0Y5oxofs5xhc4c10MjSNas2ldlAgs53hRIk274YmxMcLdcjqCtJI1gtxoK9oxzRilyjzXl89TFai2pdmBEMh7MvQ9jsehxt+DgkMzJWh8ZsFWY8OFt3Co+Hjnh4v+Hjnh4PaJYVDw8c8PF/wsc8PHl6wqHh454eL/h454ePKQs4pjhTF80sRmhj1KbVPw8c8PF3w8dPAxClU/Dx1ani41HHGo4hTdocSlixTTHZKWLVGgcSXAcqCV1Slilxzj9DKrrrOqDoCbn2Xc/TGH8QfiPSyS6Vhswdl30+re3a2EvVIzdQPWcu7AtJPlXtA7Y51nniuPCXFB6nDk9AtazDOGwehm7ltc48/wBXPsadLUlFL6dmf1b07DGryLyzTdJdZYyAD2GLHC+SUALA309v/ONLgeTFEEk+Tceh++OI4zHSY2UvkJNrn8+KkmdreVd4pyFQelZdLLEMY22xmcY5KyoplRpkDfa/fGPzr8TG0GmAR6f3vgUyfEszWE6T5RJHfCDYZP8AXi+6WMitJwqpliCld1LbhTpgddjgv4B8TM7lx52WsAflezFSLFWHXfcHAtS5caqgqu4U9BfEFPg1Sqx0tamB3vH++M1hczxGGNskIpMxY6WE2wr0Fyn8R8rm/Kr6KnWm8Kf+0/K30Pf6lvg48z5GrRVtDkB9iNmH0xtcO4hnFMUczUCmyhvMAew1Y6JgPHFNrEt+o/hbPBn4AqUbp/GngB+Ifxdy2QGn/Gr/APSQjy+tRrhfaJ9IvhX8zUuJ1wFbNN1lQdExvZYn3tivluUMvR0ljqf5nJM/3OKZh44DmlmHHPVRic+Omoh9Slj8RuMZriD+NVklidCdKaxZR6fzxZ+GfGcxkYKNUUmNWk2KjVGoGQRJ6g4KucuPZd/LTEH0Ei3bb0+2B3Jo6slRQSsaDHtB/wB8aR/kZnjWTR5u9/xWpfaZNZfe56oj5m+OHE0UOK58NiFJSnQBW4m5Q/3Nxvhf8y8dzucJ8etUqLR1mnqjcxtG0+WbnYYZGe+Hz5ih4YmzEmQPxX/lGM3lTlEColF1b5gWF/NFh6jvHpiwzd8jfW8uI7noiyY2V4p7isP4d8SzmT89F9L1IlYUhgAD5g0gz7SL3vh08N+OWcC0/FyivrJGqlUKkxN9LBhP/eMd+Y+QKVFQwADKu/08s+oOE7w6tWFb92SVWQFBLAGLsfvvj2Dz3FRlxhfpromMPmM0OzXbJ1t/xMZJKi0q1OtRmNTHS4SdtQRi0eoBwdcE+JXDsz/hZmgT+Ut4Z+z6Sftjyvmvh6a5NViS3lZpky1QsACJsFVST/F6YFuNcuVUNZhIAhUGxaZFvQkHG54XxbPs1zgT1v8ApZpmezA+oAr3jTztJtqlMztDKZ9r4tCjj88eGctVWUsAQ8hBH4e59f8Azj1Z8Aue6vhDK5kt5LUqzGZUQArnoVkAE2gxaBjacH4rie/y5iG+9rM4TOWTP0OFJxeBj4cvjQWljt4ON2jma8W02tiD+yy/Ax1NDGl4GPng4NrVrWY1HEfh402o46Ghi4KuCs7w8fGpHF9qOPngY8Sp1JEcQ+PeWVf3aM79A3lHue+ATP8Axzz9SVGhAfyCD/8A6MnGbkOXAFZmAkWH64s0eFUoVvXHzdiPEOLmJD3ur8P0XL583xEg3dXyWZkqZqPrcOZ3m98b3Bc7SVodCL2ba2CXhHE6FOVIGrtgf4vxLxXKBBB2gScay95ed1hC4uNlbfFudVUaU2g/pgU4pxypVClSxEQR/vizR4AU/wAZhTHQHzM3sovPqYxq8AyDR+4Vb71H8z/RflXr0J9cBbpB7lDJpZnCaVJYauZIuqC5B66u3tghTm6nTEU1segEmOxnHf8A+3NSdZMTGqIvO5mN8FHCfhrTMS7Xvuen++GBqPGyol5xHiVStCqhRfxNsoPqWgDFHI8QzCM3hiEMA3DExMHc9zhuZ74e5amNJIMkE++KWc+H9DylIPUH2++CtiaRtyqm0naHBneo1WYKk1HY3MTIja5NsaXD+OZlmY+ZgNR0i0HoZHb6YZtL4fKPNqaRYAmZn7dsSZP4ehJI+bbTcXNjN8RIxxHFqLSpStm3f8V95M/a+Lb8t1akhnEFr30gx6kAfrhvUeHU6Z+USfri/luAU6jKCoCD2/r9MLtZIRYACsgbgXwQkBvKVAnUGDah7iQCLgxhj8v/AAnpIqmBDTAInYkHbr7+nfBHUpU6Q0raIiLTvjK/+rNErNp1R7bx6mxj0xR7TXqKbY1jd3L7xfhFHLqzGB007bffCJ4hx8ZfMmsVkSNKgi5X1va/bG58UviX4s0qckmYie/p9ftinwDk+maaVKpU1fMHkzAWCCetgQLA7dMUjhvc8IE0jf8AVYfGubcxnX0atAbdRJge47XBthj8gfDPw11kSWIIO577dsZnL+Uyqsr2uxED8QJvvt0wfr8RMstPfzD0FvQbdOu+LyN8ttCqVIqJtyny3BkSqVIWGUWO0gLe8+2Az4jcpZctJ0hSDYCPMsHubHGHzX8USWlR5iYn/SNpEkDAnxjj9bMFSfl3BnadwLfNIMnCHlOc7Vx7ph0rRsFPkMyKKNRpU1ZmPlO5uR0+gE/ywc8qcBqqgXTpdgNRibMRMf7frjK+GtCijF6oE2YEwetgBvf2w1MpzjllGxGmwMf7DY4RxsxB0j8UzA4cuKUnOFTN0KpWlXrUqaqNIWo6hj9DHadxh9/DfjbZjLU3f/FUaKht5mWxb/u3+vphf85cOo5gbyTLATtPtvgZ4FxWtw55UsZA1LIKsoP4hN/QiCMbf4X8TOwMrfNJLeCP3WXwONMEvqNtK9HeHiF6WMLlD4jZbOAQwSr1pMYY/wAMwGX1F+4GCrRj6UwmPgxTBJE4EHst6jmZILYbWeaWIzSxomljoaeMgDSZDgs9qeOhTF5kxGaWLWp1heDKYrsYJMDfBLwXgFWqDJCKt9bnSvtfc+gwxc3yRQrS1KoEY3tEfWcBnGPhznEbWamtfc27W2x8hMx8U3J0nsQuRyYd7eN11p8MoBhBaq/WJVZ9zdgfYY3eGcEzLK0KKaiSQo029W+Y/fvgdfMUsuPO/wC8H4Rf77Y0sr8WHYCmgOnYxF/pg4jL9ykHGjRU1TlIkyQSN53OCDleotAtE22kYysvzfmthSaD3Gn+eJKPEs4x8tIeYfQYpoJ6/khoz4nxstZRFpOM4cQqFQZuBYDc/T/3gc/5yYYLO1jaPWcS/sudgEBF3g3PvbFmsOrfcL1oxyfLrVgA7gVmIC0i0MQYAuSADfY4pcRqnLEoFqStj5Xt/wDqf54r0+U8/mFZvECsTLEBUPqZ3j63viueQqgF6rTG4J6e3U95w01jju0AfVWJWzleOKlNalRmhy2gspAMWIFuhxVzPxAo3IIJNp2iAJPtj5kuRq0AePWX0FRhv7HHZfhvmGJAzNeB1Dtt23/XHhFIeyjpssHjHPlMd7jvivl+ccwZCI50/MVBfsAfKDacEP8A9ucx+LM5hotOtgd/c4zeM/DpB5mzNW353ZvsSQR+uGNEh5oIRKy898VW/K2oWINv/R9IwOZziWezXmRHCqZ8X5EXpLOxWmPqcb9PxFkU6r1CLKz/AL1VI/6YqhiG2uB5Rt6afCeSqlX95mGd6pJHmJMKIgiekyIAEQcKtYXHi1FgoSy/DqVMScxllrt/iWzFS9/kejQqUxNpgkXiYx9p0NSn/mqPsEzbGfKIgZcR77YcFP4VgwyKswRBA/mf640uF/DpFYs4UECCAAZ9z0+2GBhf+x3RKPZJPh+SpE3rOehWnRc+/wDiNSt6mMd8twzKnb9sYM14WlTjqJmpUGwOHXS5WplxCWEloINrwJgRLEQD0k9LxZ/lxUOlVWDvt1kdJBO95wEwi+VNHslFw/lzLEy1DOEdGFel0BP/APW62HXFmrkMsPL+zZsAHf8AaaQnqSR+yGNx+mHpkuXqWi6kEL69JPWN+2M/J8tIBcSbl7wCTuSB62tsIwAx31RdDgOiSI4bliwGvN0u+qnSqienmFWkTuPwDfENXKpqGmvW02JNWiyDTInT4NTME/UKNr4bS8jo9TrJ3W9pINzGx7R22wY1eVaIUeQagAtxaPsYAPSDgRiAPqqlIa49EgMrnq5JK1KTnoA4Q37LV8NjA6acczKZgSaqvpW8kGL9jEEbbHDW438OabzAVVNgBv6npE4H63w5KVSaZdATZlZlknuQ31+uE3xsbvsiU4dEENXFVlGwG8fTDG5P52rUm+dqlMQNDEkesEyR6Qfvgc4zytmRLatREk6wtUj2NRWN7iBj7k+Ev4bOQFK9UHhkxe6rpTY7wPrgMeMlw5D8PIWkdv3TUGJfCbbafvBOa6NeynS//TaAT/CZhh7bdQMa70seW8rxO6u5dVBOkCzA280rFx0M/wAsPj4T86ftlJ1YzVoMEdvzqwJpsfUgEH1U47r4W8Uvx7hhcSPiVsRw7+1u2AzAYj0n7yKjTxE9HGkaeIWp46gVmwV5J4pyrCCplqjyRJEyLb4HOGfEbMI/g1AHsNt+vvjZ5W4sNOkyLXPSMCWbCJm1IvJOwOPlDymS7PaFyRszm8FGWe4FRqgM1MjUJkX+4jHXhWSfKy1BabA7kqNY9ASCR9I6YPTk4CNbS1oNo64GebaJVWqIdLC8DY++FakjI8t23vwitla7Z4XD8QtHz0nn8Ui30MY3chzQ1VZCpSQ7u0Se2lRc/phacC+I5clXp6gtiRcfywTVcvl8yv7ttDR9j6icFfi5YzUja9wo+zNcfhu+hRtwfPZQGWYs3do36WG31ONHO8aoKPKFnoTJ/Tp9sILi3KucoHUPMOhBse2J+C5jNN5ToUddTpaO41T9ADhtkzXDUCCPZKPDmbUnbQ48WsSo7xacWaefRRBsTeDbC/4Zlq7CGqUgCCAV8x/ksfrjZ4dyPSYzUqVaxibkxtMBbR+uPWXcIQJ6o5y3MFKfp/LFWrzOovN+s4Gc7yxl1UuE0+7t+oUiD2+uFlxjidNCdBqWgWcxBtbUGJM9J2ntigLmlX1FMTmPnMLPmAA3E79oPc/31wH0GfNHxKh0UhJUMyqHMkD5iJjuAfSMY9XJKsHMM4P+Xl6aq1Y9jVBMUVNvmJaDIQiCdRMklTzDLwW3GYqV3kdNL5c0VEDcNTH8Rvi7pHO5QdN9UW8HzmVpbMrPaZYaVA20g9fUk9LDG3R5yoH8adLE6T7yREf3GBDh3J1WzIuUA7Cl4gN7XzHikiPvv2xZrcpZmCwOWkG3/K5IbGD/APx+09DhgOkqhQXhQRTR+KaKT5qeo2FzYfWJ/TEFDn9GPnZYaOvfaIg/c9ttsYeW5UrRDLlWYib5XLiLT8yU6ZvtufpbHVeUCZVqWVHS1KoAZAIgrmFi+5EbR1x4eaFcO90XD4kUUJVQIEXBiZmJsZOKGZ+ItNodmIUmQNxAOxP0i2BkcgsLCjkzFz5c2v3jN37X2viUcmZpQFjKIvZcvSrdSZBzC1nEgj8e84HTiVbWVs534toIXVqkd/5779ADiJPipTYgBmBOxsRcnv0+n0OIKfKObQeWoszsKGVWIEdKMdjjpR4BnXlgywZ0g5bKm0kj/JGwP3nbAX4d5OxXtauZX4prTMlpmSNulp633NwJxdT4uhzs1wQLru1hIn/1jEXkvNHTrXLFrzOVyfe1xQB2vYjfFfN8seERqy+WckhZAzFMkkS0ClXFMddqX2wEwvIpWDz3RzlvifQaFJBPobD2sZ95xYyfOeXLSSAbAXkYBsv8OKTjynM0TG0U80p9B5sqygdyHPrj5nvhdXgMtdIAkmolemxJJ6JTqrsAB5+mFHYd3VGbI8cbptf/ACNGoAZBj2v7d8BnP3O1KmhRQvmB6AT32v8AbARW4bnqYOjTUIAhabo7SD0pBhVNgf8ALGK+fyj15WqjK6x5WUqb9CGAIiMY98BabfwiOnJFUhDmOt4hUJqvcidj6YeH/C9kGBzRadqCn1P70iPa/wCmFjSyAUqjfMbo3t+Y39L9Pvhvf8N/E/3mboNIaKTqCIsviK0RvGpfvjevCkzRmMTeBvv9Fkcpd/yGkp26MRsmLppY6Glj6N4XQbX5+cG44Kb9x3GOvGswPFpVBBlifbbfFzhHCKNSgzFgCBIb19sDf7YhUIfwtKv/ADB9LDHy61u+y5DwvQHDuN02popsQQRef54s8w8OSqkdOsdfp0wI8h8sh2hmMQCL7jvg2zCUUJ0VCd5pkRMW3nfCTnltWNiiAdUgeHZYUcy9OYV/L94I/W2GA3KQKu6h0rpBUqZVt51DttcYEOfclFTWL3uI298HnAOIuyKATdNwb3tBO5264c16mAn5IVkGwpeWObFDeBXAkWndWONHjnwcpVj4mXcU6hv4ZPlb+E7j9d8AvM+SFMkEGdOqT6/3vgg5O5glPCqMShstQHzUz0P8ONenwskRMsDq7jp+CyEc7X+mQfVYfF+Xc/kj56badtQGtfS4/wDGKWX+I1ZO8/7YZFL4hZvJt4VRhUp7KKg1qynbSwhoIvBLD073cznuD50TWpCjUP8AmUz1PXygde9P64NHjnsrW2x3b/CGcOwn0ur2KWA4/mMwNTuKVL/qVCQrfwqAXqH0RTE3IF8avLwA8uVpsKhjVmXVS5In/CEEZYf6lZn/ANYFsEOa+CRJ8fL1hmqe+kkM1uhhiG+hDenfK4rzZUy0oKPgxZllmE9bnzKL7PJ9cPMmilOx+iWkY+PlamV4FSy76qgIrEAtPUHcifmk/i294xvrnaJWVIHQW72/rhV5n4j1asUyodeikaj0+QzqQtA8yn3kWxeyVcgH/lmCDqKlbVN7AyUm8fIcOh+kUAletpoLxhUAB9NlkfTHzO8bQnSIJIm21um39xhdLnUK/LnVVYkAUql97k+ER7wcdKVWjBYtnZH/AOCkfcSMyttvtiPON3S9umjQ4iAAJliDcx/ZjEtDjCpZo80tPtb7nthY0q9JhIqZvyxJ/Z6NgdhH7YevWeoxPR4jTUFjXrgDyw2XFzM7pmW26++LOxAI0nlXDiOybFbjlOJ1L62333M22xWfjVPvuo9dwD+X1wsszxWiflzKiIMNSzK7e1KrH93xWq8RXYZykC3mAFHNtE9/+XS30OK67RA8+yadDmtSCLgGPML+30I9Tvj5R5oQGAy9rmIPoIJjC0y4DqQucoNFiWpZ1Noa5/ZmG/4pxEuRq7ivkmB6mvSpggWkLXNJt5FwNvbAzK4bLxJ7JvZ7j8gQsR1mf6D+/fA7nc406pj7AgnoOpk9u+2Aqlw7O3iplLgmBnMjA9gMxYY+Zj9oprDaiTL6kAzVNLxDVaDOoexMLqgEXF8MMnI5Cq4uKO+G81U0dVawtDGSJv8A+cHuX4vSrA6Wn0NgP7v9sedK+cq/MatGAVBkZhDJ1EDzZcC4BO5FrkWm9w7jeZC2Or5SopvSrMQTDeVHLwRNtGJc8He0WORzdiE/OO8MRqZA8OXBnaTO9+k4EaXCK9IMi1KqpMhRUYqY2BU2tNwLYEqPxArJCOlQQPmZCswATOpf5HFzI/E1VGpjILQFH1+/6YQfiaNUmNTXeyunh1VjLaJgyGSkbdIlDHX36zivpzNComYBVaiTp0qqgjswQLKnqPraMS5znqkysykeWADEY6rzNTqjS0HqI2/u+MRNiXMfrj2I4IRYjpdYKZ3Lfxuy9SFrA022LbofUfiF+hn3OGHkM6lVQ6Mro2zKZB9iPtjx3maqMzEyKSm57noB06+uCXlf4uVclIpgGlM+Gbg+oO6n7+xx07JvG08ZbHjfU3uBuFsuGzUg1Lx3SYzvLFfKk0KqkAdeh9VPUYzuaMtSpqgQkgwS3QH9ceueN8Cp5hDTcAgzB6qe4x5P+JGqizZZgAabxt2No9CLjA82yeTL52i7a7g/ysVmeWnCEEG2lNr4f5kNSQT5lG/ofw+2C8ZVAQ5VPWMI3lLmXSqEyIER1b/bBVn+bWIBBkCzQYF9pHffGnynT6aWCUHxcpKIdLBiAR/vjrybWfwhNr6dQ32B/qcV+MZtczSdVILxquZ06ZJj6TjM5E4zTpHQ51I0SPlMjaCZjrgjd2KCLRVzbJpj5SZIJPUEAiTjC5QaVife1sEvHtDISrakkHSI1LvBJGoR9sA/Cs8KVTQSSGiy7iT1E/1xVhDrCA7ZM2jlUzCfs1SxIJy7ndW/Jq7N09cJJ8tWFVqR1AoYI2nfDSVda6g11Nve/Wf6Ypc8cP1oM6AFrUiKeZA3P5HH8Wxn8U4Si+A8t6O49j/acb8VldQtLkfIVqHnDsHMKqg3J9R23m3TDIbjVOt+7zdFakQvir5agmeoIJA63i4thP8AKnPhYgqjsRC2liZsTYW/9/QizvGq+oBaLrquTBUKL7lheMEdG133m+r2Q45nM4RweSKaKauSFKuhkMNKisn5heASLXXQfcHGHkOZlQlKi6SDGhgRftBAOBzi3MlbK0UZHhvFdm0kidIQLcREam/sYJ+CfEHL55AubpBjFqoIWqP4algwHVWgd9WFQ+WEnSLb+aZHkybXpd+S3cgq1wBSRSFILMSFA6bsY6m04k4nwmkFIUBnt5VAgCYJJNrTPSYxnVeQ3UGrk6hrUlAmhOiovoQx3PcBT2GMvK/ENVmkyNTIsVIIjvZvNPSWg4ykGLbLsEN8JjHqH1W9S4DTprYAW2jv/e43xhpnFkhlX9Cp9B1nvtGLqNnKsHQfCIkPFmXvNkUd9bqQYkYhzHJCNc1IfvZ/YCf3axEmFfpD4MyR+sBrbQCy/Za3L3L5rIXFEKn5yoC7kkgkX3JtiRuRMu3mG5m66enQXt+uMtstmyNH7RVYbQTIjtBmRHQg4loZStQUkshFzsVJnb5AR9lGxwwWTg/EaAPbdWJjA2XetypSB8qEiTI1R6dY3m/fHDyZliApSSNrki+/uLb4hHHnsuiCepdOuxMspAt1GMtuanGrUlRES7OUaB0EW8xYkBQDuelyCxx4fqqfJWOK8iIQPDAERGmF2Im/p/T1xY4VSfKBtSkLaT6TEybEnbpuO2OvDOeU3YAFroJ/D3M9T0gdMT53mynX/dfMqgF7A+X8pBsCx97dMQRGwlzXUfyUcLTymco1oe0aggUwRe8idz3N4jFzjXIuUqKxanTMxLL5SBIO4I2gAHt+uItehoKqNIEREKdU+XTA+57SOuIXrVBKioxJElWA2g21KF37kH6XxRoc03s5W1jhV6nwtUAGg9WkJDMFc37dZtf3n0xi5/lbNUwVNRagBGk1lSoY2MGqHv8ALse18GuT53DA7qaelSpAvqkDyx0Iubi4jc4m4lWVihqx/CsnSTEE+xAkRiJWxOoULPXsvDYWClFmMuyqyvQpOwIZtPiUxEhbCnUVNXWyAX64+5OrSUBjQqhjO1YRGw+akx+k4etChQJjSsm0kf2B/e1sUeN8o099KeYC+nYAdL9Jxr2IZpcWjcJpjDVgpQcWyyeDSYU2AYOD57KQxufJ5iZm2n9MZWUy6jcyJgT5R6wo36bk+2CyjwqosoDKEmEKqy776SGANhfpPXGTUpwQrUYIb/LJE95Vg4+g0j0wpZApe53T3XCD/wCIHkGu9Y5mnT1U2VdTATpYCDqG4mJk237YflPFpB9uox9X5vlbcfEGE0QbBXWMdhG4iPQ5eEuDU6qP5xbbzde+DTi/CHjWgYp63I/8dsOP4nfA5cwGq5cBawBbw9lYj8nRW9Nie2FPwjmh6aPlnpMagOkyLrHS+OF5vl8+Dk9bf4K5ljsC/DOo8dFg8NpsoZ2IEq6qu5bUCs6dwomScb/IHAQ5EgMBIMH/AH6f30xj1uEVHVqqqdQ3679f574m5G5kFFwNRAO8dNoxhidTbasXVpw8S5WCISqwjfNa9gIM/wBMKXjGR8GvYbmA3vvbaw/nh4ZLjgrKLyQILsSLna3WwwoOfKiiorFrq1zHt63npheNwvZVc1F3LNMlSLWBJIIvAJOLGZNMhi+1YjL+kMCSSP8A8Z0NPfAvkeIlwUS0wS2wHcu2wUdZtifjFDUBBOhRAI/EdywG8m294A7WFM7Xt2UMcWm1m8q0K4dqBBbwmdCAZaxI+UNNoOw2nDC4bXVgbrPmGknY7XXpvhbcwZsU61HMeYGtTQsRaalOabsbzLFdRv1wfcI5pVo1BGkFizBSfN8tyNVjB7+uHfMBaCvOaLQ1zQQaVRSSShR5F4vobTtvqSfYdTiXkkU2QLcEajrNxIllhYgAywvPeLYtc0sphgECuNJUQszYi1vNZgYsY7DA5ytU01IBta3aCNzaN42jC7CWEob90yaGbekQ61CCtl0kq1p3O4W1lMgz7E7tf4gZaoqftlPUz6lFZAAQF0ySVKkATMKY/wBN8DqAxr3MBQtgIuL9fqv32xn82ZFjQaLPSmsAIHlgB1ECJEBiOymcTiMMyVupux7hMRTvYK59iiXPfDWpVXXkM14qXPgl7ib/ACWM+sT6Yy8ryJxkGDSEDrqH8mI/lhXcE4vWBWpSdqdUGZUlbdzB8vqpsegG5d/LvxMr5ml+z5wVbjy5yidLpp61FWzKD9PfAYnyYbd9uaO3I/lHuKY0fSfy/pWsj8O89EuhJ6kkKB7mQAPUnF3NZChQAFfNUVIH+Gk12/8A0hJ9nOMLjXKWcpr4vjVMxlTtVokEBeviKJdT3K6o7iLdODU6KiU0kNEsfMWi8l2lsZmLEtnrQ78eUF0YiNFq1srmMqY0UK1ckSfEYUVAPdVDN0/6k/rE51qdIyORCi4lqxJHS5c/09sXOF8UpxIv36fb2xr1OI0yBHzWOGn4Vm2o2oa9w4Q81JGINTh+QJiLF1J62Icx9mxk53ljJvKjIVKYnXNHOAkmIslaiwjsJUXODF6SsRJE3jvf+U4u00VTPU/Y++BHBxXat5hPNfgErX5Ty50w/FKcElQ1ChmB2v4VVJjeT398VeI8G0TTXP0FM+YVqOaoMYtBYUatIDv+8Aw5BUkAbTsT19sVcxk0a0BgRsQCOvX9ftiPsg/1fSrsegSVoctZ5NbeLkqhOgDws3lNTAz0NVHiALaZP0xYyPCeKIwP7LmmJVwDTpu6wysol6epZJ6yI+uGHnfhvlag81NJJF43+mx9LYl4R8HsnK+VdJlSLC7AgeYeYEHse2BPwcp4IUaQTVJZZjnLM5cAVKNZCILGpTZCZt+ID+uLXG/jKtiLeURBFiILfdp67Ya+a+GNbLg/s+azNMG2g1HKbH8OoKf+4NOBbO8nZxmljk6iw0l8pk3Ym+mXbLlvmiROE3YCVtlzb+SNoc3a0A8O+IQ1KdIJMWm3mg9tyIt/tjaznMdKrGmBEEnr3jEmZ5JrEnxMrw+q9iCFrZc+sLlatCmLkf5ePlTlBKYhso4vvTzBET1AqU6lh6n3OMDiIdHIK8wO72mei4sKuIVxZQY+ySu1nZSIMKH48clRpz1JJIOmvA9tLkfcE+2HImPuYywdGRgCrgqwN5Bsca5nuXtxuGdGeQLHzWIx2GGIiLCvNHKPHqbowYkeUhvL9tsL3mXhmiqTTuki/uQcHnGuWxl6j0yDYlT/ACB++KHA+JZceJTqjSSpCv6jv1vbbHzVG4xvcWjjalyh7S12kqpwPm9qaNTcNPcHYjb3HfA5zBx1axuJFrbT7WMdcTcSYmmai6YDFDJv0IJGxHb2OManSBKugEgnUpuB2b2vEGY73w/FE29XCpaZfK3DGrqUXSqjSCO9wb9SfUm3pgm41y1pQoB8pYmD5en3/TGJyHWdR4kkSfNaZPSBI3/l7YMuN5Py6STdSxk7adyT0Fx3wsAHWhlKrmYRRpEhToq1lJN4BFMj2uWxc4TwZKsFQykxOlvKQfyh72M2LX9OtzmNzUoVkJBKinUUflUFlZVHT51O52OBvlzP1aY8SD4YtNyAYt3jv63wSANIp3QqzzYBCJOYeHlEJOvSDABG3856doJOA/hGfmrOm5J1ajMkRfp9ZnB8OMtVWBDrEsW094vJtNuvXfAnzDlDSYH92EYLUgMGsdgdJJnexIjrGLucwnS1DHum5wnh6QL3MQu4BXaDMgDt69cXOKcDZRJKyCbEzIPRhYyykqV6zgA5bzrMQ1MshIkK8lTFzpIuARYate8asbGbfNV7sF0t1DbRvbT7WHYd5wOMSN9NbK7nNrblLPPZMZeuVW9N4ZJMDSxiDEyynyt/qUjphn8IzoKwI1EQADMfYz1vgH5pycjyrqdDqDNHyk+fy2AGoqRqmASZE40OEcScBDpVgJU6AkfVpVSwubEyB6YtrIAKAd90y+F8dq5M+JSaPlDJB0MIvrSIMWuACJsRONytwfLZ9n/Z2GTzwnXSI/5fMG91g+RiRusNuYa7YC8lXrVBBphQbli6mRBNlDWEbSBc9LRp1uEu5LMx2BBkAqQYEMtxEmwBuRipwvmHVH6T+SZjnLRTtwq2e4NmMkVGaUhmkAqP3ZMj5WFnaBYWN+uLGW5xWYEAW0iYm4/pON+lzxmKJYVQuZyjQXoVYYgH5ijNIjcwbdgN8atPlfgebXx6GVZv+otPMNTNI9ZpMlW3qJG9hizMY+H0Sj5Huj+S19uid9Ch5OZgyattJQjb8wUze0gkYuvzKgAufMQAfciYN+k3xdb4ZcMdYVM4oJ+UZqnB+pyZJibD1O2KtL4Q5EHUGzoj5Zq0aonaw8Kl3Iif54yofIR93lC8ojqFeqceBAFhcRP0Bgf7T07YtNxVSOhVbdAbesdNpPrjGrfCdUMrm65sdIagCA14PlzJNp7dMZL8gZlVOjMZap0UOK1E7H8yMgMTE1ALXOIMjm8tK9oejnK8bpkbz2DG8RG+xPri2nGFiCQCJG/64Wj0c2g0inSYggSM1lz1iSPFLA94BxHxDjedUlTlKtRQSFempIK2tqXVO8EgfMGwucY26te9Q6Jt5HjbG2r5TF79Afvf19jiTIcQDFhKzqiI7BbnYSZ+uEtl+b6tKCyVaclrOjrJJIW7KAxAAHTbbFyh8SUDNHzwpMaQrOpCt7xMT2RcBfiiN2OR2zd0zMzTh/EiLKD06naNO839hjZpPTYEEEkgAWB95Bwrn5wp1NLl4cFQQOyz7CCAbm1xvggy3FlknUdMWv8Am6C5m3thd+YkN3bZR43C1rKMWaWIAMTU8fV5XYjsrS4mXESjEyrgLuUAoM+Ivw/OZU1aQHjC5TpV9Afwtb1BMbdfN/M3K7agYI/Nbbvbvj2ZSGF78SOUgJzKiZP7xY2J/EDtBO8/iO97cV8V5B9lvG4Ru1+sfv8AytOzbLAfis56rzBRyylDSGokmW7CNjG53M3xBwSkaT3AsPl6ODtfsdwR6YI83THjFVBEhhP09sY/ClJqDLn8Rik35XPT+FzYzYGG6GefxyF7SO4taQ5tJm5LmSn4fhhBqMEaRtcESQJDAWOJv2ivUkaT5gF8xAlQZaxIsbfbFbl7g4amukmSX1nuQEgHvEyffBj/APF0/LaGVd+56fT0v74XbQKFRKA+L5Fk8zAKjBkcrpYwwIMEflkMPUDCs4fXbL1mpamUqSJFwf12I97HD74xw9TSddLQZMkDc7DczYfphFc38NJjMJ/llaVX7Hw2O9mQFfdN5OHoiNZaeqs0bUmVwXOSjNooMGUKwICzeRdCjBrXI+u+PuZ5R8ZS6oqiI1LqYC8wAzFr95GF/wAC4rU8oEMDuR09NsM/hGeDKUMxseksDEgg7KPecDNMOw3Qwl7/APMVcvUhrkEBPwgBTCkKOhAgA/qcH/CuNhlkdNM9bkXAtB0mR1uYxBneS0qg6b1BAWRJIJ8wU9D6i8EibnFjgHK70oAgX8zCST6j+ETcfXfFm4hzRYCq5tqnxXJ+KQBOlzoYfmFS1xPYlhG2/TC54ZmhQc0GJ0sQPEvAMx5VjYAlSbk7jpj0NX4Qh8oUamGkdgSt5JgajIF+v0GE38QOWVpuzMdJ3gCbgmSBIABAAmR7WGLa9W7trVSK2RpwDiiNCkklSBBgiBuLADeO8idsbmb4yQp0tpNwBNm3KrHoTb6ehKcXiIUUiKjyy2lRujuouHsYVR1tFxMg45WyzONU6uokaYPU7ncxF+h23F2PcPSqFHGVz4qrGyrck23mI95IwvV43VyOZ10mIOpF8u0NuCPxHobiI+xLmss9MQWUSoMnVAA+WIUmP/fXANzC0VPGJDBiwpgSFOgiS5MMIMQqwx3lbFqzVI2nBEBLSCCn/wAJzwz9LxaQWnmEZkekSBTd1+a4+RjYhoAPWMVuG88BWNOqClZPKVqDSQTElR2OwI3BkTtgX5Ops1EVFEHWzQspAIWWvdpINySbG9saedzuXzmilmfJWAPgZ0D/AA4+UVfzUySYN4v64o10mFaHtNt7dk+XiT2d+qOqHHVO19j2veTp6Rf3xTzmcFSwJNhsCTbYXH6/pgDzeUzGRZRmfOp+Wss+CREKPEnztFypKzOzQDg24FzQlQGG+WPY2NluQfm0/QYyuHxLZ92uVTY2dsVJl6gdpdabAWuqkj7g/wDnFirk6JUTTQaNRBACESZnUOhY/T74rPnaevUNIgWNzudMTE+xO3pjUzGbBQi0xJ/vffp6dcHcIzu5oJ+SgE91m0Mj5ZBqqSd1qVCRAAF5O9mm/XfEVLhrFlXxK7QF1fvmuB8xOqTck23MgXxVznETTnzapuBv5VuSEi5AIkAG02timeKmqwemlVjeGSmxHa5CqNo6jY+kqSRQv4aL7LwJCvVvhwzSS9N5H+ZQoMb9C6qlQDe4cH1xnt8PGBBNPKFUAAg5xX66reMAYmbt9caB4nmkAGioYudJBkAXhBL77Ss+nQWqHPyGVaAd4mCD1mb2IIP9xrroACdQpMtcCtJcWKeKqti1Rx9ehdkKtLixSxXXFmjgRQXKamMdsxkVqK1NhKuCp+oI/Tf3xymuLdLCeKibLE5jhYIKA8AtIPVeNviJkzRrFLgqxU9Ji3WB+uKvJnC2zNYsx8kwGMSY3sOu2CL45cOc5iqSJZajeToQbhu8EGQcdfhnoCCBDbXvEn+UTj5ZmPkMcANwSPzXKp2Fspb7o5yvDKlGGA/dsTVKHdS0BiBtFpgdCL9cbacZpgEkWAEdYmYIiZj+uLGfzvlgEG0t0t6e39emA3jIVB+U9LiGsIuNsLxPF2ClXt0i105q5lCowAABGvv+lttyPTCu4bVJpZhmUMlTw0IAEmSTaNioUkbgGN8aHMXHl1aOpBV2nzR1I/CF6nYkWlZONPlHl4MLEmkBOxVixgMxB2/CtiREXBvhppI9TlQGktqFM5drw1NpNOpBAdfrs2wZd1P3wUZDjkXsVkBYJBFgTtHcfbEXN/CHogkQVYktTYAgx1KnY7jUIbsRMYpOiaaLLTUeJSLss1CFIq1KcLDAwQoPmk3N8Nkh4D+qC4dQj/K82L4YTU3lhjBNyQC1p0mGtLYtUuPkurqCqtB1QSJ3N5C/09uo9wKi7BoWkIACsKaEglhaSpO03N/XBRw/lZmbVqJ1dZEwItvtudsEDS4bBB3V/i3MsvU0yRqcARN9Rjbv9MAnN+YNWswbu8iwAgNBPYAxedrYauc4B084EKQupoUwZO+wIssR9hhV8zwKxptGgnsZWL/NYkj8rEj9DgLmkCyVLgbQ1W4Oy0VrAKwouwJMsFFQCDA6KUM/xjBHyvxap5SgZQfmAWRfYkvqsbnfBpwjgLGj0AcGZvIie437CLiR6LLimQfJ14JPhsWAM3BGksrD8yEKJPSOsgQyTWNuQoIKelCoj01nQxDG1iQpChYItck2BMem+ArmDgLGotIAkNJSBs4uWJFxTYkIxBGlfN+HGzyBmKTgO86TKAG0EiQTp9AYn1N4jBLxvJQpVXEXM/nW+m1i0x+LvtGGopxKDH2RNB06ilvyvzS1J9DMA5MaAPlYGNP0mLTEfYg57So6tUJAWpsLgCJNlE7W2JFiOpgI4m/hVwQFmpDM5N94ME3UbEkSS2qWMwDCvxEuhWYbSpBIawggwQpEm1oU22waJwosd0VTwvnInPdVRTUkVMuyPSr0nErU01GKypmCKdRIvbDApcm0WBq5EMtRYZ8i7WMzIy9QyAw3AcE9JFiFLyIiha0yxp1FrjdQq1NNGpLbklzQOnTsrXvIYVB9IBJ8zkbH5uvmiTIb1/njGDDCz5Z0m7Tsc5oB24/RRcS54pj91p01wY8EqQSZB0sLmTERsMEPB6kqr1WdHYE6FZYQGQouraiy338sxcjVjD5g5xQHw8wpZSADWQquZpqTIHiEEVqdpNNp/i2GM7j3LmeoA1qDrmcsulvEpgl6YIkeLRnUm+4BWRM9MF85zH3IN66cH3UUDZYb/ZHdBqVM6gq3vLFmMg/6iw3vYD+UbmV4mGIB1SZbaBFhYmR9sJIfEhdiSWSfEJJVi5uYJVmAUeXzKNrRfG5k/ipSSJYSVgrqNwPKb239du2HG4kDcKjZN6Kd9KmkBel/Uj+htP198YXMHK9KpZlSpebjQyC8QwOqCYET1+wK3xSpUwTqGykSYJDBWEQL6R5YI9u+LVL4nU1AZmQl1kzpsYG8lZGwF5vsZnApcVGfS5NeYHBE64t0jipi1Qx9SBdmVtMWaeKq4nDYoRao7hW6eLKYr0sWaeBpblB/xJ+GiZ9dS6UzCAhHIs4j5Hi8TdWvpk7yI8+ZjgFTK1HWohSrS7H7XFmBFwRj10uEN/xGceoo4TV+9KU1YATFyVDeZTcGR02tjkXjDJIGN+1x7OJojof7WrZvhGafOGx/VCTczyJJgmIG+249Abn6YxePccZvKDJX5TvHW3b32wOZrigUAWlflmfN+vtj5wnNFmLgEaFYxuJIhfL6MQd8cgZh9O5WkucCtng3KSVWYmXbSQ9hpUi5C764/NYSpADTOGByvn/BOq2kg0yTaTuPKR6CSAPfHT4ZcNGgm6tEsNwe289zMkCx7Ysf/Sj1PFYkqZ/dqSQNO8rDDSCvzQZJjfDTDrNO4UC+Qgj4sZxH6AFizSABP5T1HU3tP1GMJOD+JlkzFEEfs48Ksm5XzM3ijujloNvK3W+LfP3Dihd5kuSpsdK99yRAsBexB7A4ufDbPeFSD2PnqU3U/LURlQOrDqrKfQiQQQQDgpd6bHdL2LOrhD3CuJ5g+VdVyCwCFpib3Btf+e2HNyrVdQhdDAVi7XmRf5QdQHUgLv74XHMXA6VBhVQnwKh8mrUzJ1NNwPxr0JAVluIkgMP4b8zLpCMw7KLrIUbCZAPod+nSROmIFt2V2Np2kotp8ZSodXl6bgzAiI7xA32LHsIS/wAS101Q2wEz1I6SALAdZLX6jph55vh6BDpkiACBBNtjO/qb3AjCe+IHCIJm7CyzGzGQF1W1DubQzYJ5rdgeV6RhaVucmcWaoqxYAAgWgTBZibXPcQOgCgWwud+HpVPyylSJNgyPcIwuBquSV2ZWInZh3+HHDnKS0jUrKIhSYYsuxuuokyJwQcR5bIRjM3IUkAzGx7yZj00ze0MBlN2CXOrolhwbmCrk3ai9mBAZr6Ym0bSpB1K3+oQOpMk5wNSQhLSgQUlDMxg6mgCxOkGSDO5Ig3FOectrpU6vm/cE5etEGVB10WMyFlWZAb3p41fhtzGtBg9NKStZQ7FmYqYBgu5AJkg6AsgR6GmohtjbuidQDwtDMfDqqxD1BpIaQjHz1VMbgT4a9gQTOrby4KjwBdDSoCgKADO1ydiOoXcTc94O/meYlq+YqshXM9JAY+YG5UsoPX33xnZ7O0qlPSTZYNjcyDIje5joSRJxkIhFWq9159DjhK/g9dUzSpMCoHpML6VFVSuoqADpVtLfQemC56r03RKisj00eU6A6iDcDspO8XET0X1CrrZnhhbS7G20iBEQLfL5jvE7BkV6wqmm5k08xTVzIn96C1FtRE3NSkzQpsSTcCMKyHgjqVDfU0gcrE52mpTlfwrqcjVbsJ3/AJyQ3bBZ8OeJsqIwLK6LROq4MGmh8pGmZkAhtQnpi9xLluiKLaVPRSTErOsWu0wSt4sT02wCcl55lzL0tRZmGoFtiySwm9oXzEAQACL2houpwcd+i8AWFMjnjlqhmg1RqWXGZO1RlKo53AraCppM0/4qnwzcsoguFdlRRVzQzGXpUGp76kRjp6aC6sXmPI3i6WF+olz5Q+ISkgSq7A2OmDMwYki++wvGF/z0tJSKFdTUoXNNwVWtQkm9BttF/wDAqHRMQVMEgljFa2HbqOyO4h252WlwXlvJZiT4VAaRbVTpzAsvZiZjcST6WGtm+RcrYeHQFgP8KkYmLzpNxYjpHfCizlTM5PS2o18uzFadakIgjenUpHzU6yn5qbGZuC4gkpyfOmYJFMZbNliQFbw6pmCYHywZkiREnvJwRnlkbhQ11HS7lOFcW6OKi4uUMfUdLuPKtLidVxDSxYp4hCJVujieniGnixTXAkElSrjzN/xP/DqujvxGmpqU30awJLUWRQgJ/wBDBVOrobHecenFx3KAgggEEQQbgjsR2OMFm+WjHw+WeRuPmsdjMO3ER6Cvz74Nw3xVB/7u/vg84Zwnw0cb2AJiBFid+v0w4ecPgWKbNXyoBQks2WidJPWkeq7/ALs7bAmwC74nzIKalSoJggjtuCGG83iIx85ZvhMThJzDI0j9CufYjAuw5py7cicyqqj5Sw1AC4kLe51AbSBtv1wyaRVkLiNgYO8dRM9rSo672wlcpkAqLAg1WDFNiFaSksTAA3KwNxcYZfKueamnhqrkhWBmDpJ1RqgkBSAIuetr4xLi4HS00Es0BDfxSWmV0iII1WEE/wC0+p9bycBXKmYXQFEwHqG9zJ0A3gdNOCr4i5cCB3GokA9fQxP3xm/Dikp1qGPkYOZGmQ0KYWWnSVG35vTDDXUw+ySe2yrPGMsVpEwGSpGpLyQCVUrY6HW7K3uIYFgRrhecNFtIJKGCjn/ME9PygEMCstDyLxhyc0ZCkEDAQWSDtBMTIANvVu8n0KdpaRU8GoQFaSrHUTRZvxAblejAapTpKiBxyCQEKSNNBNPk/mCxDMwZ1/dgEQJm5JuDcTIsfvga+Ib1KglVYi+rWwAn5QRqb5ZIuJBj1GBnLZqtlmdavkcNEeUxtEXgoRdSs2IIkXxDzBzCasAztBA2vtCyLmImbADe2JDTq4sKXOJGk8pifDTjOhDSjQ4BUm0MVB+Um8XsSL2vjfzmepMpVYMAhrWkERN94kkgSJvO2AbkvJ61sd9YAsYHkAbzEbMCNiCZ7Rguq8KhDJAIVRO0FTvG0SQNvtGHmOeTZ4CoTtSXvFIqCtlrjxqetAT+OgfFWbW1J4lOTfUwEAYF+TaJYhVIvBmQLDrcibk7gEEY1eM5hkq60aDSIdZFpVpUTN53hjfsbHEGb4UKGYcU9JQEMiRBCv50FxDFUIETJPQ2mwIddoP+nyTL5f4cASsfLYAnvE+kGTv364L6fAVeUBACmRa0gEkWJ3WdgLx64W/LfM9QsTpgwJJkTc+Y9ZAhbi8emD2hmc1WbyqTT1CGBsZUAk6tJP4rd5F8ZCORjGgAKza7IL+IXChSXVJCgjUewIMdATbYxIMibnFflDmHWuW0wqo2YosJJ1KDSq/Q6qz3kR6Scdfidw2sqywCiTrl9Wr8oEqthB6E33xFyjD0XR/KytTehoA8pOtXKr1T5A++ogDcEheZ2o6Wf+qzTpcU4aNCiKRAk76ZNjMAx5dfcRM236lL8dX9nzQrS0VAwMAxqgrJg6ghEQInfaMH/DKuZNgEqaRK7/MYNqZMzA2Be4HlvjO5+4UatIKVZaoRagEA6TvAuvmMlYIgEm8gaW3jWzbkK5Fi1v8AB+ItHirT1alAKllWdYDKVubgqGgapA02vjB+JfA6jUw9wVgmx8swTMmDvYXNuk2qfC7jmlAHDeUgLMQ0kKJHlMrDAQSbrYiMMXmzLrWpMFm4JBtEDc2BbrA7dsKMadJ3V2tDmpScBziq9Q0Vfwcwi1DTLEC8CoBp/wCk61UVp1A2BESa3M/Da9NWei9SqlNAxQyKtNerMoJDopMGogGkAagsrOJSqeA5p38jawSQAEYgNJEk6H0EC13YmcHvLdbxwKiH99QIemFMXuVuCGAYDQROxOmwERCNTtJCoTq2KaiDFukuKlPF2jj6sXdFZpYsUhiGmcT0cDQCd1cpLiyuK6HE1MYGglTriZDiFcSriEMlSzgH52+DeUz0uQ1Ks0TWpwC38asCrH/VAaLasG+JRhDF4KHFs0TNBCXkjbIKcF5o5h5HfhzAVf3lNyClYWnuCBOlha220HfF85umqh1N5mxNxax9RuPX6y9OaOWqebpGk/W6tuVYbEdx0I6jtuPLvMWa01GpEgeDKECYJBgyI6kH+xj508T5KctxQ0fcduPbuPotLzDBiA23gqpzhxYVQTYdhvI6H09d7+16nJCFf3pt4j+UelMHUR/plgPoRJjGPxTKtIAJ0AaifTbra8BV7mB64IeCUXVVhgA0lhAZRMRAfVAWAJ38vXGsPOmPncrXqN7o0TPo8AfLU/d2GrTqkeUb+W7newO04DuZ+EKrKXhSSCYAMAdmErsIG+/vB7wHIfulFhZtZCqCZ8wBIAaFEwLA+vXX4ryhTqUzKiyyCehiDab+Wb/W0YShlbHt3RHRFw2S68FMwreMpY6pp9HXVNkY3KxcIZX0kScjiHISiy0i34mdi5MDYIEZFAiCdUklRB7y8MoPRqFGk7BNwDJIQ32EeUn0I6Thq8vcSNam2kKN1YTOn2kEx7T74I+Z0ZGkmlRrCTRQRy1w5FKCRTdRddLFSqszNBBYzBNm3/NsME+eUBZHiNYifIpBESwU6oA3Cm+rr20H5bCqWAIDSe+0DTe8Edfa9iDzNMDTYGxFosY7GwEiL7H9MNQkkbqHtLRwkJzFSlpFyx3NiZMCbkf1JvfGtzhlyxfNLd0IpVkPQABEqhRFmChGiwfSR/iACHjVOa6ruA62uJk7kAiD/d98ElMgNqCytRSKlMwxqBx5wCVsCPlgSGAN4GHo3eoBKDil25B5gV5DQajFQxECyjSq6pCjSNyJt0OnDL4bzgieQAALqibDvvtEkicKHkXgZSuaRYFQZW0FlYBlI2IkEeWbG0Ww7TyhRsWCsYtHT8veZ6jbDccgd6OyPGx4+6l98S+LishgEiA1ioPqYMknf6+2B34cIHqsGANlAjzdfLEdAB6Sfexhzdy/TpISDAEnw4tIFiCBOwvOqewwH8qZ0rXcjyhJDGZt4iCSsbTuD0J98BDy2ThVLTq3TPbJOjKP8tZMhvM3RulzMgGR5dsE/CNFem4crrvqn8PzRb+hFo64i4eqVEJ6nYjfcH6bRFre04pZjOeG4IgBoUkkX3AIiZuY36+mMu+YMFptjNktua+WXoVNaB2pyxYKJuA76gZkSbSQb7+tvI85t4WgDSx8o/DEkaQRPSb2ggQR2aKhXU3Ei8C0TINyN7zYjbfssubOTkL6wSrN8rRYMvmkmx2JAaD73OMZM6t2ncqj4y3cIB50yahlbbo1TppaVZtNj5QSQYHmuNwMXvhtnGY6AAWHkaQxOqTJ1KDJBi06u6mRObzNWLqEK+a4/iN4j/SxBP0x25d4h+zvpmRUCVCUmSzqGdQZIBV2KyYMBT1upG86bPNoIC9F08XaWKlAYu08fXpXcSrCYsUMQJixRwElLkq4uJ6WIBieliqG5TLianiFcWKWIukFSrjsBjpTxLiqjlcx5Q+M/C6mVztVmV/BrsaquBOrVBKq35gxMicer8R18urCGAYdiAR9jjV89yUZpG1mqiCkcZhPtDNN0vGVM1Kyfu6VUgMD8uoMBNpiJB6e28W5muJVAdOnygAEERpvYG8/Nfp/PHs6jTAEAAAbAWH0GKHFOXMvXBFSlTebEsqk29YmPY455N4BkDfhyAnsRt+Kwb8kPR26808v8eKaRvMn0MfmO5G/Xr6YKafM4qKJIAB6dY3n2/qcFnMfwFo1RFGo1EXN18WJ/KdaMPqW+mK3CP8Ah/SmNL5qq47Ki0x+rVP1nGnP8E5lrNRgn5ikl/jMQNgNktubKCtdPVtXvY2xzkbxAIEASTJJIJP5Tv6W2wa8y/Ayst6FbWIYNScBGIIPyuDpJvswUH1wtKLVKGtGUqyk60MgqR3BHUf0xgMxyfF4NujENo9O34rHTYWXDut42Tlo8wAIZ0t0YkxBvsIO0T74E6mYpupAixLH2mBsOov/ACAvgbyXHlqDRJYGzG8Cextt3vvgr4VwUFGF4AgDsOn0Ee/vc4xMeJMfpcN0s+5NkouLoBUOiyqxYH1Gk+8L03iT0id2lVZrAEao8QAwJZQ5gRsGvBMA9BbGRzdlPDqab6SxIgSBqidyJuvYY2Mpwt6nmEkFVkwFmAGJi4JgR0JYGMZPXqpyxxaQaVZ1am9HSdS6Crr1BFRmItNgHHe3sMPLgnF0IENqP6iOp/l/vjz9x5DKEfhqVLEaS0rQN532H1ODbgnNJAS9lEFp7wfSRYX398Wlk8twPdNRvrlE/wARwSjkRdT36De8Rv8A31WvK9YLmWiCGZrjdTeRpaxtswtJP0YdWv8AtJVEILMdh6ap/hBBPmuAskkxjQyvwxyyAAjUbyw8pk9VIutxabxE3nGzZZleJzJ3/HbYHJPA+qyOHy6XFOJYNla4dUNEah8gAt+WTYg9RB2jrvjC5jrVXI8OlVZiPKUSo8zcFSq3mBJj+VzLKcNSmIUXFgxliImCJO99xfHwtjfYfA88jfjyBvsN/wCFs0Xh8kfEfXyQLwbguf0+ZWSPNBdELabQQ7hgJJOmAIUCbjE2ay9VF/5ioqU1MltSMT/pGmQWPa5AAsZIxv57mKjTqUqLsFeuWWlIIDsgBK6o0hyDKqSCwDQDpMJ/OU8zxWudIK0UJVS3y0kkXPd2sSJJJgTAtrWdZHhcG5sETnPkPPb5e5vot2yTwfh5D5s7iWN6Xz8/ZdFR3iixDvUFQZTMqoppnkRWDI6wBQz1FAdSwq1qah1ghgKo5KzYA00K4K6WA0M0m6sNS6ugBFzNu+HJkcmtFEopISmIHr1JPqxJJiBJx3Y423D+BziIhJM7Q48gDj++44vhCzrKMLi5fhbBu1gbkDi+9cA81yiGicXqOKNHF2jjrbl5xVhDizRxWGLGXwEoSuqcTU8QJieniEIlTriZMQriVcVQncqeniUHECPiUHEFVXbHMfNWOaseU2uviY5jtpx1xJK9a+M2IScd2XEeIULhOBH4lcoftdFtCj9oUAowgM6rMqT+KxMA9donBU2OpOMZmWXRY6B0Mo569j3Q5YmyNLXdV5Z5cyHhMabAgkkX6ehBuCPocNzhOeVVAkGRHeO8998EfOfI9HNjzfu6o+WqoEzt5wbVF2EG8bMuF5W5Qz2XALKKijd6clY7lSNazvcEAmNR3x8z+IPCuNy5xlrUwdR+/ZafPgH4fcCwhb4g8OHiBrBfLbrv9f798E3KDIUCnp8w6tquL94tjC5tyRrpMSfKY9B/f640OWcqaagmBN53xp3mkQjdYEN+IVl858AFRlIELrf1MEUt9vy+mB3I8Ad6gohiSdrSTGw8oue2GlQrBwQ172PXb/xje5Z5VpUT4wB8R1i/4FPRbWLTc7xa3mB2jIsBNnOJ8hnG1nsFksHlhxL9uOqk5c4B+zUwhINSCGYX0g30g9RtJFiR6AnQd8TVmxDj6tyzLYsugEEI2H4k9yuk4eBsLQxvAVdxiuRiy2K74ypFpxpSd4lw2rnatYeEz0HIV1b93/hWR0cwadZCNaunmRo6TLE4DkKlKklOpVNZ0keKVCM4k6C4UkFwsBmEB2BbSurSNapiFxjWsBkMOGldO8l7ySbNUCew6LO4jMXTAMa0NAFbckDv3UBOKtQ4nqYrvjaVjrX/2Q==;" parent="1" vertex="1">
          <mxGeometry x="115" y="70" width="220" height="220" as="geometry" />
        </mxCell>
        <mxCell id="ugAIHgSxgHmGyD-dgIst-4" value="" style="shape=image;verticalLabelPosition=bottom;labelBackgroundColor=default;verticalAlign=top;aspect=fixed;imageAspect=0;image=data:image/jpeg,/9j/4AAQSkZJRgABAQAAAQABAAD/2wCEAAMCAgoKCgoLCwoKCgoKCgoICgoKCAgKCAoKCggKCAoKCAoICAgICAgKCAgKCAoICAgICQoKCAgNDQoIDQgICggBAwQEBgUGCgYGCg8NCw0PDw8NDQ0QDQ0NDw0PDQ0NDQ0NDQ0NDQ0NDQ0NDQ0NDQ0NDQ0NDQ0NDQ0NDQ0NDQ0NDf/AABEIAQABAAMBIgACEQEDEQH/xAAdAAACAgMBAQEAAAAAAAAAAAAFBgQHAgMIAQkA/8QAQxAAAQIDBgMGBAQFAgYBBQAAAQIRAAMhBAUSMUFRBmFxBxMigZGhMrHB8EJS0eEIFCNicoLxFTOSorLCYxYXQ1PS/8QAGwEAAgMBAQEAAAAAAAAAAAAABAUCAwYHAQD/xAAxEQABBAEDBAEDAwMEAwAAAAABAAIDEQQSITEFE0FRImFxgQYUMpGxwRVC8PFScqH/2gAMAwEAAhEDEQA/AOTZpbVvT6xpTaWOb6VFAese2eamYAUkEMH5HnsY0zkCsc6HpZRwLSQVKC3oQDu4aIy5BTkB0H7/ALx5JUcnyO9WiTJWemjU94gSQaK8X6zz31aCyZoAHPL9t4HyrJirt9tzifKu8BgNfX12gWRwtfUvSTll1qfQfVtIkIuslJrnqQGHQbxNs1iCee9NP3gzZ5Xz+zAUk1bNUkEu+6Ug+JCFH8xxhW/4VYTlql841Luc4gtFC7KGaS+h3Ch90hhtK2I61J2MZ/ygB5Gh65gjnr/vFDZzvZRkE2h2/CDSrSkksMnxA1KT+VT+oUKEbEEAwi8AR8VTzFPlCpx5IXLDyzhWVYipJYmjhjmx5fSJfCl7JtCDiCUz5VVAJAxoyKwkUCgfiCQ1QWFYlJBcfcb+faNnwtI7jOPSKXiEqGTvTQtRn5HYwqXVchSsnFhT8L10fnTOGWZaARv8/eIFqkUBH+rJ+TVL6+0RjcWtLb5QMc7owWhS5t094UulKinxJJI8yOepHKCSkYc+oU+fTR+TvrWFqXa1BcpQoyikvknEMLnpmBSGdawUjxOc3fwmhFOdcoolDm1Z2RDwXsBWpTl/lRv0iCqQVflZ2zHsxf2g4mxkCtUnzI/UcokSLEpBcFOHMEJAf0ArA/drhBkJSm3fN2y1GZGzZnlQecSruKk60pmHy6w/WezBQ3GfTpAu9OHWqAeuceMzt6K8Ma8Xc5UnEjM/EnUdPukRrItTF6Uanp7PEi4kzAoADzyHnDBfNixBgAk0LjUgvqIm6Vj+TRUKSVbbKiZ4CtJWkP4SO9A5pNSncNtFU8YdkYUSpign8TeFXNqHzT5xZyezcItP8z4+9crbGChyCGbACUhxTEAejgn72uuZMklSqkBhRmGw5cv1hrjZjMdw7T+Rv90b3+2NLTa5usPZlLS5WSvYJdI6l3J8m6w2SeHJSKpSlPlBhNiZ3fb0MeWmU+/yhvJmSSclCPyHu5KHIsm2Wuz8/L5QQu3hZS1MlJL16dYaeE+DHBXM8EohiTmdXTvlSIXF/aciUkybKAkAVXR1eevlABmc92iPc+/Ci1l8rZbrJJszKWe8nCuBJ8IIyc/bQJvPtkNR3jJ/KEGnQhh7xVF525cwklRrzjVKu8YAXclRBDZUGr1z9oYswGUDIbKJEYVm2btWlgkmYqo//WfqT9IwtnalIUXBXo4EpA/9hnFYolUPIRhIs1D0gn9nD6Vgjb6RLhkFMwTFKoxBq5AKTlqwNaQ9zk0GoIcHT7aFTtc4T/lbUtKXEtYdG1cwOhg5wTbO8lAP4pYCSCcxoRyanURdlC2CUcI/qmMRuBuOVNscl3650+8jDJdF3JJAKXBYlzU/QejxDN2FLnJwFe3L184cOB7EFLSMWjt96Rmcqem2EjjYS6ihdu4PVLIP4VfD8259aZQRkcKrorDQ5Fj/ALDzIyiLaryRaplplEkFKilJCi6QhTACuGrVYOXzNIkzbhmSVBdnXNAIAYFZNHDkhT5UziowyFlk7la1vRLaDaKp4ZWz4S+jJ/aNdputaQ+E8qZerb6tA9HHlsKsClFLqwgVLHkVEq9SYncSm0YxLRPILAskhKtyfC2cCDDyAdyF7/oV8Fae5Oow8yzfU+jx7bryQEqSh8RpjJp/pDUB3JJJ5ODldFy2n+ZloUtc0TDhWFqJZNDjBJLFPvlqIJcQcMplk6Vyz1bTq0VPZoeGuO/0SfMwXYxpKNkld4kpVVSXwnUpOY5kM4hYvKxpslskzEKKpazmc1JNFA1L0LQ9qs4zAwkVcggZn18or7tZs7y0rSPxYg34SGxAZhtRyPKrrF3doPBFI3p0+phY78Kwr34cwOBoxSdFJIcEddPnArvEmnKr/dYcuCuIzOsEkrSCcIRiIDqABZ+YIZ+WkBbXc6fEWbl06HMvSErXFsjmO8GknzIRG+glgWFIOEh0Koa6fqM0nkYYpVxBCAEk4aKScx+3R6bREmyQWooh9aU5Z15wR4fvkpXgXVJqC1GO2x3G4iU7nFvx/Kpjlr4o7ZZzjyc5fWPBdxYtUZkUoeWxifZrEmpS1XDMffl6RvXdzeJNTqPswiMmkq4oTKBDkHLMDMHny8jBmXbnA2yMeyrOlVSWU2n1/SN0q6xm1dW+F+j/AKxWXB26j4Wq57H/AFGzceYYio5Q0q4acP8AJ4FXdZQkuCSWaoLBs9Ic7svJOEA+WcDTPddhRDUmXpwuVh6kjlpygbdGI4pRFNznrFkItYc/ebQm3tah3hw7sW9vvrBGK9zzpKqkGncKreK+HVS5pDeFVUnlsekRpZkSAVLZahUAkYQee/pFlXndpnpMs0f4TkQrQv1oRsY5uvNJ7xSV0KCUlOjgsfcNGxgjMrbJ2Vbaq0V4r46mLIJ+ClMnGwYbQl2mzDEWy0PLmd4PWtIKSNsuUQpcglAO3h88x5EGnnDaINYKaFZqQCZY8vnHsyzMBV6k67CDC7EXoMo9FkJFdDlBfdVwePaBy7MAw3oafKPbPLbEKks2XN/pBKfYjHs2y+JR0NfMh/nE+7fKs1Lp3tM7N5dsl4VDCsVQsZg/UZRzv/8Aa612Wa4AWllDwqbEkhvIjMVoQI7jtNgSYVuIeEUr0hZHlOY3QeF0ybFZJyue7MpQlpSoeLAlJfkGfnl7R+uS8DLUlQpV2+cFr9s4TNWnZRH0geuzCn7fqYAcA4EHyuV5LtEzgPBR2y3bL70zpSXUpJM5GRLq+JAJzfQZ1yhl4M49k4ykqwk546eVW3isf5qYCGXhALgJz9dRyLwYm30FD+pLlzC7upCX9Wf5R417mCnb+va0ON1vtt0vF/VTePb9lLtCESiKK7wkNQjOogfPmzZtpliVVZUMVaJAzUqlEx7Y7xlIOJMmUk6EJD+pdvJoK2Tj0JBZKU4ncpADnfIRJ2U8CmM/qjD16MD4tNq3FzZSFeEgrwBBW1ThL+H+19NaQncUW5JUBmWJNA7k0OYfKExHExUFVq9PnAhdrWpQz2cVS7vUuAPeE8WK8SGSQrOZOc6c2Ubt1vBDAu40Fa6Z1eNsjhlBQEzSklTFUsByg1CSo5YiM0pJ0cg0gdZ7X3dUBlKqVlsTf/HRkA1GIeIt+F2jKw0UF70JJciruXzqOnOGBvwqIJxHIKRyXLEmWiSh8KXVkz4iTz/NvAqbOcp9D6P9IabXdRmAN8QoOYP+2VehhftNyYVFK/iScuTEuKjMZGAQQCb5PKvzQS/V4PCzRJJPJuXyr0yERrddZORZQqks9edQwO+lM4ZZVlUkZBqAOB8xWm3vGSZYAqxLHIUA2GZ15x6HVwlN0g9w34AnCXBFFVYuM4b7FacR3D56tq+kJlssDKJJYGinBD0YGrMRp+0RrDKWjJYIOygR84Elxg/ccq0S1yrCRZA5Iy/c/fnEiyKYGpFdd2BO28VwL5mCjwQl8RMEg1zUXOqm+gEB/s3KfdBVjWe8EZUzNX+2iYLxQ1DrUtzakVnZr2JIZBPIJJb0HziYriHxeIhL0L7dBXPRnif7P2vDKUz3leRyGtBWN3DrKGE56wtSLylO/eoPXw/MCCV13mgH/mJY0BC0l/IKeLmx9sWAqnOJTdLsQDhukc8dq3Ak2VNVNPiQtZIXzd2WdCMgdQI6FkXg7VB2LwD4umKwKSQFIUGUkgFxq2oPMNDDEzxGdJ4KnEOVzOZJbTyHzMaJLJJq4UMJbbfqCKQY4iuzBMWgF0gunfCQ4fmxY8wYjIsHlGga/a1EmlDXdZBIz+RBqD0aNdnkMVf4/wDsIPWez4pZ3QfPCot7K+cQpVm+P/D/AN0xDUpIRPkR5aLLRDapJP8A1kQQ7qhjy1IZCOQV/wCRi5rvqpBy7JsM0qDmNtqEFTYWEQEWdzC4LtFLnTi2WDPmj+9T+RMBVLbSn5tPPaGrtU4dNnthI+CanvB/k5Cvdi3OAYRSJjhcc6kwxZDwfaE2qcH08841rUTl6lgPWkZWqxpFWflp16csogWi1Oz5ZAPTyAi0NHhLgQVlOmpzJJ5JD+pOEejxii3Uogf6i58mCR841Ga+Q9R9/pGyVKJLOw1LUAGZLbbakgaxMbKdqVY0khKjUmocBkjkkUxHdiaaQWQtRZ1E6ByTyDOaVgehJ0yyGrAUGfJtKxPkJOIV9TqK/SBJDa9ZyFJABVTJgA/IN7M2lesbbTLo2qm9SW+RjCRMDnWpIoWzfXlBK7ZOJaXqxdvKnuYrdsLXl/K008FX33asBPiQ2EkCo3Lvl8PlGy8LuHeFS1Aklw5zGh98tCDC1fUlSZiFpbE5lv8A6SpO1HDQ8XLZEWtGEslbULZK1SeXLmIVSts/dPAO9GB58IfMkOHdwdMz7afvEYWEvTp7PG2Vcs6UpWIOl8IKRR+ddmiehCj+EvzIr0YnRoqZ8dkskhc00UOTZhV8+Y0rvAlF1JLvLSxJKVMQTvXlTPP1hvFgo6mc7P8ArGdjkhaag4Mhsoa5b/UwRe2yGKSxwykVCQRWinbLMYVJLjOim5R4LuOiJQI/EUFTDpMUtPtDT/w4p5itHNAdia02J9HjdLsgIBFc8uRZuUSDyoknwlK3XeVAAqVmaEnAX2SGQkjNgMiYwsHBqXxbVhsnXS+ezCJ9hngAJ+EihFM+VagioiqWQhttU2n2lld2AM4LHVsvL94k/wAihvhBY1pDhZbrCk1qDnU5fWBl43RhWyRRRf1pTevzgZkhPKkQhou9DOHSdhT9YjSr4UQEqyyBy9Y2W6UU5/fVh9vAa1KJLCjbRboa9eWQk3ji7gmcDoQxHSv6wC7sfeUNfGchRSC2RY/r5g+0L1mQdYfRG4wpyc2vbrsTlYNB3SyzF6JxA+oGsQbLJBemnn+0GbDaUhSiXbAtKjtiGEH1OUQLLKIJFOTZEZuORBcRPelFpFIWqxt5RqvWXUDQfLMHzBeC9pSPaBN9qJKNfCx8iQPaLGEkqVrrfsnvu1WqRjtEoSlbakb8ukNEmxeJo3WW0hIzrG67ziig7kkbLtgCpv8AiMu5v5ZWxmJy3CS2fKKdtdoLRfn8T13hNllHXvfYoL/IRzKbdQatE4xa5d+om1lGvSm2pdH0aB6Zr8q+sYyrxo0SpMoZ/Y/SCQ0rMgLALam3z3jehJYDVVT/AIiqU8gS6iP8YizryliveJo4op+f4XiEvjGUk1W5J0Ci3LLICLBG7wEQ3HkIvSUzJQw/evziTZJlSdQC3U+Ee5D8tYX7FxFKWaLD8wpvVmHnDJY1jIEKTQgpIIJY5EUYD5QJIxw2pTET4/k4LbZ00HlB255dTyHqd/YiBNnVrk3n9IYblSG0IqX9NuY+UCv4Q92tN+WpjJBY1KyOiSB/5xK4a4mKFkpLVxBLAFwamgDuN3gbafFOmEh8CQPMkkjywiIVolpDkBjl8VPSvzgUtBTPu9vT9F0NZ5qJqVHRaUrHUUP/AKwiHtBs3f8A8vXHiw4sPgCtUu4L+TPSPOy69iZZlk+JLgcwciOUYT+zCUqemcoeMKxUcJJd3U5USp60KQ+mYKhzGMe4yE78V7T5nZe0vk8jb7o7a0gUzERbtsqkpYVS5YbBy2TQTt9zDJ+dH/URFuYTGUEkMCRUOdxVxvqD1i+KSmLKvZvsvJIemsRJicBfMZlsxzHJs4ITbBMAc4Xz+E//ANR6q75h/EP+hvmVRYHtPlU1SxEpxo2cD7ZdYVl58/rEhFxzKgLDZthPzBLejRomyJqSwweYLfP6CJAeio3SkXXeK5ZY1A3/AFiZa7zBYl3Fff5QAtE+aD4kpV/iS3oR9Y0Tp80mkk9MQH0MVmK1IOKl3hbQolhXy+kDf+D65npGS1Tk5yv+8H6RIs3ESNUqSebEeoixjNK8JJS5xFdJUmlQaGnofLLoYrGagg4dtXYcq84uw3whz4gRqM/9usVj2i3LhIWMnbyV+49+VWUDtg0qwHU2kBJcYRkczuf05axKs8g4OaCBX8qn9gf/AC5RDsS6chpE275+JZTopKk8nIcf9wEHO9KsFQ7WKRGtkoNLfMpNeQWoDr1iZKkOC9K1j9eUuqRshPuMXzMejZTXU/FPafYrKSibMSFjNL1+UAbn/iUsBXhSok6MzGONe3nilFpvG0zpSiqWtZKSYRJd4EEKBYiNFF0lhYC47rrDs43QXeXbZxci3SUJlOVSyVlFMSgQAcIGZDORnHNNvnBBLnC2YNPV8oVr44zJQjBMZYDlj9c4S5qiskqUS1SSXj5vSwDzss/n4zcl4eTunm9uM5SKp8avypy81VAHR4ULz4nn2khKiWJZEpFEPpSuJX9yiTGizoApFocE8Dd2nv5o8ZHgR+Qb/wCR9uuRLxDit1EbqmDBji35K1XfcHcSgFHFMIqc2/tHSANokOYZb8t2KmsIfE3EIluhJ8eSiPw8hz56dcl0DXzvtXu9KdNvJlYJZAb410IJ2D5tqd/UzLBxWuWod0pgC6/yqpVw7EU0Y1zhKsVvQEkkurLC1PX9o0f8XJcZPD39qCNJCrcARRXRnCPE6bQksGUn406ciDqDpSLHumzJCNqaZftnHM/ZhxjhnpStvGDLCwGLkgjE1CHGEFgQ+ecdISrcO6K6MxUzhqaUdsoxXUsfsvqlmMjH0SAN4KhXWklU1R/Eth5AA5c3iPbLPp7vGcqxJwod6Coz8SjiLjWpjXOlkO1NcnzHP5QpAQ85t5pSOFrepExChsUKG6QQ58kkRcNsQ4BBcGv3lFH96UhOQWpRJb8oKf8AyIZhsd4ufgy/BMl4aBSQ46beTwqzW7WEfC626Sp9pWQgnMhJIGhIDxXPZ928SEAotKVKmFbqXLACUuPhwkh23f5RaxuQqS4Nduv23nHN3/0jPVMtMkpSFSphBBSAosT4qOSTQgvWGHSYopmubJunnT8RriS8Lqm0WeVPlJmyFpWk1oa5ajMHrEG57KC4NOUVV2BTrRJtAlKxd2pBxOGHhDg8q084ue9ZGBWMVBzhdnY4gkLGnblBdTxGwv2Q68Lv2pvAMScRNQ4hmnz3BNC/n9iKBl8Y2uXeCUBH9NUwJKO7qUvUuRidq4nw1EW4ULpL3GwvdJW4plvSapWlLsNFPu/rGtM5KTVQSN1KA+f6w12u7xibIEMfZopDtH7K58+agpUtkukgJUoEYnCkgfiAox2g3HDJZNLnUFLDxWyyaXuACsK+r6s6aKnSwVD86fLWBE65gSCliM3BBSehyhdsXYMFJSMM0qGapikVfQMlOEU2PWHHhXhI2RAlqUVVJAKsWHkDrBGQyCMAsfZ9I/NwoYo9THgn1aXrXdQByHpCz2i2ZpJfL9CG9ir0i2rwusFj5wv8ZcK95JUBpXLkWiuI2s9G6jS5rlWtn5OIJ2IGmW5Izf8AYQNvANNKebn5wWQlhSGzuFY7Y0pVqmOy96K67/6s+rxLt13pBc/lR/4CIthlYiEfmLHpm/kzvBO8p6VKJGTUpmAGDekV2pBc5W26CgsqhzrrzByI5iIVpsoAaLatl2BVCAoHQhx5bQq3v2dg1lqwlvhWfD5KzHmPOsa2DqTHkNfstbFnNkNHYpPsMoJLqyiDaJpOWpguvh6cAR3ajhqSkYg24KXBHMEwc7L+B5tqtCcCPAgvMUr4Ejnz2GZhk+VjWl5OwTEO1HZOHY3wctRE+chpcv4CqmNYqGBqyczzbmIcOKrzzrDnxFa0pQECiUBgNPvWKa4ivwDEpXwp01J2HMxiXSvy5b8eApuNbJa4q4i7pJIbGqiRm39x5DSmZirlzXqc4lXzehmrKzqaDQDQDpA4pjdYmO2FleUGVuBiVZGiGlMTJUFleKXLLZGOn+B+JBaLMAD4sKUKGgKVAK6OPF5xy9JMXH2G2lhPSAxCCond3A6MX9YzfWoQ+HX5CFyWDRq8hWtMt4WokVHTLTl9mJVosTcyAMzQDo8Q7lSAA+tfZv0gja7RiyfQdecYd5WUPKhT/ik5MUF2yqtUG7ktikTUsaFgcth16GI16S0haQaBACeQLYlf9yiPKNloPhd6io8qfR4ClpwpGA6CF0nwGgKKAaORnl+484O9ovZB3kxM9AGMDu5hTTvEMQMZ0Ugsyi4IFSGEUxwTxX3C018C2mJL/CSAXHKtRRqR0fdPG6Vyxi8zo28J9b4SHR/lbjCym9oaPHKryzcDiQCo/GaDXCnbapz+kCb8ta0g+EEcjz2aHO8rwC1HxOBll+xU3MwoX8s5AOCwJBDZuQQWUDTJoj3nzu1O5Wc6hKZXlxSxJt6jVIIGoLUq2b5fbQUnSVEggJq2Rr84hT1MXZh0IcbRKsqi7AEtUFtM6wdG43wkZJRJco4XJNNgPq9I2LSoMXceQPtTlQCPFWwBJenPT9olWa0YgHb73i90ZJ2VIcpiFHCCCCD6wo31daypwRTr+sMlmmUbY/ftGi1y9Y87FG1455OyWbJLUqmI9GA9yT8oP3Nw67hmceKgrpXKtc4G2mwscQJD16H2g/w/bdCaj3hljmvsqQDdrjvtB4dMi3WiWdFOn/FRcH0p6xDspcxfX8VPZ/4UW1AyAlTmzwE+BdNlHCT/AHDYxQNzpcPvl5f7w0duAVeRe6I3fKwqU+qVJSeZGnUA/YjCRM0o2Yr6wJv61EKGHNFX55xO/mEliMlBx9R5FxEA2wpBCVSelIH2u0b10g/arvdsufnAG8LARtFsce+6tY+jslu12ApZSFFCkuoF2y2294vvsoviSuzFSAETD4pwydWWIDnnFDz5ZYg84kcJ8TzJbAk4EqyxMGOYO4POGDm64yCnuJkm6cVZfGV+YiRoXirr/uyXPkqUZhRgJYHJTatRztG/j68Fqlq7upUa1qEct3yp6QqXrb+8s0tDMUu+jkQRgY1AOve06jka60iTUVzeM+6jxArG8qeNeh1rQiNgj1IjFaWiJXyl2RbF84tfsNU85aaHHLUGfYgxVFkkk0HWLj/h6u3FaknNkrp/oV+1IT9UIGO+/SjKLY77K5J1kKRtvQPEy6rtJUHD4fGeaQHPyaCF9WDAwJYmoA0ff1EMVwS0JlzA9e5XqHJIfrscznHKJZ/jss9iw6334CrebJKxjUHJKiRUJzcuNWfWDF4pLBvyuBm7+RifOsVAySH3pnrn98o03jZGIGyUu1aFAP13j5r/AJbqt4Uy75HeSJRJqApH/Sf0b1h44B4sWhQlTOiCdf7VfQ9YT+GrM8tQxNhm4nIp40sRnT4RE6ehQoWOgP2G9CYhI2twpQZBhkseVcl6XiyaB3eoOXkP1hOtsuruX3ctH7gDjILeVMbGmpB1TuPr+4hhvhKC+kKpY9D7TLJj1DU3gpTmWpaQ+Jg27VJ5B4yTeKmcl/Nz6xV/aL2miyzVICTOUz4SrCEvkSQFHKrAQT4Es/8ANy0WxWNCiop7oLdKSnwHDuhg4B1Jz1exY8jIxK87ePqgn4TgzWeFbi5BCXGRTiD18o9To3hOdMvTLzpAqw3pgSEqco/CsZjkrcc4J2K3omJBSQSkYVNmCN9f94Y6Q4WElJW4WwpW6qhQZ0g5jcZh/ZuYgvImA8uo/WIS5fhB1cffvB2zWZExNR4t9fXOKnABRAtKXG92zRZ5pkB5mHwhqiocjcs7A0dt4rrsJv8AtKpkxFoCiAHSooCS+JlJOEJB+LEHBZjvF2Ku8g5nkT/uT7wXsVwy10UAD+bL79Y8Zl9lpaWg35TnGc0sMbh9lq4huNNokLlqDpWgoUOoIpz5xxFedzGzrWhdDKVhPNiQG65+cd6pQUnDQtHKv8TnCRRPEygTMFdsQHzP3lEYMwPk0E8oaSBzBZVHzi7k5l3+cYXTMd0k7qR1aoHzERp08OQDGJmtXUEEN6w/Y2kOE1WmhPKBF6MRzhotE6Ad5tBLW0FEFIn8qVLwtnT/AGjXMu3CClocZl0t4lulZHhGoTz66QETNLkkYm3zPmI97l8I1r0HkmgSQ7H2oYB3xYipBD1dWH2p0OcNps9VLzSQw5EnI+QiHaLMCnrXn1i2GXQ6wiIpiw2qfXL2jbJlVg/xBcOBWMVSTVvwk/Q5jz2gRMjWxSh7dQT5jg8WF4qz1z+/WNku6yc1JSOZz6RgtWsQ1rJLZ7fKJWVcBal2KaQcIzPvF/fw42hMu1ICiAe7mlhuADXnhf0itLBw+JKWoVsMR57CmQ9YKcCXr3dskV8SlFA5JWDLc9SWHQwhznd+NzW+ioTbMcPouk+LL5xrLkAkl20SIX7DxbhWtIlTJqvCtOCYEpFARiHdqdPmM413/KYJGpI66ueYER7Da1SJs2nxhAxUoe7TSpfWsYXEhY5+lwQvR4Q551jZXB2e2yXaxgqmeM5KyMTA0Ug0ExNA+Go1G8ziTgxUol83L0+VchFb3ZwuQgzJqlAgEpKSQoPkQcwabwwdm3bAZpNjtKlKNRImTA6nr4FLJqkpyJ+E8sg83Ae1xljOw8J1l9MY5hcwbqVwVZgZk6WzgpChTVJH1MNE25PCUtlUQF4Tspl2tDhgXQeigQB/1NF9WS7JakOpqM9D96wETbViBAXv0t5VOC45aVBXwzgAQXzFYdbvtCZyH/EKKH3nBfjbhaSEEuApKcQbUb7irU5jOKou3iEyphfXwnY7KccvnC+QHcLQuhkx2BsooeEtdovY8hdo7xSylUwBJR/TxLwhvBiUCSEs4SlZoKQ6XFdSZclEuWkpQgMBQkvUkl6kmpJ1Ma+O7h/mghaXxJIIZRBSpJcFJFM2LEF2GUMF1KAQlz4jiKvXLyyj6fLe+JjC6x69KGWbhaL2Qa0KZOH7H2YxstnVLOJCgDR01KSwbxa+fziXxLLo+bM/rHl1zk5H5QVHluasoW7pjum146EMdQd+X5hzpDDYZBBcPTZvrAezSRRWrN5ihHQhocbsuxCkghw7F3P6wU6QvIpeALZORiGuWsQ7UCA33lBOUWcbfpEa1WR3Ye8TlptORWOakC5xtvbBaJHilEKwlyVnwmp8NTqKvnUQ0dsFs/n7EhYFVyxNTuCwUPLMefKAvHf8P4VN/pzFJlqViVLwuUglyEKxAAHIYkuH/FF0cF9m4moShYCZaEhITsAGYekT6hm4pLJIf5f7lt8jtzt0Dkr53LUxbV2MbpUukWZ/EZ2aGxWxQHwqLuMiDkerUPMGKvTM/WNTC9sjA8eQsZPAYXljvCd7YMJVEW4bFjUVq/5csP8A5KzCfqYdrD2YWmelSjLMqUkOqbMGFIGravsNYG3pNQkCVLHgTqc1K1Ufp+8TMmr4t/qgOOUBvSSVqxKLk8/aFi12apGjn5w1T1A+UA7chh1JPvHzhQXrHFL08keHRXh8/wAJ8j7PA7+YIzzFG6UglfSHauUQCMdPx5g/mbf+7beJs2CKB2UaZICgQahX39nlChevDJS5RVObfiHlqOYy1G707pMQrQg/frBcGS6I7cIyCZ0f2Vfy7GTDhwFwoUvaFiiXTLDO62IxVb4dC2fSJdlswUtKVJCgSxDAH1ABHV/nDVZOI/hSUAJT4ZaRkkDLSvU1OpJg6fOJZpb5/snUWQ126WLxmVJJoA6j98vnCTZr7UmcibqhaVp5YVAgeQDQ3cTIKwUoGviqPTOFSZdBSCpRAA0CgVHTR2HOJY9Fpvyvnytcdl2TZpSJrEM6paVy1f2rIYg7sTvnygZ2kcKqQSpRwoOCYo5lJKcAYO+ctydMQ2qq9gHFyp9mCKBUk92Qcyn4kV2ALf6dIvHibh9Voss1CvjVKIG7giYln/uQE9Fnz57JOcPO7buLr8Kzp82kliw7GkfzEoJxBYSMNfukAuOeH0WWelZT4cQSwS/jWSkAcyTTpEbsG4xl2aWqnjTQuczk7dQYaDxcm0TVqUhKu7TjSFNhJSQqmy6eEsWNaw7yL0uobUtkx9BYXpMXKWFKLGWXoCBSoFc8NA5EWXP4s7tYb4Vsl9HFUv7iKd7WbyxJRMQrwLGPIFT5FJqQ6T4VAagww2qeVBKT+JAbcUBBHMO8Y+IO7du2+i5nmOMUupvIKsi95a7Rh+FCSPEvF4wl3YDCwXmBVq1ekVTxndyUqUJY8KQGGzUbc5O53MPfCN4qVLDuFJdKgdxT6Qr8RyhiOVSQw/yj4MJ4U8jqUuXoZJwEx2GX/SQofEQ5ByI2P0OkBL3WpJSsVRtqDqDzEJ3E14KVOUnvFIlo/pJCSQ5TmSQX+MqAYjzhp4dUTLUknGgEJJNSKBlE1diWJfIneLpumlsQlITvI6e/sB30U6fa8Uoq3GcCbBagQkvsMyMjh35CHRMiVg8RSgZV8IfLNmz5wHXwMCDgW4JdgQQCefPrpAjcNxFtNrFv+Joqdd3FWAN4lHk2mZLkUro/tD7wVxGFnCyhV6t9C4zeo1MU1eXCk1FUnEAGIdoK8H35NQRi86V/f1i6MaDTlC1fl4yAKgdf35QlXZ2hSFTDJEwd6lxg1cGoBLAlqsHMOfDd9pWjmfvURzh22dnE2yW1Nss6VTEKmiapKQSpCnBUGAPgNSFdaQ2EDJQQ51bbfdNOntY55DvwugrvlpFTnEa/b9Mt8JbaF25eIROkomBKkhQxAKDKbmNHz84pLjjt4ONcuTKxiWrCZiifEoUOEABw+rl+UZDGw5ZZSGC65Wowo9R3HCqji+912m12kz5qlLUqYgJUr+mhKFNKwJyHNmdzvCJNsTE0qKERaquDv5sd+k4DMfEML1SSFNUV5wocbXAbPPwOTiCSCcy4zPNwY6Jj5MZAib/IDcKjrEbHjW3kcq2b4viaqUtONRScL1O8Kq7CGrnDYZJCFDUgwtymP3rDBgq1zzUSl6bLod4EW2Vlrn5Q3zbFQ9YVeJZwSGz848dwr2Os0k29qvAmXOI8QLYS7+/zpBO9ptPaNFgup32TUjQrIoOeH7zj1p2tGtW+0gFIUkUX422JzDaB6p/tKYHJlHLbOGKySPCQcjXod/o23QRotNjIrQjJTF22cacjkd4oD99kXHRQKyy2UVGgSlSs9MJ+pEa7HNxsQXSD+8GJN2lSZjghJThfIlyMnYkBqkPnEC65OBKUhqKw+rEE9R8oK1gtPtHxtGg+1ot9hIJaoUMQ5j/dweYhSvpBANDltD7fMlwrTCUkNtMBPo6T6mEi9UnSCcV24tDNFGk9/wALl6hNrVLOS0g+aSfoox2vbLyQAgDMEeYeoA3McHdgs7Db0NmUrSG3IpHXvDllWqZ4qEFmMYb9UsH7sPH/AIgpjj3r2VN8VWlVkvCemYjBJn/1Zf5GVUtTRRINf3P3XxbLloUpJcKDc6nTbKOjeIeyyTNltaJaJiB4g4qDulQIKT0z2oIrC9+yG7UDEJSlAEeEz5uHPVlAt5xbj/qCAxtZI03VfelpmZIaPmqvtl6KnWd0hX/OXh5jwklss9gHLx0NaeHVKSh/hlplhTGpKUgFmqElqsRnq0VT/IA2qXKCQhBXLCEpDJSkEBSQOQD55nm8dHXFY3xj71hblZGoDSNjZWQ6gRJKaQa13XhSVSssPjSDWlQobq3GZpsxSLQFOstVAxgfmp4fIqKYZ+LOIP5aWqUpwXIlnNwXIHUZNyiJdF2+CSDmoiYvy8QHTFh9IoimO1j/AKVDccwSNMn3XM/BtonzrStGFaiVEsyicRORowL70j6BcC9gZkWCUFj+ooGYt61VXDuwFOZeMODuz2QJyZgQkKcKPhFTvn+8dLFIVLHSHud1JuQwRs2C35mDoxXlcLcXXKJCylaUqlHwqCkhQFaEuCORiPZ+EpR8SAU7YFlI9BT2i2u1/hcYyk5LChlsHineGLyMsqkr+JHw1zSMm+9RvC3H+J0ng8LCdXxu1IHN4KMy7BaEihTOT+VYwq9UivmC8CrTZDXwFCsxLJq//wAZyPTfWLBui3AsN2jO/bgExJZ96HIwwdFrFLPJY4MthSHUo4tU0GH+3qKud9oZ74tiVJLsYrLAtMxSVfGkkCnxDnX4ucHrvvILFS2+eLoX18oEewtBAXocRwoyuL0JROxKqgKI6AEho5/4clS8CtTUqP1izeJZKO9Wl6EaHeK+/wDoy0SyMMtS0qNQkEv6Rf0qSODuajuVuuhz6wW+QmfstsKxZsRHgXOnYSdgQKcsTwjfxA3esTLPNApWWeR+Iez+kdb2TggJsUlAR3ZQgOmhKVZlzqSSSesUZ/EZc2GxhZ/DNT+nyhPg5WvNc4eSUZODIJSPX9l4uyggtlnCjZrI4GweH6ZKIlqVv4R9TC8ixN846MTS5TdJctctuW0I3EFnGLnr1ixb5Wwc0G2vtCDemYO9eZqR9IFkcr4zW6R7xl4YKyLABLSD+J5h/wBWX/aBEy8uHylKSoPMVUJOSQcsQ1U2hLD1adbCSUvhfCnIABwMNAGAyen0isPDhQRescKIiQwpAG9HBdJwkagkQ4/y4KfusK142bMZgV94gDRV7HFBjay6Vu5DpWDV3+hEbrTd6T4kkt4SQQKULVfTJyBEUyjiw5BVPP8AD7/OJN0LqQf8SPP6NSCCaFhGRvLTysQMRmPoiWDzLkBv9Lwl3nmpPOkPNuQEpCQKl1q86JHQJD/6oRL5leM7U/SDMc/JEF1utM38OshX/FJDByCokcsJeOyL0lA2tJQ4PxKGhrT5GOYP4W5AF5pVoJaz6jD9THXlnlpNrxDQDF6kt7xiP1NJqyW/+n+Sn2Awu+QUjj7tBKEhCgQ6Wc5eVIr+0318KFVFVFjkBl82hp7XbcmctCZQFA6iSyRsSfWkc79r0idZ5coypyioTAuYoPlRgQMTpScxq+UKsLCbkaWE0T7TTK0U0EpttPaCiTbJRA71SFKmTUpWl0hQCRhLMVNiJQWzTWsdJcJ8Vyp4SuSpwo4VpVRaSKsoaHZnBcMTHD92cET8ap1nlqtEqacTpOOZLUqqkTRVVC7KZlJYu7w1XPYbdKxd2i0hasKcKZc8PVhkNMvONhJ0jGdEGskAcNjf+VVJgxStBBoq+e3i/Vqn2WTLKTjmATPDiIdQAAIcJ1c9IbLlngrP9vhT0AH1eEHsv4BnSpcuZamQpOJSEFjMBUpRxTTVlALLIBoSCWKWi0OHbhSpAP5nVXmfseUIJYWAiOI3p5PtZrqTwCGNN15VgcH34XD6fftF1XDxACGJigrkRhNYb5VrK0FIJGIEOMw+ohW6BzZLH5UsPO0jS/hVd2x9rCV2oy0HF3Sw50LFyByoxhC7S5OES7TLyDPzSQ4fk1G/tEHO1LsYTIlGdIKyoEmY6n8OquTZnk50qo9k17fz1ltMg1VKxIyJoQVIP/UD6RqMmCMwNlh/27FP8/t5WNqZ4T7wRfIWAx2KXNcgfZ/lFoXeoNl75xzNwDfBljCc0Kw+js/LDT1joPhO9AtmLhnP7xZEbXOC3SaK8vzhQKqBXOkKFs4RxUfu1aKLsf8ALCHfnWLaErUZZEbdIBX/AGCmIMRsY+mYKJXtKn+Key04QvvAtaPjIBSCncOSSzPXnFmdnNkPdAZkCnl/vBK4EY2Gh0hrum4BLUwyNRGQ6ljuLNbeExwnuY+wk+9LYpBIIZ6fvFFfxWTUKk2eRiZSl94W0CUsH8zvvHSnateNns8hS5qgk4TgGa1KAcBI19gNSI+e3atx5Nn2lMzIGWkpD5A/qY+6Livkd3KqvK3MpDMUuPnYq6LynlRDOEigB1G/nEG1y2ESr24iSKCFe8lTptEIUdyaJHMksI6K+VreSuRhL3EdvcKbMRr4f4fxBM1eSR4E7lycXQPTn0ghZOEAlWKYoTFaoH/LHmfi+XWGSRId+lOUJJ8rVs1S1elWt8pKpn395xFvOQxQW3Hyhtt12gKLqA6mIl9XMSgFHjwnEcJBLbkAvBDXaaRDOUsBJ83gDeUtio+UMpHiDdW1EDbdZM+rwSDYtFhySrbm4zGUSpKPET+YA+zx+vKyl4I3ZJdIOodMW3tSJ4UW1uUE/iRQ/wCB+E+RdJPNEIt7S6HfeLHnWSqqgAy1hRNAXHhrp/Uw/YhFtl1zHbAo+VPXLzBgqA0USw2mPsDvwSbdKKiwWDLfrUe4jpC9eID3iwk1McYCcZKwScKkkKFauC8dSdnNlNqSmcDiCwDzB1BrvSFHWcZuoZB4qlqelSUS1Ntksa1hnOJWZf09BSIfEHBQw+IuRFs3P2dFCMQOQxGucJvEdmJUEirn9vrGIGR8rYo9Qid/NDuAZKkJ8FAGFOZMN918XK71iX59BDbwJwQlKFuzEP7fvAa7uAV41rSk4SoseW8WRzB7iXJVJjzBmoWv19W15S1PVlN8vvrDvwaAZaNaAH0hWv24FIRhIqrCnLdYeLM4cuVksBX9aw9xnDwkha48qNarKHgvdQoI2267w1YG2XiyRKChMKkqSwYS1Vp+ZWBAffE3MRCWRrCbRWPhzT2I23XK28e8TIstmmzZgxJSk+EBysmgQAxcqPLJzkDHM/ZRbhI/nJstJlqtsxXdo/JJSVYMqfjUHDuAlnd4au2DjCbaJ0vAVJlSwQBLLvMUSkla0nuyQhicCls5S7lRSNsN0iWjHmwcuztyzoIKY+4dDfO5Tt8zcGDtnd55+iWrrmKkWqZiDomgvq9XBptWGS4ePjKneAkJAyJz9vaFM30TOE0AhCVCuhQHSoDlgUpWuXKLLvThORiGIFBNAR8J56Dyp5wQWuMdxrISu1G1aXBnHgnpqGVqH+dINWu0JeuSqDr+8UpJu2ZZFBaVFctmJS6iB0FRlDZO41RNQ4xKSfxAa6Eau+0K5cpzfi/ZetNpjui04JhSd9M6/TL1hys/EKXAzrFQXEVmeFlRYJISRkx0Xz55OIe7NLAUCos9YoMzXREOV8dhwS5/FNw3MmypU2VLVMISqWQlgQVFJSqp+HfanNuL+K+F1d2gt45P9NY1rUEcsw8fUCVMRMklJqMJEcHdp8gyrVaBKVhWEY0qDFlIU6SxBBzyLgvrB3Qpy9ph9cFdNjYMjDLSoI4yIqlEsVZ8IJ94ir42UScZcOzBhmdIBz7ODk4+UDrzlsUpGZUC/nDuWNu+y41SsBnJ5QCvLiA1A3A/SDcxJCFNmcvSFCzSXUkbrST5FzC/HY2ySvmtFqNe4YnzgTLtpTNJSSGRQgtqId5XDhmK3rSJ/EPZQuVKxkNvv7xc+dt6SUZHE5wJaEhm2mYgrYY0kJURRwclECjvQkZ0iHNk4s43XUnBNwq+GYO7PLFkeoUxj93bEg5gkHyi0H1wvaSte9lpG7hyz/ENwFAcw7/P2gjeMhxEPh+YUzcvhSpXXCHYRY11ogGxSEcRzspexdXNWw5JdupMKlqlaGHa03US5T4ga/3DqM4AWyyxex+6JY6hSRr4smUXL/Cf2mfy1pFnnVlTSySckry9D8xzirL1l1iJc0kkrKSykIMxJGYUlQaGU0TcmAxP4I/4U4x5dBBX1avyd/R8A+IabQs8I9mSp68RFE1rFQfw6dtqrbYwhRHfSv6aw+bZK6Ee7x2J2RWxAlKfNifaON5eFNivMR8FafticNcOFzJP47Wq0T0OpFmkTDKoP+apFFYjmUhVMOuu0XnwB2i2dct6M0J1/cEy/wCTld2ATOBWtWZKluok5VJJ1it+ELAuVjl/hSf1/SGwx2yCxsRstZ+1Zp0+F0bLuIW4lhgCFAg74SFA6UJGT/OD9tsIlDQEZtFQ9k/H87EuWhGIAt3iqSxyKmLn/EHLSLNnXXMWPGtyRpk+n3SIFz4TQKT5fR2SCmUPqlDii+XcYgGqa0A3P6Z+8QbDewEtSlVVNPeFWpcUfoMhkBSA826UieZayoA1LHwrABLEHLYlJDgwZvWzJJAbOmux2iLna6BWaz4/9Oi7DDZduT/YJLvSxiYsqIpVoXeKLJjVLkpLhRxLGXhGadXckDSLJtd3YEUochCxwxdomT1zGqkhA6AV8yT7RoccAANCwshJO6C9pFwpl2YsGAAJA21HmHB5dI0XFxGZtmkqV4ghGFeR8SfCVNWtHh27SLsCpKw1Clh9Ypvs2v0IMyzrUAFqCklTZl0qHmoP1PSG5F232qSNk9S5Bwd5JUQvDiw//jW4rQ0xbEN5wUuW7UTkjCpUteagN9cSaD2gTZj3B8IeWSygG8LZmmYNDTJudC06ZLCkzJK04yl1AH4mI+Nstn09YRzRaD8xYXzCnCxkSZZDP+YnPn5ctIRuIe0aWmaUOpQDEkClQ7VIctsCIcLpvETQD8KvxJOm7HJSdiM+Ucx9vt+TJNvShErEhctJATQlRUqqc3NGY8sopwoYsuQx+K23Wk6VHHK+pF1DaO1GVJsveGa4Ipk5pkOfKOW7xvdc60zJ6w3eOkJIYhJyJG/L3gfxJdU+yiWZ5OKZ/USjE8tDs4AyKnzOQMD0Xyta07xpen9PZjgvj3tdDboY3S1Oq7lJTCrxNZvGjJxnFsru7Akk57RVV9JxTR/kInOdrXDAnC1JIlpbYfKFa7VJFoAUWBJZ91ApHuYc7xQwSP7Yr7iWyUKhQisLIBsV81Wxw40teIh6j9YZ+0njtEyVhwu4fpT94p/hHjEzJbH40BjzG/WIF9X+VvXcQI+DU/UeUziyXRtLR5Qi+EjE/Qxhe80d4vmyvUBX1iFaLWWMSb3LqSpmxS0H/tb6Qc0EbFUk2oM9IaBF0r/qq2Es+pIgrNyOUBbM47w/4h/MxazyrQo1umsqlPOMrfbiWcJLh3KQT7/V4iW+U8YWhbhOlCPf94IAUwSEFt0lJzQl+Tj5GI9yWdP9bCnCRJXqS+W8TrVZ9oj3FMKVzGzMqYP+129oOjJqkayT6oD2edoMy7bUmcmspfgmp3S+Y5jMR9BuxPt0lzciMKkuC9CDHz/mXWhYwkYXzH4SdxsRtkdxqT7J79XZ5y7OVMcX9IksHeqfPMPtzEX5eJHmMs7OH/0LXdKzK+B4XY/CfH01KVImHDJlzVhCiXYY1MDX0ygRf3Fk2YsSLOCe9mhM+eMpYVmlBas0pH+gEPVhCz2d8FTraTJVMUFElQYEhOJ2WqtVA1GVYvmz9ni7rsyJYHesWSshlFZq6mfUuTzjNTdqF+kUXeAt3G8uV13Bw5LkSZctCWSlAHWmZ5nUlyTAi9b6MtRc+FNQdPPb3g7w0smTLMyisIevKP1ouRM6hZta5xkXGySUQHUadwqD4+46CJyZ1AhL4iSAGOpNWAD57w3dm/E8i3IVMlTErSDgOFQUxzqxodhCb/FR2ad3YlrTljQFMCzE0xM/hxAP+8VR/BjZp1knTzOLInISlKSosVJV4VB6ihIDgHxQ5ZiRyYrph/IeFnOs4/ebYF0Nl1HxKjAiniUxCRnpmrYDU/tA/hHhNkhwysyci5qX8yfWHWTcxm1Z8TE0ph2G0HpNxMMm+cV4eUzXueFyueFzTuq+4puF0K3yjj+2qw2uYFJdPjodWXX2r5R3tflyvLNSKZiOMO1O4xKmFSS5BKgXckvr/aXr1h47IaCAgwPasW67zRhDTBkAxKTRtnCoabtvOWQzJAOo1rFNXLbEzUBWEVY1FQWYj1+cTrPeuDLQszkgjauUevkaQWuVO4VqXuhJAwljuNPlCoFJKsc8S0olUExaUkknIS3BOOjkD3gfdXEUuZNly1lUrvSpKHJwLUlIV3aFth7wpOIIKgpQBZ2aFW950y2TVK/5ciU/iV8EpD5n80xWZSCVKUQBRmzcuK2NwLDsfS6d+lf0/wDu7y8o6Ym/i/v6b9UB7RbP3shXezQFJTMnWW2KQUybSiUglSJqQgGVbEIQykJSBOSkKQCQURyfZu2y0JWFAJDR1Dxtx13yUSZbizy3SlBbErMFUyjFSiSWZg9NX4644uASbRNQMgpx0NY6D0CQSBzHCvNePrXq/SJ6h1WHJnMeL/Fmwd7H+QPB5I5X0o41kEJYCmZiqLDdOOemlAcR6CLo4rmUU+sIt6tJQFD4l5/4wryn3sPK44EFva2OVEZZDyhIvy3MOZz6Q2cRrDApyUMUV9fZc06QPDsFMBSeGpDJmqfQIHNzGVoDAwYuuwYZeA5tjPX/AGhWt88nPKPg63FXBRrRaCTSDClYkpA/AO7zz1cdHaAkqldBlE6z/CneqvMmPHK4C1naEbiAs0nDMGjA+/7wdkXhovxJ9xzBiEq7xVi6VJoeefrHjH0rQgqbHi1LRheNnYD8rt0JyJ5UaJVmWwbakSZllxAg6gwxj9qJKVbRIbX0jXcsr+oOeNPqhQiTPSfMeE9Rr5j5RncUj+on/P50+sGtGlER8pfs6PENncwPvy7MdXONJxIXqKuxOz1G1d4NWZGhz0PLnHirPoT0NXixry11hGseWGwuqv4JOMpdoSqVMUE2lCv6hUf+YkMAU7sGBAy2rXrvjdCJuCQKuXPJIZz7sOZG8fKThm85lnnCbLUpCknGFIzSRrsQcik0IjtTsI7fu/mKVaFDGQlOJvAwFGqSknPApquxMZfqeITJ3mf0XRuk54maGHkLphd2ykpSMLsKYlKV/wCRIETuH7llKJdA6jwn1S0Q7PxLIWHxpAzckMx1g1chlqLoWk9FCvvGUcD5T2RztJUi9+D5K0lLrYivjKh6LdJ8xFB8b9gM2ZMeyq8SS5BAA5AVAflT2rb/ABXxR3KJillkoDk6kchuTTWK87P+21Hff1MUtBcpKsLEu4xMokUdnGYgqEShpfHwOV9GJNBPP3Vu9mPB82RZki0YTNzVhcgVoHOfVh+pa8ClnhWvnt1kFLIWFE7EGEe3dpASkqJ5tR4zkz3skBaOeViuqNFFzxRTnftsoRkDQxyn2t2mSJijTkKE9dWixOI+1gYCpzQH79Y5h4vvcz5hUThKiTnGkw2OlOpywcp3U/hq+EoUuroUWY5BWnkcurbwwzAGd+cLly3GBKWWqoU8svciA13XoVpd6p8Kk6uI1j4wGCwgjR3TYbWkhSFpxy1tiRUFwXStCk1lzUHxImJqk7hwQnFvHM9aEy1zDMTLcJKkpSuYAo4VzgklKpuAhKiKFTkBOIwEt96BmqIATbW5zLbaHrCwRUKJve/z9PS2HUP1JPlwtxo2iOMNDabdkDjUfP8ARYJmKUcR0DsMorviTsjtdpnqXLQ6FsQXpk1fSLPJIHwgYjQ6fVodLjvjClKRmBGh6U4xyFw9Kro8Yc836X//2Q==;" parent="1" vertex="1">
          <mxGeometry x="590" y="355" width="220" height="220" as="geometry" />
        </mxCell>
        <mxCell id="ugAIHgSxgHmGyD-dgIst-5" value="" style="shape=image;verticalLabelPosition=bottom;labelBackgroundColor=default;verticalAlign=top;aspect=fixed;imageAspect=0;image=data:image/jpeg,/9j/4AAQSkZJRgABAQAAAQABAAD/2wCEAAMCAgoICAoKCAgICAgICAgICgoICAgICAgICAgKCAgICAgICAgICAgICAgICAoICAgICgoKCAgLDQoIDQgICggBAwQEBgUGCgYGCg8NCg4PDQ4PDw8NDQ0ODw8NDg0NDQ0NDQ0NDQ0NDQ0NDQ0NDQ0NDQ0NDQ0NDQ0NDQ0NDQ0NDf/AABEIAQABAAMBIgACEQEDEQH/xAAdAAAABwEBAQAAAAAAAAAAAAACAwQFBgcIAAEJ/8QARBAAAgECBAQFAQcCBAQDCQEAAQIRAyEABBIxBQYiQQcTUWFxMggUI0KBkaFS8GKxwdEzguHxU2NyFRckQ5KTorKzFv/EABsBAAEFAQEAAAAAAAAAAAAAAAMAAgQFBgEH/8QAMBEAAQQBAwMBBwQCAwAAAAAAAQACAxEEEiExBUFREwYiMmFxkaEUgbHB0fAVI0L/2gAMAwEAAhEDEQA/AH7IcVkTTqAj0J2/v4w7ZXnfSeufnfGWK/Nr0axNNzHp2wo4f4i11aW6hjwpsUrNws+cgsK2FkuY0qCxBntjzi/KdHMKQyqZ9sZ04H4nU3PUTTb2OLI4Nzqwgq4df5wvXLTTgisyQ7YqGeI/2R8vmZNNYb23/u2K94T4BV8q6ox/CU/uJ2nGquGc7q1msffD7FOsLwcThlOezQHbeCjFjX1aqDO57VTWilgBpt/f8YbvEiMnkgoI1MJOLc//AMRTDh1FxilvHrlPMVTNMalF7f33jFd6R1C+6fMSIzSpGlWm/vgo0pwjqo9I6XVlI9Rg+hmRFjiz00LWTc0gojMUowBac4XVDqGCaQsRh9nkri8oYW5fb5wjajhTTqYG/dJDqLbAsqQVI7gSMe6ZMbyQB8nCehVhwVIIBgwZwyiQVwg8pVToRc/2cKqB2m2BgzI/XBtGlvI/nEfV5Qko4ey3Ekk7ehxw9/7OEyIQZHYz+2F+YpgH23GAuNFNKZeceWlzuUrUSAajITSkCVqp1LBO2qNJ9jjMfhvzccjmT5qnyn/BrL30zEifzI1x8Ed5xrNZkEbi4xTPjF4PCozZrLFVdpapSNtTblqZ2ltyh7yQbwNb0TMjDXY0x913H1V30+dtGJ/BUjzChWswZGAZGGzKbgi5sRGFVJNWKF5L5+q5Z1pOddEvpam/5JMEod1IubWPcYvnLZKeqmZiQVPad/nCz8N2MRZ2PBSyYPScjKeVm3ceuEWb5go0NXnVVp6NP1WLTP0CJcjuFBiQcO2WyjFtr4pLxw5pStWSnSYOKOos6mVao0AhT+YLpjVsTMe7On4hypNDrruR2XMWH1HUeEf4jeLnmg0cozCmRD1I0s87qo3VPWYLbWE6qr149wLHocGPHjsDIxstNHE1gpq7AMDx2JSMgYHjsAwkuFq3ReTc4XCrEY8bLmcDKTjxwuBWGc7UbRlSiCJwqy3E6lK6OY9MEKLYPFGVwAgHlDBKmfL3ioRAq4sbgPOIa9OrHtOM9ukYU5DPEGxIxFfjXu3ZSmZLmrWvCud2ECoCR6i+JfkOL0ao3Bn13xkzg3Ptan31rib8J5/V4/K3ziKHyRnfhWMeWHbFW5zT4TZfNKegAnuMUNz59mupRJagSQJtGLR4H4gusD6x84nnCeeqVTpYwfRsTI8ofRGOh6wfxbJVsuYqoRHeMAyfEgxsYxuvmLw5y2bUyikt8Yzt4h/ZeqJL0D7wL4sWva7Y7KG/F7hVpTM4KCwcNVTIZjLEirTYAGJg4Pp8cVxvBxwxHtuq9zCDSeKlK1sP3DeLZeoujOUJO3n0SKdcT3cgaasf4xJ7tiHf+0SN8HLnwcAdG4LjHFqsQ8iUlJNOtWqqwXQaaU6hQhSSK1Om5qENaKlJXIvKXxFqPGELlSCrLNiPqAMFlNpWd9iLSBOEFDiWiGVirAggqSpBHuP9Zw98A5azGcz+XqLQ0UkqLVappNMMdBSqIeVdq6GnqQEBmSTpDWfBAJCRIf3UpjI3g2KKLp1WqHTSV3PpTRnP/wCIJwOvSq0gPOoVqQ2U1KboGv2LKN+2Nfcs5ylk6CKAtHVU81qh6maTEsREsAsDpgdEqsgYcufeB5XPqaOmklbSzKy6G84fSVqOVA6nb6FJJNh9I1WP/Gs01r3Tf0oIu1h+rnjq2M4R/cqud10aRVbANUckU6UmF1QCSWawABJ9LHEk5u5fq5bNrS0lqKOU0u7KygFwV8xW1Eq7TcAlTud8N2Q5sQsmR0I9ZBUzPS7U1GaUdK1CLGRpMaWZSogEMSRxYhY6xvX+7qZi9Pa5wcSsY8Vy5Sq4Y9aOymPVWgx+uL65Q5sD0FzDELoVvN+aajUf+exA9WjFMc6crV8nmGp5pNFSdcghkcP1BlYWIM/IMggEEYeuG53RwnMD+vNUaY/+hqjf/wA1H649CysduTG3uLH27q4nhElDwjedvGSvmyyofJom2lLM4/8AMYQT7qIX2O+K/nHY7FhDCyFulgoKUyNrBTQhYHjsAwdP4Q8dgGB4SSBgeOwDCS4WzWy/p6Y9GTJ7YMFSDbCyjxI+gx4ldLAJmZsL8oOnCfNU5MjAuGv1R7Y67cLvKDVTCd6IwrzGAMcdBKbaIdipscTGlQBywen9QN8RCvVxL/DlzFQMPw4/uMBnHu2iN3K94ZxqpTW56icSThfOysfxLH12xCM5nwrGLmcNFTMEm++Iwg178JzZXNWh+D861KRBR9a+kyf2xY3L/iLSriGIB7g2P7Yx7keaqlE2JI9CcS/h/ONOrF9D+u18MLJYjY4U2LKPlaQ5s8PaGcpkQvV3AGMweKX2ZquXAbKaqhJMgWj/ADxPuXvFyrlmAealP1F7YuflzxEy+cQQyydwYxPgyS0+D+FNa5kv1Xz2z1atljpzNNlvEsDH6Ymvhn4b5vir6cnSBQEa6rnTRpd+poJJ9EUMx3iL42Jz34KZbilNKdQBFFRWLJZioPUqntqUFZvE7HFp8mcNymQp08tRpU6VNF6KdMRbuWMSWJuWZtTE3JOLpjmPFuFH8IRgbdKi+RvBPKcLdfPZcxnChcNVUBAFKBmo0uoAK1WmNZLtLAAgtGLLbw4oZukYFPzLdLLqMydEKSwOg9X0wIUx0pFvZzgGXzVCAE1/lYqNYP8AhaLEx8HYgiRiiPEDlitRSqlNjNToBBZSoMBzqUj8uo9Mfm9TJXkREE7tPhIRBqgXF6lXL1mSq6FJhF06ijKOvWC2iWYABUprAVT1lxpJzHiglKuq+YHraVKIyCqBoqH8RlQF1VGRgS30laZDJBOFXiJxqpUyz61Wkxo1F81WEGsWUSsqvmaajKshGInUSABiA8RztKi2nzCPIzDUPN1MzaA+hirPq0vqIYg6i2pnhpqDANQsO3rsmHZOnjvw+pm8tWZwq16tN/KZcxRZ6jTTUVlWlVcon4zOAQty4gWx83141UpVmZKrag56gxloNmkX/nG0vEHmtRTZ6xRiFqNrbSKj0kEh38pVR2ZiIUIirKgqdDMmF8a7pDLa+xtsrLE3BV8cncxjP5dqGcTzVZw+qSKkgQCG7ESfXeDIthh8TOSRlcgq0S70vvTOS2410gq6ioi2gibSTsMGeDVUNKjcGMaK4PwQFCjoKlNhDKyhlIPYg7gz/GKjK6gcHIofBfCB6jo5a7LCitj3FwePPgsMhpzGWk5SqxUgyfIc3Ck7lGH0kiRdTNi1O422NkMyIxJGbBV014cLC8wPHYBiSn8IeOx2AYSS7A8dgGElwtktU9b4My9YRGClqg7wDjqWUM+wx4oVgkdXqxg7KcT0m6i+EmoHHnl45S5wnHMUB+Uz7YRVTAg48Dkbb4Ny9BsxZBLj+5w4bfRIC0TwrhrVnCqPn2xMuI58UKfk09wLkf3vjsoVyVAixrPvH5f79cRcZszq3JN/1xGdcjvkE87INZe+CAt8PWYyC6RpaWbthjzKFTBxIahryowOEtajG1sKWwXUFsECVJVwrmpqdm6l98Tjw75f+/ZyjToVWo+Y/UVBLKgEsQBaYFibCZOxxV1YRvjaH2ZfDL7hk0qimGzuaXXULf8AyqR6qdFd9JjSzgCdRg2VYe3Ha46lJh5V+ctcpIoVABpUAX3a0ST62/nCrOchUfN1hmD6QoUu/lwDuEk09XUZcLJECSAAGbycyEYnTr0nTP0a4OjURfSDExfuMRzIc3ZpGZc5TpKEpkislUqruqpujSaeomqfrqBVRZJLGJ75WNbRYriNuo7oXNeZrZKs1Rqi/cxSUaYJdaitZkKqS3mBoMnpZVAU62OEfOvGFYSQTClh7liFve29z2Entho5Q8U2zeUFTMrSDK1QHy66ZhG8piofzKaokuBJVVGmdh9IZeH8cWtQq1DU0lFcgSxZgXfSysxA6rQLAAwtheITbi1htPc2gqI5+40C9VnatUoLVotTGtUywNJlYVp8t7hFJLs6lqjadKxrxWnMvP7VqZSl5mYCmo6vWcGgrhyRNbMaPMbrHTrIBZYkRLX40+INHLqlWqjPXrAtTohtGlRbzXKg6VJkFDrWpBspBIztzh4qV84i0200qKLpFOlIU/JJJIB2XYCNyJxqMHpxmaHO4XY4C82eFIvF/nwZgLTWsKhnVV8kn7uNIKpTTUstplm1KzIQykEmy1fjsdjYRRNibpbwrVjAwUFMfC3jTUs0kKzBiAQoJj3IHadz2xtHOcaSnlSfMUMdCwzhNClod5YKFKjU3f6Y74z19l/lmnmkzKEZcVg1PqrZjyn8rc+UihKlUKVYsq16QOpNR+mLW45y0tPL1fx/MrV6gTWyo4QSA6hUph6dAtB1tVZCbBiWZ3x3Voo5ZqPI/K7+lDxq5Ui4xwuhXWtlTUWtlsxQDTOh6fUQgOsIrQQHpuqwWW4JE4xBzhys+SzFShUuabQGH0uh+l19mF/UbGCDjZ/JjPU8wWD5UUKTBhpRwXqVZRheS5ddBBSFWX+kK3+KXhXQ4gh8yab050VFgugmWDrs6G7BJBG4ZdTTV9P6k3AmML/gP4PlVb8huPLpPBWJcCxZvG/s852kx8paeZTcGk6hiCYH4dQo8+ukMBe8XxW+dyTU3KVEZHUwVYFSD6EG+PRYsiKUXG4H6FWbJWv3abSfA8djsSEVAwPAMDwkgtj5LJ6iZFgJwW9eBA2wtynNFmVkAkRhvKfzjxfe91hTXZACTcWOB5fOwYbAWx2XyzV2CKsnD9qspgCOXqaFEk4sDlzgwydJqjwajgQO98LK60MlSBADVyo/fEHbjLu5ZmmTt2GK8udL8Ow/lGNMHzXmYrl2LMZJM4Q1Hvh5q0ARqX9Rhqzqd8HYbNKOd08cDza6gThu5gbUxYbE4IyNSBOB5ipa+O1TrSvakhoXGAqcCC4Ie2+DjcpKWeGHhpU4rnVop00kipXqdkoqRMdtbk6VHqSbhTj6EcK4jRytKAjsqJIFNGdmj4BJZpkdzPtigPsa8HU5Gq6/8TMZg62janTGmmk9yCXYCfzfGNP5bkwspMqojeD+5Mjb5xaxMdp9xWUTDVhe/wDvJVKy0zlKhTSCahCaLmNN31lhMxoiAbkwDH+O8dymcJmmUZJs3Q7AASQswVuRPUN4Pq68Q5BdF1CoHWNQkERAiRPtOM/eIHINSpmxmmzDKtKjVRKYpqug1ApLJVUg/Uga8n6gCJs0veDpm4+is4nEmnKKeKPib9xzC06GSIo1mCU64qAMKrBSC9EEKqI5KvUVX6FuZsWLjvOyUMtXq9KK9JKxdhqQLIcOwEM2lpYBbknvbDf4n86CnUWnRC1MycvlnBImnSStqUiq0k+aNC6qKifNqeXqYDW2X/tEeJ6rl04bl3LFXd68OWVF8w1KWWDydRplpbfRpprOoVAp8LDdLIBX1PyUp9SEADhU/wCJnOhz+cqVoIplmWmp/LT1syj0F2PSCQohQSADiKgY9x2PR2tDQGjhTmihS7Cjh+RNRwo74T4sPwu5f1NrIsP+uI+TMIYy5BlfoaSre8LuWqeVQNpBqMO/p7bxviZZujRrVB94ollMAOjFKlIwVJDAggMGggETAnVpWGzh2whR/n/H/TD3VGkLFljfsZ3JsfQxJ7Y8qmnf6pkvdZT9XJG/U0oylWXKI7ipUzH3mrTdpkGhSRWUKTCzHmFiTYg7zMufL/FTXBmk1OY06/zobdwNJIAte+xJkBnOZUL2Mqwjs0wCrexBNu8YL4XTVFLKrz/5rM8DeKcnpGxt/h9MRZNMjS9w97ymTZAmJc/nsnvN5cBQRaGYerHSRpHbcX/XEZ5h5Xy2cA+9ZdaxC/8AEllqqJsPMUgkAbBtQk7Xw+njIVWlAxqHTDGyNp6Soje9/wBsR1HqLdoAJLbgmbb+gn83t2nDMV0kZtpoqK17mm2lUF4teDZyJNXLl6mVJAIeDUok3AqaQAVJMCoFEkEEAxqrJTjZNLNllfzVDU3BplWFnB3EGQRG+/bFU82/Z8WpNTIVAGOo/d6pi94FGqekzEBKmk2+s49C6d1gOHp5Bp3nsfr81pMPqAcNMh3VGNj3HZmiyMVdSrKSpBEEMDBBBuCD647GtV4Friovtg3J5z8pG+2CBXkXw6ct8sNmKg02VTJbtGPGyQBZWEAtJMvQZ3CASSY/64sHMKmRpAJDVnH7YJpcTo0awRRqfbV2nEa41my9VixkzH/bEF1yECqH8pwIAsIurULiWMk4KpnTgFM441wMHQibS3hub8u7XBtGDs3QDCV2P8YbVWQfbBmUzhRh6TcYZp7oaKzC6TGPJnBufkucFBsFAsWkvMxEW3m+CstkjWqU6SDU9Z0pqPVnYKv8m+B16dsTj7OfDRV41ltQDeUKtUD1dEIQ/wDK7K36YPE23I7BZW2fD/gVLhWUpZakoJpIATYa6kandtzLsS2xA2FgMOeR8Rc21NtSZamxLaAtVqqFR9JdjTpGYmVUEdtdrv3BeWw5lwCxMydv7H+2JNleSaZU9dP0IABjF01khHumlcRteBQVUcw+NjUGy1KuSauaJpjywzUtYAJBJEqpLWsbA2hSRXfNHjxk65r5UMUzCFqLBqdRE1Ho6Gen5ZJI6ZMMSImcXxx3kAiWRlJHpB/z+MZw8ReUECVwKCpVzDpUeoInUDCsOwqIpJViPrg3g4jP1An1d/COCQKKy3488Sq5PI5k05FVKlMLUb6vJdinnUwHs2sHQxAiQ4ktIxQ7zcySdyTJONVfap50jL/d+nzK9cggRK5ag0INyYZwInTGhwBEE5SxtekMqHV5Kscf4bR2Ox2OxcqWF6qzi/fC/IxTEjcYovhdHVUUepxprkTJBaaA7wD/AH/f7YzPXJNMQCp+oOplKY8LytxaLj9RN8KnqGbb2EAG49CDuPYzgNIwLi8jsLgb/p8ftgQM2LRJInePSe5BO4x5w52orKkpPXy4Daj7GAfpNvmfaNseZZtRPwSR3j2Pr+m04U08vEAiRftcehHoP9Jx5ll9Ymf39QcNLhWyGV4W6LDeZ7XG1/iN8NlUGwgm9u4J9JE2mf4w7fdwRpDBXLTBJCEGBpmbRuZtffCTNpoI0AExv9Qad4jaf13w5hTkgzOTOk2AUMIggxqBPYm1hcbHHvDrg6VB09QLbSY7AfV6frgdddoEWBB9DvcfNvSwwJJ0sZiGXtFuq9u3vgznGkrUA8QvCOnxCoatFxQzb/8AEDgmhVf+osJem5/MdDqx6jpOomiua+SMxkn05mi1OZ0t9VN47pUWUcbfST7xjWFFb9pIvBifg+o7g+2FGay61aVWjWpLVpOt0aYDheht5VtR+pSD740mF1uSGmyDU0fcK5g6i5lNfuPyu4Ryc1QTUPlqO7GMOHFuYhRTysvYd2Hf1viPZ/itSsrFmMTAHbBfCvfGb0F3vP8AsoJO2yMppDBie+HnjVEBwRs4n5wy5h5GHLMOTRpyfUftjh5CGEkIvjxiI2x7Rr7jecCRPXDkwoP3m0DtjqtWQIAxyrjyob7Y4E1KK+XlVY2mxwUHwpylSRoYx/TPrgryCpvjljukkmbe2NUfY95ESlln4hVSatbUlLuUooeoj0NR17dkXGWs3TLkKgLM5CqBcliQoAG5JJAAGN+eDHI9XJ8Ny9CsQtSnT64g6SxLEd7qDpkWJnFjjDuFMxxupDxDnGvoq/d8q71KcBVqOKSVTv0vDCACbkbiPfCvJcfqBV1ZfTqVC+ioCFciXESCQpsCJm/6zThHK1ErqeoCSDuD/fb0wLO8r5fSAHKyItPYepWB+49sWBxXvGon+FbjUqK4p49tk8pVr8QyeYy9OnX8keWTmDpP01GspVTfebR6wK+5n8VKXEMvWq0ahNKi1PWjrpL31htWqQpQVNJaNLrMwL3VzjyROWq06NcOrKVOvr7XkNq1Eie4/SMUH4oVlp5JMuctSSilCsrrQI0mktF+tiyioXqeZqOp6rITCtFVsADTw7n8J7jt81j77RXCkbJF6hXzaTI1JlurU6hVQgJEsGAd5/8AKm04zJi5ftB1q9TyHdiaApqmmCvlVV1DS0iSxUEjVcDUJtJpfG96czTAN7VjjimI7HY7HYsVKTny0k1k+cae5UpQi7flgRP6zbpxl7gDRWS/cY1Vynl5pg7jQIPae0evx/tjG+0GwaVRdT4ClVA2MHtBG4Mx+3scDFAEerD3kQZ3iDIgbY6jTZYkQIn2+J/v9MKPu8CTphrfVDQDvF49Lj1x5651FZlJ/MsNvQgfxH+2Apl9JOqNo3B1d5gbR7xg6jSAvJMzNhI9wf2M9wceNcR3Dd59o23iMDJrZNKT1V+qCDFrbn1PrH6YS1gQmkMdpg7htzbaItbCukNMGR3a+9u37iZjf0G6Vqf6D1OxB3M+huAP8+0gbJyRDMSstYjUAVtI3G3e99u2Dsjs5AP0CCTI+oW9e/vgpUA7T/uO/vIwo4VTBZhqUaqRiZEnUGjYgbdzHxgzuEkidrMIA2MgDsbj+Z/QYNpk6SJBkSPix9e3V+2PUpQ1xHS2/wBO3f298ImaV2kg+osp3j1g7fOHjddCRCtFMxtOB5Br46jSBQhJmdjgaCP0wcnkI6Wpl1ZwpFiQN8LuYq6hgi2WmAv64HwPISWqkwiDv3OGjN1JYkiZPfABu6lwoJtg95gR6Y8FMFZJiO2FirrWwC6Rf398OJQ0XUogiB9X+eB0K+kaYBPcn/IY9pRv7Y6B63wO1xJGkm+4wsOZDAht+2C6mUO8i999sF10H5bkYXK5wrF+zfy2mY4xS8z6cur5i/dqcBP2dw3yoxuEZiCIBPwP8/bGM/si8DqVuKu6/wDDpZZ/Mn/zGUU1+SylvhDjc/B+GUxAZhPYbf5Yt4muLQBsrPHG1qMUeP50uB5NBU01JYu5bUGhAAFEKVuzG4YQFb6iiynHs+tJjmUoeYXhRl3qOop9MsTUCHXdzpiLCJnFuZTgNB1loBuQIn4+f4w18f5OQECVAYNEOQe1gJFjiS7GkLD735U+nLNfMHilVpVMxTPD81WSkA3mUtbCpIGrQvllNQDHp1GYO04rPmDmWhncrXc1fLBrU8uy5hfJrB4Wp5RR2HVoVI0DS4Mgm+NFeI3h9+BWQ1GFKojq48xg2mpOqHJLKRIKFfp7DGb/ABUy6HK0cmy06tDLHXTFVadSqtWbFaobWpAESF1Gw2EYHE30xpeul1CnLD/j5zctSoKCGdDmrVIiPMYdKSNzSVih/wCmKjxYXjXyL9zzRNMHyK3UjdRAb86kuWYHVLDUxMEXN8V9px6FiBohbo4VxCBoFIWOx2OxN4R0p4Y0VF+ca25BqE0k9IBNgd/mY/jGSeGj8RfkY1lyJR0onSdgP7Hf+MYz2iPutVF1PgKeUCTuTYesCPS2C83RiwjSYNx6gTcEbTFvTB+WURaImIJPf1m242nBmajQpIUkEr03EH6dWnY3OPM+Cs2RYSF/YReDeY9x7H0wDUCvT1Q0n2kWPf0x7UbYMJGoQFtB/qHftsf43wA5ULImDIkg6gfY3EexBPfBK8piLqMGU7ag0aj/AEmTe0E23IO+CVUlQrEwNRFrewJta9je9u4g+igmJM7iQDJHb0v6EHCStUBPcgzbb9Z3ib22wZiSRhYsRMht53ibAbQY/wA/XBnCxLsSAAKbGYO5iJ3O5G+BVHie+orNo7m3ybExvgzIUuio4tLBNPcAXbc3jpEYOTsnBI0EkqwvHSZ7+/cgiQB2JGCnpaYI22YdgYs1wQR/qIwbUp6SCATBkgd/1gkQPT4wOu0wRABk7WE/VeDse2Hgrtpnp5Q05mxnHrnc4LqOWBMyd/jAfNLCMSOeUdPGWr//AAx9S8YR0k/qwu4jm9FJET01E++G+nn2be4GBNBNkJpSkAERtecDoCJ+MEGjYGd8Lsiy6SHHTNiN5wnbBMRa4KdwxOnfBtbSJg/xgnINcggSRbHOyGj2pQB/P+2Cag9LYMVjHxgvMIYsJn0xwDdJab+xmAmVzjrHmVMzTQnb8NKfT/Lv+sY0BT4xocAqWYzsJj59J/vbGdvse5XTQzhadPmUh7aghLWAkwCs/ONdcD5ZLwfpAINgP2uDY4uIo3SABquIQS0Uo3X59qg1AMpUbQoKXAFZipIVSbLcaZbYz2F4VzJ40MlXLUvuGYd6rVDUInTl6dIgPVkIWadahRoUHVdkxeychU0kiq5LTZnd4n01sYj2j/KIhx7l6oPpZYtvM73ERa0wb37YPLjSsG+6nCwqF439qTLtk2zLZbOplVrPl3d6AKq6hT1aXYKCXVRqIJJgCRGIT4p8I82n5rJNI6WWqt1aQT0xIIIEalJEx+tpeI/BalLJVVVFqvVSr5irooedKRpLENuo0CSSAFBPfGaOYudsyn3ajQJp5TL5WsrZRmNSl5AqmgHWqylzW8wM4pkQwsWGgY76bH7AkFcOl3Kzt42OlHI1kJLCrmqflK11plVLvUpNvETTa3cepxnhcWn478wK70qCNrNAM1QhpHmPpBHe4CSb7tFiDiqcbnp7C2EauVbQAhgRuOwDARixUlOvLVHVXQf4hjWvJ1lAPaCLf3H84o3wBydDM5g5asyUq1Qh8tVc6VFYf/KYmwFUbT+Ye+NAcOby6rUayGjXpNodGgSLQ69irWIItFxuZwvtE5xIFcKj6kx1AjhSFjMAGPUdj3n9Bgmu+lWDMqBig1A7Nq3YCSABc9xOPQk/UWEXG4N+4md9sIeI5fUrCQS17gmDeDYSCD3g27bTg2gXus40C90srUdDAAqwYKQykw43BEqCIsYKqfUDBPnzIHYSZ29LfvY46ogEQVhVVbaiRpEGJUH3mO3tjlrkA7mQAN53BnTuBbv3jHaQ3cpPRqbyQSokEWBBIBBH+ov274LrZgekkDsY+ezepuYie+2A52pf2AvsLnf5mfkbWgSChkXrOlKkrtUdgoABM3Am1ovvFo33wUBdaLRlHhoanreoFBYqqAF6rAfmjpXTJiS07wpjC6okLp0mAoA6rmxLGYFyZ+bC1sO2eydJWC0yT5Q0nUpg6e4MyTNyemcNnEACBq2IJ9ifUH4/zwEP1Fd4SCrTESVafZgAI9RBufS2Cq9M3AsN7xGoi9xG9/7GDMwwH5trbdxYD2j9cBzo291B3ntaO+1z7xtiQN02kwumgn3thF5xlfkYV5lZQEdrHCMURIJNpxPAUnhPXHKgNTaIUbfGEVOhbeJw48dpqXlRYqO+G5jNgMBaaCY7lLslT1jSNhc+wwoqNsBsMeO3ljSDc3Y+pwVqHe2BnymFCVQdhgNLKmSZFtvnB1LJGpdCNI3vtg00CSFQEtIERJZjb9ccJATatJHqM1gJPqMHZQtSbUL72OxxNf8A3V5yiRqy7gusqIuR6xh44R4LZx0dhlnJ0OFBEdREA39O1sD9RvlSWYsruGn7LTv2fuUlyfC6PT+JmB95qEj89YagP+VNKj47Ymi8/wBQVjTWjUZRS1+aHprTLzHlRq8zVF9WjT74bfDvMCpkqCixp0KVN1P1I6IFdT7qwIPuDie5PkYVFuisDc6v9v3xpGiR9CNWcbSNgolxrnZkpmq5akiIztuxAC6m+lS1hJsL+h2xXXFvFZaGT+8+ZmKyVXVaSapZndtCohZQwBILNrnSA39IXGgsz4eSn00yt5WBBnfcXnvbEW5h5bpU00sKQUXCwIBW4KqABIMEWw1+HON3HZSBfdZmbxbp8Ry1cLmAtfKpSOYpaQVR6wlAHfRrCEFWCkSRuI0nLv2hucamXylUUwy1nZKbOo0mjSiQmuSdRDqTtDMLyFxsPxSq5YU6qoTXU0yZFHQWJADSHgHTMbAb+uMq80ZujmRUoeUTRJKMCYIRyVciAQPLNPp0mBPrcyIXsErbF1SRLdQKw8TgGD84qhm0zAdwJ/pB6bze3sMF49ECveV2Ox2AY6uoyhXKkMpIYEEEWII2IONgeGPiJT5gy6ZfMEJxjLIRRqiFOZpi8MRGpgd1uQeoCGcDH2FvA+OVctVStl6jUq1JgyOhKsrDuCP298QMzEGRHpPPYprmgijwtmZLPuCadddLodLMd9SwoDSPpJIGqfScODOCRNwSPWCJNxsYt2/jCbkbxEpcfy/mKUocTogebTECm5jSHAvNF59zSPSenRpcRlySV0slZDem5JiNhTkgR6Le2xPfyXLhMEhY4UVk8vFLHWOEirIJHYi+2oXNyDvEXv6fEkipBmYYyJmx9xtFpnf9MHaHJhVIjUsaAPWQSQBsbzMbWgYVDlk6S9R9aghQKRuGaQA2oalMK9yhBtGqQViAgcqqAtMeZ4hdT9RJ+dRkwYYSZMTYfrM4d+Xar0CanmaKwkIUJBWSCSxkEEAWXcTf0wop8JpqAaQIJEEu2qoh9AwCgKdxCjuDMYOqKSzAxDHWpM/Mb2EdvUDCc4VQRAS3he56tqAfYkw4H/iD807DUDOx/wAsIPM6T7zubSoIiNhO+FORQHWCbsOmIBLrJMjeCuoT6kYQB97gGAw3EtPct7E99wMMaE0omuwKi0HaYsY779Jg6bb7yMeVa1vouFFwbadI7f6zH8YNqLCiTIbUTBBGoSI1D2gwNp98JC4uZAKC0H6gPSe4kWv/AAcSFxJOMcNNI2+k4aszkbArJBO3pizquUXMUdS3MdQ/pPr/AH6YhnE8gaXSJB3n5w6KexXdT5Gad+yDxswyzA6F/wAsDyOS0IahN2so7/OFOa4KanluTbSJHeBhDmsw1R9KKYAgDthwcKoFR3WCuJEQd5wDL5ZmMDbuewwoHCQt6jD4G+FSuSsAAD2xwu8IJR1TLKqhVO1yw7nCrlriRy2Yp1lAbyageDsdJwziphZRQn3BwE8brgdRsLfPIvMNPiOWGYgM39PdD6YlNLjKIACyq0fT+Yfp/tihPsk8GrUVqu+oUqhAUGyn1Kj9r4snnHJeTnxW8vWCqnVqIWmNiSL9sVFAOsL0nHnd+nbIRzz/AJUy4NwxKU1VEecfMI9GO/6+uHleZoEl9I9ZjFXZ3mSo9WktJlak9VtUCwQqSCpn6gwW2HLM8OV00VYcTPt7W3kDGwgyyYwWKgnbpeVIOOeLFOk9KmzVXNd9CmmrMgaJ6iAQk7CTf9DiDc58/U6SVKtRSPLBJLdlAktqY6Qo9TH64esvlrBadN1WYH4ZWLxeRMHsdsR0+DVd801avmS+VqZbyKmVakDTYncyTsRI0srTqN4tg3/fOQ3sgNI/9Kks74vPnr06FKjla1FHWrWYa2aoxFNURZsUAYkkTqUSpR8ZX+1Bk87lRFBQmVBPmmmPxadVzDSYmnSYEaSkag0MZIGN9c18sZLJqKeVpU0zNLL+VTLEEUssWAbSANKiQp21MVALEC2YPFTPea8KNbKpUMQ2h0MEJVkHUdR6GuANI7MTaQluPIHAAp3qta6wF8+4wPEr8TOGpSzTLTUIYBdVsqsbkAdp309v1xFMbuN+tocFdsNi0DA8djsETl2Ox2Owl1O3KfNNXJV1rUGK1EM+zDurDup7jG5/DvxAocVy9KpKpU+gzBCOu9KpNyoJGliD9akkTbAWLS+zzzd93zoosYpZoaD/AIaigtTce8ynw/xGX6701uVCZG/G3cHyO4UTIj1MK2NmqkErXChhMaFQEqN5NgfcSDa0kkhgepAawJsIsOkzIiVki3r/ADhdS42jL5eYIUW8up3X+n/1J2F5G2w6WzjOTNA6XAYzqV76b+hFjEeljNiLY8qZtsVkZW0Suq5lQSAxg2HTOuYvBYxfb6j33sCMxnJAKrFoNxJg7TA3kWjft3wlJEmwiZJj/DMjpEExYx+hjCMQqiG1STdvgWHuN7HfEoRhRylNGp1040hgymewBMwdyPcED4wbUUBjo+mSL3ME2kmAABFyLd94wVRpMzaUI1AggbHedMWW0yO8dhjxmLFtKlgDfSJ+ZjsbwD/GHUmoCmLNdSYIB3juCDAPfvPuDcuoo2jUNPSex+e5INiBJmL4NrUmuNDRcadLAkTuN7i379pwSMk+kzTbSJYETvYQTtfvbt2w8FJMvhP4mLVQOpAgaaid5O5i1ji3G4NTrQ8aqZ/cf9MYE5L5rbKVw4nTs69mXv8At2xsvw253XoIbVRqgFT2H/bFp1vpZxX+pF8JWrkiDDVbKRcy5qnQVW06QB0qRv7/ABiF0+PlwbBJ/ptiV+K+VJKvuGEW2H/fEEyaxiigostUWS73yhVqZ+cTflTwtzmcA8igxQwNRsv7+mI5lKQJxqn7M3Nrz92MMgBYHuoHb3+cMnlcxvuouDAyeUMkOxUQy32R6q0watYCofyqtgfSZ/0w68ufZezHmRVZUpgi4uSP9Maf4rnVop5lU6VU7/Pb5wm5l5+pUadMkMTWICDuZ7/ziv8AUe8blbJ3R8VhF9vmkXBskmXSnRUgaB/l/viP808xkV2p+V94V6YGkGLd49e2C2qtUz8IGMATOw3vOEPGq9OlXQPUJem4LQtlUsD7Y40KTNIdOkbAGk2cbFcZOXoNlRr0zRH4qA7VIvBX+cWFyjy9pVTVbU0CSbSY3jtNrXw/cVYNSJVdepNQ9D7friuV4jXVR5xVT3CE9PoJ72tjQ9MeBqsXwqjOh0aTdhXGOO0qYiNR9BfEF5p5nddRqVFSmZICj6R7mb+9hGIxQ5iInRt3JNyfnDRQ4JUrvVNFYrVVtrkoXAbQSI6RfqMXt6Yu3Zj3HQ0fZU+x5Ud49xrL01arVPSsMXqghf6RpU7yxsIa5sJxQHO+QrZsf8OpkqD6/qgVqlILUBLkqTSQny30g03UFrKAGbYPE/AXJh6OazFXMGpl382PMCrr06fxAAOlR+RNKTfSSTinvFTjnD8xl6dbK1qmbau4pURQKk1GNQUGAUtTQ6C8uNwgYwYOJTI3sbrfVp1N7L5MccyTUq1RKhJenUdGJMnUrEGTvMj1wixtLxw+y3UzKVK9KktHMUWK1KjMvlVwFBDNp1FbMAKjKt7MIKsMcca4RUy9VqVZGp1EMMrWI/0IIuCCQQQQSCMbfFyWztFbHuFdRSh4ocpJjsdgGJyOh47HYBhJL0YU8MzxpVEdd6bo4+VYEf5YIwCMcIsUuHilthUSsqkvpDqrLYksJ6exHUlxETtPfD5yvzap/ArMGAPQxjUvzJ2PrcT374rrw0zYfI0nLEfggGDJPluKdu4/4Zbb+ogm4w8VUinPlmSSFLK3SJOphA1QJiG1AaidwMeP5OMNb4z2JWRlGl5Up49lSrxpC3JVgSdU23JNyf6YwkFQndjIEdRMlj2M2me8jcHDxwuslaklKozHMBFcEjTAZQQs/mlSOw33MXQ5jgRQdTIgY/SwabbfSCRMmPWRiuaaOk8qC9tFJcvxWCxZA1QgaW+kf4tUCGOwkkX3JEgt1WoSzTY3bsFNuwWIMREbxhSciblWBQXhWBJBsRokNcbkLHvhPTuAfSY2j42E7xJBiwjBgB2Q0dSeV9ZKj6rwAfYeotMH9MA8xkmA3UDa8RNxt3F/2+cLMzanT031SSIsCSRMC5MjeBaLnCL7qRYkKRcAnV9YvtO0bG/84Ta7rqxWcWn4Jc6mm/3d26KhmnOy1PT2DD+Y9cVZgdGsVIKkgqQQRuCNjj2HKx25EZjd3W9ewPFFfQjg7/f6Ggkeah033JGxw4cnfZ5zWZr6D+GtyXZSAAMVP4Hc+6/IrT1MVWoO3mIR299x84+gzc0kNlkRYFddRI7LAOPDc1smHK6NR8Tp0WQ8mTkKvan2OaYCFcy9vrkC4tt6fzGJVynyPlOG51PIZ2Zk0G4ZR8ntOLGTLOraSWdHkGTOn/piM8rcmNlK9Zm0vRqHWpJ6l39ZvirdI54olX//AB0cTmmNg55U34/y0uYUCq5CLfSIuRtPxuMEZnI0CED6WNLqWe3acM/NnCMxXoIMuwhmGoTEqffDJzpVOVo0qdvNC9R/wncT/e3vgjQizyBhc4t28qVvzpl6TRqX5A7+mIpxjlIV2rVlzSMCC2kLMDsDB/0xV/FWbVZXKxqJINv++Hzh/HvuyI4cs9VCHpwRbYGfWcHLa7qhdnep7sjdgpBmOKGnQQtnVCKAop0z1usw0k3Bubxhl8XaJTL0quWeo1NQlUtrnWgYF6d9yVJ2uCMP3hjysuZoVjWQFG6U1LLA3lgf229N8P1fw3oUMnUpu7OhF2ZrAmwOnYXPbfBYZDE7UjxwvmjuvdI+yRcscB1gEXBAa/YdgfQ4sLLcZSgmqmq+ZF/Yd8VVwHmpqCeU6xVQDUVFnXYVB2AO5vvgB5kerJXpImxMyAbH4YCcbV0zYmh8fdZpw0mil3PHM65klaT1KRaRYLpI+GDIw+e04g1fl/MZpKIy3lJSZlFSrTQKxpt+agdDgNu2oaTeQRE4lfDsmubdKdg+sbbhgb3tA9b3xY3iNwHyaVEZQXVSjmmEJNNxDEEiQGIUStxuCCFIBDqmBkJ2BQm3RtUb4jEUsocvkKKeWiM5bNVCFq1gbiq7eY5vDOCJfTUUlNxkrx88Kk4jR8wBUzSAaHTqV1CLNNyL6NeoI2kbE7EjGluaM01ImlRBf+oakVVC/UOoqQCLRfStMDbeseYlqVR0gyeklHll6QvSuk31NpJBIMXtBww574pA9mxCZ6zmkEL5yZ3ItSdkqKVdCVYHcEGCMFY0546+GDV0epTpIalM6gwBFR0AOpXUKNRWFCzMeonGZ81k2psVdSrDcEQR3x6LhZrMqPW3nuFocecStvuiMDx2OxYqUux2Ox2EurQ3gXxYnIwraTQrvtYqKqqywZi7BxcbBr4sHiGVatWQsAVEPpk9FtYFh0SBtcQN7Ypv7OOah8yCYQpSb8s6xUhY1W+lnm4t+2LzfMWJRyAVKkCB9GqoADBgzpgEiYG+y+adWb6eS+u+/wB1l8ptSlGU+JM+aIuxFNVpsBMaEUjaZFio9yfQw95/8ZfMBiqvTUEbj3E/3OIh54SvRqlXFIUDI1fisnm1VYghSt9QhiAIteMS3IZwFtdINoJ3cCWZogGABdGEgbRM3tn52aSHN8KA8bJjNX3v9UQd7GbTaY9PnBGbzJB09DQJJIg/4pZSGvYbm497yDiHBG1aqKF6bKSNILFYsVIBsAfTDDUyjKRZk1Axq6QGi9mElB3HV29b9jIcFGXjcTkGFNzPSSSBsohpI77n9rY8r1CT9J+n+oQViJB9Zn4Ix7R4e7bKJA1apVUgH8zSEI2NtiIjtj2spEgAAExJJaTMzaRe9vi5jDqHZJYqwPHYBj2hb/hXb9nbMEllm33igR7aiQf4GPpxwTn5fuailSarmsuunTHZdyTG0CZ9sfNX7LvCi9UdtWapCfQIpf8AjH0q8KOIZatlq60HmvD+YJ6u4t7emPHvaav1RSxS71HBpA2/2lHeS/GXM1qrK0DWSQp/LFtI+cSfmzxA82n5bk0mVuqLyPYjbFa8P40tFW/CNOujbsLkTHsb4XUuF1q9L7xoYozNqMbQYkXv8YzJa27URubkFhisknn6K6vBXmMuHpNU1hYKTuAe39+uFXiVzAhU0kalrBh9e6iJGmRucNXITUUQZlZpgotJl7ahYz7nEa8SuXH89a1Lrp1SS7sehCYAPsI/ywPUNVK5kbLHiCxZ/pO/LfEKvmUQWFRXGlqbLEJP1SReP03ws8Q+QaoY1MsBUDsDo/NT9dP+E/xiB8M5rYIFDCafTI3j0n0+MPXL/PtSjXBJaoCpGlnJEE7z/wB8P0m7VTHlQ6fTkv6+Ev8ADDjxy2YalXLXBXQAWVCL7CTO4xKud+fUp000UxWp12OqdoUjWuk31X7xiJ8BelmM1Wq6mytVqbaWZlKBmGnUu2w/zw88G5Aq1B5GaH4SdVN6TAksSSZm/ULm2ESO6sMd8hZoi3G9H/KhnOnFTma4XL0ClVPpgkF6cTp0iJB3gm364ZuA8Zq1ULUtAZWZGH1shVgrSs9Ig6heR6HY3hwDkMZes1UlqzlQis4GqmgEQCN5FpgWtGGzN8t5amtZjQ8l2ZmLJOol7FxEbnddiQD8WWNmhoEbuEyTpT5QXuI1KC8v1/JrlpmoF1sLwwJIME7XF9+3riYZ3xAFYVOlTpQKA4tqIkn5UC5+MVPzbkquWzDlGqVFWCemwDQdWnq3iJMiQZ3GOTiAqZeqZGopsO6hRBmQBDH1/Kb4tmz6BUfwrMTQuiJa5RriuVV3asFKqD0gl6ZamxVGB0+qyzXgT8zGuYM+2XcIkKjILAsWTqIPULTEGbAGfScShE/CUtqQN1DUBoWGhlEgNaYAJ0/viGcVrNmMySsMslTJtTemx1atNgBuoi+8GMVr3b/NQHpEmSWpKzLAPUsBsRFjJCxIGoMDqiI3xkr7RPh2mWrCvR1aKxYVFbdKm43OoBwbA7R7jG6jy+1NJZQgenrQallgI6iCLqR2kT+xFY+L/LdLiWTemxCVfykiCHH5ms2lEYKGlvpLQF7WXSc79NkC+DsU/FmMTx4Xz+Vse4Xce4FUy1Z6NZSlWm2llPY729QRcEWIgiQRhDj18EEWFrgQeEDA8ccdjqSn/glnyudCgwKlOpP/ACoSD+h298aR4YxfWBr+lnBEKQyrF7kD6rkWkqe8DLPhdnNGfoSCQz+XCmCdfSB27n1GNScKyoao4WSWpvC6YJ6dXW89ve0x6YwPX2VMHeQs/wBQb/2A/JIq9OKqg2LUtPWVY/WGnaIJUkkATJsZOJHk88dGglydC6QQQATBIQSd9zAAED1GG7NIVXoLdMK3UAwZkaxAUyQQdgZ0iyxdHlUapVCgaYACyYi+qTaJJJsSP1tOYf7zVVKccKMUwjnStUXiYB7GZ3EXHxiO8T4bDEPKuDAiCGHvcETuLEGdrYfeI0QTTU6pZgNUnS0mARIAgNY3I7yJx7xPI6kJZQalEGdJXqUAwbA7b9sQI3aT9UIhRZcrCkyCBOoAxYn6gAOodQuBYiDAKz6CAIsw3IiZIO3Yjtceu+ALmRIIUFmtLMCLm8gQF/v1x7VzEEFQvvFza0reP0A9d8TEMrFeB47HY9oW+Wjfsikln7qlTUPny2/2xf3gbzJ5HFaZZ9C1ajU2Mx9U6Z9pPfFC/ZDzcDMj0KN+hRhiaU8zNXo38yfiDjyfrTby5AfA/hU88npvD/BW/wDmbwzp5opVqtHlatemPxFN4be1hcYklfgy1cmooKFphR0RAI+PXFceHfjllHoClXrKlRqSIZJidMG5Am+JRzvxqtl8ov3UhlU09bm8Umn8RY9I998YZzHaqK3GNNBRlbW43To3IJGVFOk9w/mHUB1SZj9O3xiO8F4r1BHumvQVeI9CYPYRiPZjxqZ0K0yZZfJBO7N/Xt/c4RcoZIu9FSdV3ZgV3KmT1ydQOJLYyGlxRWzxy7R7hE85crVMtXZnI8itUbQU7zcSo20327YUcvcsLmKVd0qlnoK2lEF3tIP9UW7DFhcQ4Umbo1ErawitqpssaljfTI2gEG22IZyXwgedWXKuHp1VHlv5qU8wjJJ0qhg3Mg2AIjA2yFZnIwWRy/IqBZHOl6gpgHWzBYNuo2i57RjRPN/Gapy8ZF189YkdMlQIYLqMSDH7Yrjl7wxzFPNLmswyJocsVszVFAPYAiTPbDk3GlFUEoyByXsC5I7KEcDT3HSYE4J8fCn9NxXxseHbXx5Tpy5wziHmJVrZtURfqRnDEqd5AsDO15E4m/GeLU1X8QhlY6QN9RPYeuK75p5dy9Sn596bOQDYvMzbSCqo5AjUQRPubxHmHxbHDcrTqZ0ZejlqFRtVauSQVg6KWXRQaj12AsqqTAmAASEyNz3BjBZPZS4pBjEsdx5u1YnEOHMlVq71ETLKhZg5jQq3OokgBFEk6tr7Yydz59sngxzPk5dg3Vpat5TplrSvSyKzsGJILeUE031EfVnX7Un2za/G2bL5TXlOG6p0aorZrSelswVJUIDdaCkqN2LnSVzOy49I6Z7NgM1ZJ3PAHb6qBlPZKSANl9I+O8dXM5X8M6KdZlA8mopDrTY6oNNmFSyqsgjSUIInUcURmPtZ0MkIyeXbM1ApAaq7UqCEwEYUwNdRgpZCToubM+lWxW/gBz9UR2yRdxTr9dIgmaVan1dJDDStRQQwEksE9DiV89+CS5sNVy4Wjm4JKABaOYNjaWC0qpBYkCVZoEJJbA2dOxsXJMeUbB3b4/dZcsjjl0yfsn/g323aZ0/euHVJAbU2VzYUSzAkrTq0nIFh0msZgREnFj8A8aeD8RcGlm6mScdApZwU6I1u0+YagLpU1XDM1UESghVEDDPFuB1cu5SvSqUnH5aiMjfMMAY99sIMXsvs/hzDUwaT5BP9qe7FieNgtHfax8Dsxla4zugPQzAXXUonXTVoCoSblQ4iLaRYA3UYrzkDwf8AvJBr1TSQ9kAZz+p6V+b4lXhB4qZocMzXDQKNXK1plaqTUpGoR10nVlMhkUgPrUMAQLnE85U4OaSD0AxCyMyXCh9C7c3YHvXZQ8jIMA0NWf8AxH8Mq3D6pBV3y7H8OsBKMDfSxFlqC4KkySCRIIJhytjaPHOFDN5arlqhhKq2MTodTqRx/wClgDAIkSMY54zwtqFapSqCHpVGpt/6kYq0eokb4tuk9R/WRnV8Y5/ypuJk+s35hA4fUK1EKzqDqRG8hhEe+NkU8yVqVJb609QVWSrKBBMCOmLQO2Mq+G/ATmM7RQAwKiuxFoVDqN9hMQD6kY1fU4eyAqbvExFiJ/p76lOrYn4uRTe0MjdTG99/6Vf1FwsBIs1QVFJgnzCHUqwIpBS6hWtfuTJUkAQI2X8Ny/UrKZLlSbhtI+IJ6WBvF/fDNxOqqlIAEBgwVo1APqgEzp0yD1X6j6TiQZFlFRAuoatMGzEoVG8ECZ3t8RjJSfDapil3N9YeeYBlTpgzAMyCsdo/SO9sSzk3lk1386rUXL5SnKu5AAqSLLT/AK2axkAwL7mCh5Z5YXMZ5adVxTpPVqAVGRj5jp1mhSqHoFQowhCZ0gmDEYkWbU5ljpAy+SywKqWEU6NIEbx9VVzBKiWdjue1RK4gADnyvSPZb2abmXl5ZqFu/Naq/hvzTfxXg9EU1FU010K/3XNBRSp5ylTDaqdUFYpZ2mJ1KVisBrQatQxXleosyPqEkdWr5MDSCe8C+87YsnmLjZzVEUKI8qjRP4KubvBOt6oG7NJaQLSQO5NcVeEREOlQG5VWhoBi2vTJAsILH5jE2F4cLOx/H1Hi/H2Wf9pczGycmsVo0tGkO4LgOL+Q4B5rlYjwLFg+O/IacO4lVo0p8qzoDfSrTae8RviH8s5VXzNFXujVqasPUFgCP2x7RHM2SMSN4ItTr2tX14BcNbKZV6zDS2YJIBsfLVSA3/MWMewxJ+VswSzHtM/zgPFczMwAB9IAsFUAAADAuEv5Y98eXZcnrSPkI3P9LNZby5SrzcXX4f8Ai5UbJCg1WwYUyNMnQezG5jFANnJ/bF1/Z55Jf7wmYZR93pqXYm4Ji1j+89oxRzRhrd0LCEhkDWHnlWnxrlWllmR0cNpZWCIJADrO5Pr64kXh1nF8yNP1KwDGBpYiSAN4J/bDDWyFCrWJp+Yr1GDFTdTe1psPT9cKspQdWCqFFU+ZTAhVJA2ZJtYFibx84jPrRQXpMMQibYCI5+5uqJ0U3OmWLaBA0z2YXMdx7jB3hByo1fM/eFK+XTIJkS4YgwFE2t+Ygg9tsPeb5Ao5VVqtUMomqpKg02E9cgCxaTEN22xWnib9qXhnDKbeVVXzXgOuUdWqgAQvTT1ohE7VWT4OAxwvm9yFtlVkkB9X1ZT+y0nx9UCRWddMXNQgTHvYWm9sVlzjmctRHn+dRFOLHXTp01uZc1H1Lp2FgSJGMG+LX2/K+bHl5LKrSVQB5uYbzahIEavLny1b1JLg+mM/5zmnPcZzFKjWzNXMPUqKiKzRTQsYkU1hECiSSBYSTjU4fsxORrmcGjv3KmSZ50+6Nl9Kc99pfK5ihWy+U8nOVKekGpLHLpq2IYACrUUAHRTcAmZZJAbEf2uuealetlsrUzDZj7tSeuSQqhHzel1QJTVEAFFKVQdOr8Ugm2Le5a4Pl+FZJnfpyuUSXqaR5mZqa7ae5qVKjaEBsFCyYUnGM+auZWzmZrV6n11qjVCLwoJ6VWdlRYRR2AAxcdCwo/XfLEPcbsCe57/j+VQCZ07y9x24TPgWPQcF49BUjhTLwgB/9pZWP/FH7AHVtHacatzCQxNzB+cZj8DqCnPqWn8Om7qACSzgQot8k/p32xrHk7k/McQqmjlKXmVdBqEalWFWASSxUbkDe84899o3XO0eG/2s11IF0jQ3lFZ+vTqoFr0aWYXsK1JKoH/p1qdO/wCUjFCeK3gbRo0KmZybuAhDNRaGhWaCUezQkjpYMYk6rXvCvkShZWsyEqR6EWInDb5oY+Ww1rUmmyxOpXGkra/UDFvXFL0/Olx37OOm9x8lCgyZInAfhZn8H+NChnUDRorA0WnYFrof/uBR8E40lTqRjN/ij4ZVuFZkJUjS7O1J1MyqtabWdQVLATGoXxc3IHOYzuXDkr5yDTVUbz2cDfS4vPrqHaTo+tRCdjcqI2CNz/H+FZ9QjtokCmmVzI1AsdKgyT2AFyT7AAnGSOZ+Kfe8zWrEhWqVWYADsxMC20CB3nGkuYAXo1aa/VUo1UHyyED+TjLOXkPG0MP/ANsF9n4g1j390unCmuK0x4f8hrlKWmCKoM1Hsrav6RvIBAiCRY3vIsk0g1NHLImqmaZLfm0EAKpWJLLpm9t+04aq6DS4QEiZLGGMz2DGWJB9RcE3wVl8katF0QMzghwq9O8q0i4EkrYE4ymRIZpC957qofIXOJcm3iTKbACQ7RJABuPzMZXT7AAzv/VLOTc9+IyGmrhV3CwUK6VhTYeoMyDBgXJMOqpJJIi5PUoI/KCJNxBjbtJ/LiWcoUSoZmJsDBEewgsOrSNxucCnprEmqX0OJ0kRqdb8SnUOp01HX9Rdaist6dSndkqiCpHuQW3Mc9Vs26061d3oZX6HZNBqFmK03zQQkNV0QpZbSGICljiHtUBYhwAQzNLvAKxbS8H9J9QMOVSgtPSV1P5gR9RMKIZgBMMexEHuD2IGIYYGtr9x8votb1L2kny4W4zGiONrQ2hdkDjUe/2XDihFQOGbpaI76ZA/aTH6Da+HnNcvpd/PRUJLhSJf3VYhWI7jULRiO5yshddKOrBbmZTUCSCoA1AEQCpIuCwJBADpwOoKqmkd2krMAioB6k2kgiw7gyJunN0iwsiBfK//2Q==;" parent="1" vertex="1">
          <mxGeometry x="355" y="70" width="220" height="220" as="geometry" />
        </mxCell>
        <mxCell id="ugAIHgSxgHmGyD-dgIst-6" value="" style="shape=image;verticalLabelPosition=bottom;labelBackgroundColor=default;verticalAlign=top;aspect=fixed;imageAspect=0;image=data:image/jpeg,/9j/4AAQSkZJRgABAQAAAQABAAD/2wCEAAMCAggICgoICAoICgoKCggICAgICAgICAoICAgICAgICAoICAgICggICAgICAoICAgICgoKCAgNDQoIDQgICggBAwQEBgUGCgYGCg8NCw4QEA4QEA8PDQ8NDw4NDQ0NDQ0NDw0NDQ0NDQ8NDQ0NDQ0NDQ0NDQ0NDQ0NDQ0NDQ0NDf/AABEIAQABAAMBIgACEQEDEQH/xAAdAAAABgMBAAAAAAAAAAAAAAADBAUGBwgBAgkA/8QARhAAAgECBAMFBQYEBAQEBwAAAQIDABEEBRIhBjFBBxMiUWEIMnGBkRQjQqGxwVJi0fAzcoLhFZKi8QkWJEMXJURTo7LS/8QAHAEAAQUBAQEAAAAAAAAAAAAABgIDBAUHAQAI/8QAMhEAAQMDAwIFAgUEAwAAAAAAAQACAwQFERIhMSJBBhMyUWEUcSOBkaHRM0Lh8BWxwf/aAAwDAQACEQMRAD8AjiSAAWovJIIl1r4jcCx/aimYcSXGhQPW4/MUTwGdEtasGDXEZKDSACldYvxWIBAPwvzH1oDEJfalrDORsdx15ftQrZHfdSLfSpETtkPVBy8pmtlux1EkXAApFxGGA5CntmWEIIBtsL7ev/am3j4iL+tPaiEppyU2sdg7jUefI/1rfh9ib36bUsZphbQlgbW0i49b0g8OY0sygG9ud/K9qeadTCfZFMFufNDrBwj+e9ibZxZu+ESw7brqJL2JtuP4aa8/siqv/wBV/wDiA/V71NmQZs8SyoqArquWDWa9v+9a4jiIN0cHyI/cXq2huksMYY07BVwrZYuhp4Vbs19mKZPcnib0dWX8wGpkZ92P4+C57vWo5mIh/wDp2f8A6at88ity39b0WlgXbz61KZ4gmYcuAKlxXOUbu3VFpYWU2YEHyYWNOXh7hxJ1JhktMou0b2XUBzKHrbqCAdxVleKeAsNiQVkQX/jWyuPnz+vlUM8RdiU8B14Vi43FvdcAgjz0nn086Iqa8Q1AwTpPyrqGvY/nZNvgHK3GKUMCCLnf4W2qwmBVrA87HlUbcC5LLEyiYHl73W/lf96l/IMKGuNvheh281Akk27KurJNZyiUOYt8POlrBxyObqCflQbhIT4wieTty+pNqVcHj77hrjppIt8rbULOJO4Gyp3MPKP4LKH/ABFVHM3N2pZiwmHHvMT5WFI8GLB+PU1pNIRsN6Tyq9xwnfHiI0HhUfEm9FcViQ24+lNj7eyHblzsaOLmt7bWv604AQm9eUbd6Kyuqjpq8+lG0nB2ovIsfN9/5RypXPCcbykbER3FlF77m360i5tKsalnI0gEn1+XWheM+0DC4VCXdVtyjQgyE9BYEkX9ardxl2xz4l7oAsQ2WPzHmxFtz6Vc0VqlnOSMBXdLRvfuRsl/iXiszuSNl5KvpSFDgNTb29T6UiQ8aR/jjt/la/5EfvSphuJcO22pl9XW4/Leiv6R0Iw0K88ghO3LpQo0g3PME0s4ef5n+Y/pTTwGPj6SQn11af1pxw46PmWjIPUSKP3qrnhf7KJLE7sEtCc2sB9aMYcHnb86Rm4hwy85YvgZB+16LYvtIwqjeZWt+GMMx+pCr+dQhSSu4aVD+mk9lMGJKMt00leaurLIv/MhK0BlsVmqqXCPaTjMECmHksr2LIyq6kg321A29bc6tv2VwYh8P3uOEffOUMUaR6SsRDFmkI2uxIstrgLvzqLX2k0g16wR+6kV0DYWlwKc2XAD5k0qhCOXKhMNk4PWj8GWsfDsQdietDb5AwZKDBl7sBNl8PqJY33O3wGw+tr0nTZapYCwta5Jor2h8TTpIIgRGAdICgNtewLW5D+tM/L8z0yNdmcWbYk6b3+PXn+29PNBczWjak8Myyt1ud8p2ZxhnjjLpZ1VgZABcFfz/s01MBEO97xPxHcEDkenwHSpKwLnu1YAC4sU6C9NLPOHwsqyROF1G+kkA/35UxTygZYriCdkbHU79iE68nw1w5O1yLW2vcD9KI51EF3GxA2tW+Uho9QKtbw2IBt7tB5hhGcXQ+d77AW8zTx2QBL/AFCE0Jcc6yjUfAQC23O/WgczmlDkK1x0PQilnGcONsz25C2k3FqLI1rqLE+XX5U6XqX5uWaAkDFpJ5knraiUay7+I29d/wBaen/Dtv1Nt6KvhAAx8q62o0r0fKjjEYyUsRq2XmbWJpWyXNiCNyL26/35UXGDJDN5k0mZfIOR2N9vjVw5vmNKsw0vGyWO2TiZ0w7IVBU2HiFzv1+NQjw12m4nCn7pzp6xv4kPyPL4irC5jkiY+DQ/MLpP/wDXyqI8T2AzfglQ+hBB/ere1z0scJhmxnPdWMBYG6Xp58N+0VA1hiEZT1K+JfiOR/WpGyjtIwk9u7miJO+kuqt9GINV6m7BcWORiP8AqP8ASiUvYtjxyVT8HFOyUFBIcseAfuo0tDTvOxwrUTZgp8yPRSR9RtRLF8VRQ+J3jQc/vGVf1N6q/wD/AA2zRRsknwWQfs1JOM4Dx3NopT6nf9zSI7PBneUFR2WyLPqU98Se0XhoriImVv5Nk/5j+wNRVxT2942e6xkQqekd9VvLVzt8LUx5eFcSOcUn/KaLHJpeqP8A8pq/p6Cki3GCVcQ0sEfGEBNiixuxJPUk3NYoQ5e/8J+lB9wfI/SrkObjAIVgC0d0Gy1nvKyVNaWru3ZcyCs0ITQNDV7b2XV6tWFbVbb2Rv8Aw7cw4oh+3vMmDwOpkSZ0Mk02hikncJdRpVgULyMo1XADWJry8oq9mvsvXH4kyzAGHD6XcHkzk+BPUXFyOtvU1djC5ettrbbAW5VBnsbxRjCSm/ieex8/Cm36k1Y6GPqLW9KyjxBUvfVFn9o4QFeJ3GXSeEl/8MOx+nwo0uXM1mA028/73pfjwt/Kh4F2tt6g0NObqBCHo5C1wd7KIeJ+E5e9LpbQ7MZDpDMRYGwv+1qYWQ5ajsAAkaEktG19dhexFxfxDcC9WTzPKFcC/wCE3Xe1v61BvaDlpjxKvGBdd21DbqdS/C9uVNU8kjcxP/IrcLNdoqpgjGxxhLOWwlSyWJWwKsbEG3PcdBcU2uL47WF/Lf50scH5lI3hZt9R0qeQXrvsPK16A4ly3Vz+Brkez8FCd6j8mpye6N5dPIAw1GwO1jewt1oHHYlk3U/FTyIrOW4cgX1L41B03s1wNJ2+Vb4nA9b1OLvZCMm7yUQwp7wkr13K8tPp8KUIuHl94qpIPMDf50UwilS1tvO3zpBz7O8Wo0xLY3G7bgj0pLdTzgKbAwE7p0iXDi6O1iPL8hTczmZNPhselh1vsKSs2xykBmQlzsQDtfzPrQeCy0mYAXIG5HrUjyWgaiiR0MbY9Q5SbxdkrLEwQ2Ok6bc9ViR/T51W2LjfExsbtex/Fv8AKrd8S+JNJHiHL4DofyqpPaPkZhnY2srkuvlvzHyNGPh+Rj2ujeMpmgeCSFI/Zt2ohm0vsTa4H5levyvTp4+OMiT7RhJCV5tHZW28126eVVnw0xQhlNiNwRU9dkXaar/czEbi1jyI81/cVNr6AQu+oiaCO4+FMlh0nUEyo+3LGjmyn/NGL0bi9oLFDmIj/p/3pY7aeyTRfGYUAxnxSKo5fzAeXmKhPTVhT09JVRh7WD+E9G1jxnCmaD2j5fxRRn6/1o5D7QyH3oR8j/ttUG6a9pp42qmI9KWYGeysDH27YRvejYH5H9hQ8fa7gW2It8VBqu+mvXpo2eE8ZH5pJp2qxqceZc/Mp81tQn27LJOTRfMgVW7VWe8NN/8AENHpe4JH0rfdWLfI8uk2DRfUUBiey/APyt/pb/eq+LOR1NCjFN5n6mvC2yN9Mp/3810U+OCppn7DMOfdkcfIGk9+wQfhmN/VB/WovizyVfddx8HYfoaUIOP8Wu4nl/5yf1Jp8U9W30yZ+4Tgif2cnvP2BTDlIPmh/rV2uxL2tZ8lyvCZXEDqw0csbMIgwu8zyjTqa2xc7lTVB8J2w45f/dJ/zKp/alyDt+xP40hf4qR+jCkFta3kgruiXsUN7O/ammW4m0+ruJRpk080a40SqOpXkR1BPKr85dmQFrW02BDDrfe9vUWPOuWCmujPZnnZmwuGc8+4hDdLlVteh3xLTMGmUDfhD15hGnV3UrYSQcwKO/Yw29ImXYqxt0p0YNxz50BtQIecJMmwIG29NrOuHEf3hfybr8D6GntidNqScSCfCtzcgWt6/tSn7qRTzvidqYcFMjCcGxpdl2Z9yCOg6jfkb0nZpw2WB/SnpmQu1hvpsAfhSfPGSd6QQAFYSVkk79UhyVH2CwgRfFzjJPrZunw2oHFZgSNrDy1bj6UtqdMrKdw8Tnl1A1D9KQ8TpbkCKbDt1L0YwSmVlfHgZmidfFqZQ67KQDbcbkX86d+DxKm3JqQjw2mosFAJ52/X40MmXqvSpj3sPpGE9kHhHsxhQAva3W3rRHIMsbd2vuSaJ5viLWRSfM73+FOLDYxhELWNtnB5386TqOMKU5xbHjKIZtgNW45+VRvx52fJioinJwCyMRybyPoakjFZkAQNJUncMNxfyb0O1JWY4xgTrsT5gEVJpah8Dg5p4Tccuk5aVSjH4NomaNxZlJVgehBsaxhcSyMGUkEbgin1224BUxRZeUiq/wA+R/SmBWyQSiaJrj3CMI3amAlWr7D+0FMZGcNNYtp0sp31A7H68qiTtp7HpMvlMkYJw7kmNuem5vobyIplcIcRPhZkmTmpF/UX3B9CK6G5Hky4zDqzKrBlUsjqGXxDY2NxY3oOrZTaZ/NZvG7kfPwoMrxA7K5siOhBg28j9DXRCLsSwMbFkw+HDD3gIx8yByA9KdOB4Sw4G0UQH+QU8fE0Z9LCoj7q1nAXMdsKw6H6GgjHXUKTgfDt/wC3F80X8tqbmfdiOClH3uGgbnuqBD8brY/nXG+Jo89TCEw29s7tXOAJXitW4449jeN1L4GQxt/9qW7KfQONx8warXxhwDi8A/d4qNkPQndWHmp5EURUtxgqh0O39jyrenrIpxlpTa017TQleq0wp4QemtNND1jTSV7CDrXTQpFYry6sirydkucARQq21o1UfGw+lUr4dytp5ooVF2d0QD1YgVdfJclkiKoB7oC7+gAoL8SyNDGNP3Q5eD0AKfcoFrXAN6ckeEHTb4UyuD8QzgX9N6feGk2/sVm+oLPXDdF2wRPM0X0d3qcc+S3/AIj1Hwo9KCOf5UUzQbKBbqxudxc7GvZXWJrYvE7E/Ogcibv0xGglnhKqybgjWpIbcDw/zUfzLL1t4ifgov8AntRLBxRJItkc6lIaTXYbX0hgB4hf1pD5A1pyFc0TI3H8RIceRABXJvZZQepI0Nt9L01nwgJBU3B5H9fpen7iMxZp0Q2vofbkLlHA/Leq/cXceSIdCXU3LX5HoLW+IPXrUamZJK/DVqFNZIqqEEc4TyxewtSI0tt6JcP56ZtnD3sDfp6n4Uxe0Dj0ROIEO5N2P1AH9mruCkfK/wAscodbaJGz+UePdPjK8yjZjGQSzeK/Qc7b04sBizGwNri9mH6EVEPDc0jyRsSFB8JtcXt4he55GpJxmK8dybDa1zy9K5VweU4BTbrbW0zQRwpGxGXK1mUX2+tI+bYK9wR02Pwo/wANZiCoU/8AahMbFuR9NqhZIQC8FrlUf2nMrCSwMAACjKSOtiD+V6hRatd7TGSq+DEyjeOVbnyVgVP1NqrDkmSyYiRIYlLO5Cqo8zWu2adr6RpJ2CNrfMDCCeyfPYZ2atmGJW4+5iIklY8jbcIPMsdrX5V0C4UwdiU5K6GMW6W5fAA7Uy+xzswjy2CODm7DU72H+J1LegOw9APnKeAy4ouo/hvcHlsb7/X8qBbzWfWS4B6W7D+UM1tcZJNuAm/Oz6bgEvGQkm2+j8LfLdb/AApTwmPk/ha/+Q71pDmAVkxFvC+pZV6WvpI+Y8Q5b04JJViJUkEW1I2/uH3b+pFqHgFXPORlJffzatlP/LR2HMZBfWBz2B2Pyo6MyXoaMDFg7bfMXpQJKikotHFFKNlaNj5jb9qQuNOyvDY6IwyosikEXZRqFxsVPMEc6d8Gk+Q+FHsNhATZW+TcvrXmPcxwc04ISmPcw6mrl127dhU+TTaW8UDk9xN5gc0fyZfXnsRUW6a679qnY9hs1wr4Sfw6gTFMAD3coB0Pv67HzFc1O13sEx2TyCPEKrBgXR4zqUqDbfqDyPLrWm2e9R1LfKkcA8fv8rQLdVefGNXKjPTWKHIrRlos5VwRjZBEVoRQ9q0IrmF4hHOHM7fDTRYiP3onWRfipBrpdwxEs8UeJCg99HHILDlrFzb4G9cvya6QeyPxCMTlcF+cReBvPwG6/wDSwoI8VQAwtlHIOP1Q3eWkxagpSy7KdNug/vypw4XDqfT0HKsNh/K3zrEZINrg7VmTN1n5CHiYatPQbknyFMvjLigavj7qjnpXYWHX4U52xhAPkTpHr6ikfNeFxJY2AIJIY7sNt7elPNUiEtaepNwZnq89xsaymI0/70IuCsARyHhA6f2aAzDZCSD/AH51yUZGy6HgydKKQYAjERyE+IlDfn1sf+k1XntXMOFxbICxGsq4kF7EE+6fLfpVjZz7jg723t573qvXtPGOLESEqS5ZHiIO1nUE/Q2p20DVUaPcLe7K8NgZn2QM3F4SPQqnxXsw/h22vzt8Kr7xNinlxDEnYHa1hYA/nUnZNmQk0lhsV8Q1AC/Wg+IuyB5sDiM2jZFjw88WHaMtaVzPqs6DqilbE+tH1uhZDI4Y3Kt6mBhxI3lHuEs0u8MKFGYKrE+fS3lt8Kfeb5woLRsgBRuWq16hbIHMA70KQUAsT67kfWlfNp55i04O5O6nY777VX1VGJJcjhJqKVlSzDwp0yjMWCiVBpVtit91t9dvlTkXPldQH94jZuvwNMLsgxcc0DJMxUru17fIedzvypv9o0jQyd1GxIADeYKEm370LiAunMXf9kBVfh0PcS30pY7YcpkxOFfD4dTI8jxoFQX31hiTa4AAU7k2pf7Euw6HLUV5FV8U27Pz0be6nlz3PWnN2M8HFIFkOzzDvD6Ag6QPkalDLcn0Nv8AI1Z/VOih+lYds7n3Wf1VQYi6njPSCt8gyzzBHK5Px9fW1GOI8WNJjXcsQCdgAfL5b04J5wvQ3It8+lNebDa2Hobn1/71XcKpBW+W5VqDLYFVW+kkWMgvpHz3rbJoe9W8qjUpCta48J3Ugctj4bW5Uc4gbuY0XrqDtb+Lp+VFMXEO9ZASquAnMg3blpt1BIP/AHqM44OVJb1dKcX/AJUhsCVPlzI59efSi2I4aAAMTsLE7NuNj8b1DGD7eDFj5MsxH2uCZCVVcUqjXtcFQCdOobqDzFt6mPLeIP4xe+4I2+ZH+9TJI3x4DxjIyPslyQOi9SEjwcqblQ2w91rH5A+fKsSYo3BZSvpR+HN0J528h+tKEePQ7Bh1251GLsqGgMBnq8te1r29OtNjtO7O0zSPS1g6hgjHcWf8JHIqSADtTlxUMTfhXe3Lb9KDkKR7qWHkeYHx5VGLMO1tOCFMpql8Dg5nZV64v9nrJzhUTHrHBjCTGv2Yadm2WdtVlYKBuhtfzqpWfdg+MhxceGCGeOSdYI8RCNcTN3qxsrEEhHF90ci1dG+NcmgxsJSVlY2urIPGpHIqSNh6VBPGvE0uAwWIxbF8PJDHiMNCsMmhcRiJguHhnkjCWLwR6pS4e+tRYeRnaLlI13lOOcrUrdcI61ml4w8bqq3tJZdhYczxEOEVUii7uEKuy6o0VXt/qB3vub1F/d0JiJWclmJZiblmNySeZJO5J8zWK02MYaAnJHajlEKn72VPaATJ5XgxNzhpypYjcxutwHA5kEEhgN9h5VAQFepippmVMZjfwVBmhbM3S7hdeMs4ww+KVXw80bLJYqyODc+m97+lr0uTkG451yJ4N4jmw00MsTMGSWORQGYeNWBU2B9LfOutUbaxq3BYA2P4VIvaspuloFARh2QVn9zoRSkFp2KFihBa3RbWF/n+tG8ybSjH0/2rGWxAfrRPPs0ty/CLf1vVEdlQAprzAC6j0b896CxeH7xTGDa45/C360ny5iA+9yfELDyNNrOuKSbqbgbjwm2/kLb/AEptS4WajkJYzrMlLpGg2F0ZuQ1gar28ug351AHtZwO5wswBsYwj25ao2ZP0AqbclwzgKH5HoRdhfqSd9iKYXtBYNzhQLCyzFHv0DrcEfNCPiakW2Xy6xv5rYLBVtezyvZV4w5YRCYjSFFzt71uV/jvQ8cq4xI4lLRDmQGuCV5XGw+F70m5hiGECIpJFuX1rbhqMRuBIxUBSwsObDp860XGAXd8o5zkgdkpxKyxkE32tv5g7Uuzzu5RTZV0KL2tuRz/2pGziYyIzQqzAWZgqk6LnctbofX86cWEy4SQxuxIsFJHI7dKr5uNRUtoBOAlnhXL5NEjJbwkMQTpFgrgn4crgeY50aHZ9mGNwsmZqqGDDzQ4eVg4Dan2jRRzKnUCSSPeFEoyrHRECRp1XJA35EG/SkdcVmaSJg1kkXCzz4ZpI0Y908sb2jZh/EAxH0ve1QoGBziTsVGuPTA7HsryZHkqxKi2HhXpsPl6UqS4cXv8AOvRTBSR1/KhZCALk/U8zQ4NycL5hmOZHfdJ+ZuW3PS/6VnhjAXbvD7q+L5jl+dBxh2O3XzpaBslhbmTsNNxyHy5/Su911uBymtxLPqY3+nkSf7+lHsVlIZ1a520sfiviA+ZHOkvHqTMljz03HQ/3vT5zmEBGaw5qdtuR61HkbqBwlsODkJhZ92XYXG5i2cSqHneOJBHJdo17tdIdRsQxUAHe21OGLARHUWVkKi/hPgsPTn+ZozkWKVVI6gkee3P96WHwwcf39DS3Pe/Go5xt+SekqHvxqOUmYDJo390qw+p+lBYrhD+A2t5UBi8sZTdQV3vcG1vS/qbfG3rStgs/vYSC5OwYbH50kOTJOUx8xyvExm+7D0PQc6L4/N30kG4b18utSfOiOLA3pHzLh1GUljpA5npvUaV4aNRTkTS52Aq1ZpxlLG5W5FibH0o1j3TOycFOloTEsa7ksrrcifVse81tq8iNrVJ+c9jkcjavnRvJuzxICGUbgilQTaSJY+QpzaiSF23K5j9onA8uXYmXCTA6omK3P4l/C49GG9Nyref+IHwsqvgcWAA0izwObbsISjoT6/eMvwA8qqHW4W+pNRTtkPJWgU03mxh6I16t60qen04uzrLO+xmFi/jxECbfzSKD+VdZ5MSL2BFjauRHDecth5op096KSOVfLVGwYX+ldPeEuMUxUKToVKyKrgjoGHL4jkRQL4paeh3ZB9/aSGlSHNjwg1G3Km3jy8gIGwO/rQ00twnkTR3ubi56VnhQUmdheH9J1N9KQ/8Ay0NRlK3YgkdQu+9hyB9akDHw3FjtSUuJI22vewvyNISw4t4TelxI07FgwFz/AJfIfCifEHCsmY4d8LANckyKqLcC8ymwFz5i/wBaX8XgVI1FSByB6avL4UFhseYEEkBAkRyyvb3Sykg2ub2ZQbfGmHPMcrXD3RZ4dq3R1IaTyqzcTdh2LyuY4DHqscvdpL4GEg0sLgXFrNzuLbetN/EcORKe6k5qLq42On0/KlbiXtUkxOKefFSu7keOSRixsDpIF+QH4QNgNqTMXmi98GsxQDZh+K/5fSj/AFSu3Ow5W+xOaWglO3su7UWyf7WIoYJ0xUPcNHiF5FgQJEYXI0E3I67bjnTQmhlQKrkODuxGwF+XntSVxZmUhKmIruD4SQPCTy3+FSdxFwHJl8GCxE02FlTHw64kjk1MttmEgta6t4TY8weVqecHGMOIXQ5usgJsZZghiSmGZ1j1uid87aUj1MAHb+VTufh9Jo4g7K4sFnmCwMGNjxsUWHTGzOgACONWx0u6m9kYeIWDb+sJcU8G4mDDxYiRD3GJeSOCYEFC0GkyLzuCNY52uA3kbO72EuG3lmx2ItqVY1gBvfeV9Q0k8rLGefmK6ItMDnn/AHKG79WOhp3YPZW8w8qt4lJ+nX60Yx8gba99gLD9aORZdpuSoHWw2F6J4PDk72sL7t09P3oO9K+eju4laQghbdSdIP70fkiuByFuQ9PKjEcILW2sot8zRs4FTtXglOTeyfJdU4OxAF6Wc3VSJADtYC3PntelPBQxxCy8zfxf309KbyYwmSRDYEjb5UgnCWEiYLLntqjZLn8DXF7bGzX2PLmKUMvzoqdLgqw5qefxHQr61tlsaqxRmUeIlQ7adQNjcE7fUinLisjVxpcb7aWHMdQVIuP1FNN3XnDdE8TNqXUBc6eR60kY3IRIFdGCta1jyJPr05UXxGFkw7aXOpTYI3JWHr0D0uq4ddI28rf3vXnbBdSIySx7uLDqTyt5jz+Fb5nrni0i/NXtex2PK/X6U4sNLdNEgBsN70nR4QRuGU+FrKQT09P+9QpS1zSHKZG1wOWrOFzQNsbq3KzC3ptR6GME71vj8GrHxcvMc6Ty7R+bL5+QpyIdOE29xLjlRB7ZHZWMxyqSWMffYJjik8zGLLOg/wBOlh/lrmSVrtTl+GSbVFIA0ciPGyncMrrZvy/auPPaLw39jxmJwt79zPNED6K5t+Van4anLojE7sjOyyExlh7JokVoRRhloIijFESDIqePZz9ob/hpOFxQZsO5uHUamibe7BeqH8SjfqL8jBRFakVFqaWOoYY5BkKPPTsmbpfwurHDnEsWLQTYeRJEO4ZGB+tjsfQ70txYk/K9q5N5Zn88H+DLIn+R2X/9SKn7gb23cwwyJDiYYcUijTrcumIIHK8gLAkeZQ1n9T4YkZvC7I9ig+osRz+Gdle7ES7WPlamxiLcz52HxqJeA/a+y7GsI5VfDOxsokYNESeQ7wAW/wBSgetS6cpD2dPEp3Ftxv1uNt6EKqlmpD+K3CHpqSWI9TUWxfiXSSbg3G+xomcKzxObEEFCQeljsfhvzp14fJ7LqdlUHkCdz600Mo4wvjBhtLaJFZbke9a1yOuxPzqqedZy3turmx0xfOCdsKqvFHCcYxeKVradTED0cBx+TU3cgmcoqqQwQtYHqBfkee1Sr7R/DP2fExSqCC6mFzfwkodK9OZQqR8KgfLcW0bhykhw+rSzKDsx66raQxA5X6VqFGTPCHA9v+luMMrdDS1Kmf4JJGGvUuwCb7DncE+tEeGUYypGXuqlggJJChjchRyFzubWuaNY8a7sjMU1AaWN2/kvba/pvQuQ5HiFk71VF1vdbXv1/LarFpxHpPKecCXAhSF2g5pmGFwGGy/ERSphZpHxuGeSMqGupiJhJ5owf8xVzfZq7LRluXRRAWmmtip26BplXQh63SNVW23nzJqqHAnGeN4lxuX4PHvqw+AUlEVQAsETBmU2G7OQiXPIWHxvIONYY7RqtrnpyA6fGw2qir5hG0RLL/FddkiEH5WM4iIYAtf4UIqFRvsoF69E3eSahyXz8zQOfYqysAfTYX3NDJxys3aULkmEDIX3BbUb/wB+VKEeWki4I3F6NZNgyYwPTcWt86MYlO4iMoVmVeaqN9PX6C5J9KjT1EcLdRKkRwukdgBMnicyRjfrcbfKk/hSUs5aS2lRZnPQk2G/5VIVocVCkqEMjat7eRt5+YNIGFwyynRGo7pCCSLWdl3ANvwr+tVTan6o9CmOpzAerlEcxwBDLrGxBAPMWvtbpvS1lUjQAA3aImxHPQfNf5fMbedFc2V0VRGxsC7G4DDfTtY+X70r5biSVAkCnUNvw7eoFxerRgxsojiHHZKWcZMsi7WdWA8N/CRzuKZkcCwMUeQAGxQuwBJN/Ba97jobb/KnjkSmJxCd0YExte9rblOm3Mrvyv5VXz2r+BsTFiIcVGSVYFb6SRGw3BFrqb35Ei2/PeoUzJXShoOAQiqy2+GtJY84KfvH3awmBZEMRkB7suyFbjU26hdzq0735VHfbf2kuggnwSsYlcpJdBcuWBCdSGsOo3v6VFmF4n+0Td3LJuxUAuxFrHTq9Al9R/2p38QS/ZIGw0kDKXQPLs5BZT/jISAFcuo8JF7Xt1qzpbQGNDpjlafS2GlhbggEqT+zLtRjzCINcBx4WQeY8gbEEC21uVqfuGxZO1VM4DmfCTLOCe7kILppIdBt4z5f5qs5P2oYKEGSdo4hyW5uzeHUdIFr87bLzqtqHGCTQwZB4QddvDErZNcAy0p05bgPEANr2I8vgK5Z+2FwycNnWOBWyyyd+nqJFBJ+bBq6UYP2kcpkaOO08WrwxzSR6YWYdCb+G/TVa/yrnX7bOf8A2nPMUVN1jEMIP+WJS1v9TGjbwu6bz3B7cDCborXPQvIlHKgXTQbLRzuqCaOtRVzhE3Sg2o4UrRoa4kYRPTWCKN/ZKDeCvLyABqWuzv2oM3y0LHHN3kS2AhnGtdP8KnZlHlY7VFPd1roqPLBHM3TI0EfKafG2QYIyug3YR24f8dExlQRPCqMVViUKsSLi+40mwIN+Y3o1lGel80j03VR92AR4WU3uwJ23JG4JqjfZ/wBpGIy1pWgt99EYZAbjwkhgwIIIZSNj6mpv9nbtDSTFwrLMzFpF0RvfUHJFwDa1ut7/AKVnd0sQi8yaEdOOEmgoo4pHOdttsrRe0FwYuJwMkhMa91dy0hCgaRfUrEgd4LbDqLjyqDck7X2xeUjh2BMCYnlSVp41/wDUs6vrs2oixJAFwLhbjkaVPbw7SUWOLLEJ1EjESgHbTchFPmTufhbzqkmGxjxkMjFWBBDA2IIqVYLdJ9HkuwTwp1FUljS12+6m3iLszkgd0ZipWxuTb4WHUjyFB4vjHEYZI2w7MZQ9jINyNgLW3uD6ikHKe3ibu+6xS9/YhkkLASrbpcqQynyP1pHzbtIaUkxoIyx3OrUTfbyAFue35VdR004OJACB3V8+siDctO6uN7AXDVzjsSwDNeOBGK2IO8kh3HJiyj/T9LZZvwzHH9463c20r1J9Byqhfs68cyZbicvgbEDD4eUzYrGk2swUG2om5OrTpronhUjxCpi0ZZEkAaJhuCh5FaC7tqE+t3pPCyS+U75JTOE1cVlEx3i2DW1DUBZuVt9/oKReNbxqqg73u1uRO1OzEzEzAXsBvvfmb/pakXj8YSMI+KkWPUbKSbDz/Shqpn0sw0ZJ4QxBBJK8NYN1IeV44JEskhRV0C7NsOX7el6RMT2uYFIXaFxMFJjIjBY6iPdII5WN97Daov7SO1vLcVgpMDhpkeZAqoCSqs6kXGrluCQOfOoJ7IMGxxE0ZQxxvEtx3qMO9DgksATbYEA77E8qqjb3TUznykgjfC1m22QNi1u9XZWujz+GWFFgIGH5PpW25PiA07AaidQ/SlYRw4eNniVQttgg0gltl89ybUj8GB2j+8UKgNovDp1IAAWtsd2DG5AuLUf4ghAQA7rqVr9BY8vh5VKtzGCLoWc3LW2ZzXe6xJGTEC1gVvf+a/Nf7/KjWUxK6KAASByOzKfgeX6eu1Zxv+Gic+vqetByakYOtwQFBHQra5B/argDfCqgUoNh3Wy72BDBuZUjp6i1x0o3xOi4nCYiNlVyIn0K1/eCnSRbe9+XralbDv3ihltYj429PiKBkXQysQLe4TvyPK46i9eniLm9PKtrfUfTzNf2XJvLM4MUxaUkaJPu4z4iGB0kPyawG4/araZT2uRHuBKEkZg5EkwV2KrpN2Mi3JNz1HIDckXf3az7FeGzSaTG4d+6nfSWs2mMst7NYA26XHWwqO+172fMblhgxKMsgSMRysgAVW8PhUeRG9zvVi+6wvDY+D3C322VMdUwFp3KmfP+DsPm2G71IY1cKBeIaLoL6SAALbW6VSj2ilxuFkwyDUViVlVwCTswB8unn+1Xb7HOKkaMaiw8IFmta5vy03sL2AvuahL2quE453M8J1NBcyRowuUZhc23ty572qBHMIqphIyDnn7K+jYXgsd2TY7O+NsZmUTYXAYEyssQeVZYwUjYK1pNRHhUkDTbmSapdxnmE0+JmlxJvMznvT5svh6eQUD5VZLhPtomyq32Cd42m8c0CgePQChEhNySFYspUAcz03rlxfmCTYiaVAVV5GcKxDEXN9yPM3PKtJs8IDnOaOVRX0cbhNzTWKzprNFSDlqY6wUresW/2rhIHKUATsEGYxXo8IWIVQSTsABcn6VJ3Z52C4vHWdwYoz+Jh4iP5R5epqz3APs94bC20IGbrIwu1/2+FD9beYqcEN3KJaCxS1GHP2Cqjwv2I4iYgzXjB6Wu1WL7O/ZbwbKC8eu9t23NTLxTwMsYjNhsenqKkThLDpEinb9aEJrrPUHIOAjiGzU8Ddm5Pyqm9rXs05fDEZBpjIOwG3Pl+dVZ4HmGDzKDewjxMQLegkW5+ldLu1zh7C4qFxKBb0Nj57fQedUrxfYcmIxSphyx1SIpc7IviHidjZQo33JFWtDW9DmSkkEIdvtq1R64m4wnR7XnZnicXmaSwLqWXDQkHkLqSp/Y9Kr5xX2T47BjVNEwX+MC6/WujD8PvNPZ0YCJe7jk3dTvc7i/M7/TnTvl7PoZIiJApFrFWHO/oaiU15fDiMt2GyiUFlgmpwS7D1yHdaPZBhNcsa+bL9Abn9Kmz2oOxdMsnEkItBMW0j+CQbsvwIII+flTO7IOFWkk78ghU2FxzZhbb5G9GBq2OpzMChOtgdTyFjkc7WMX3c0CHkkKqw/lYm5/vrXR72R8xxb4SGB1RoIYlCTlmLnvVEsaKCLWVGANidweVcyO22Q/bZFP4AifRR/WrgewN23OJYcI26d19mcd4QAUuYZWXldgTHqAJO3lQnfKZ0lA17eRuovkieF0fc7hXdw2XxmR3PS1h8KqB2nzTZxj8RCjWTD6kVXU+5uGHvDS+oeBiD51dLEwaO+cJ7odr7HVpFxa3PfpVLcjwjYjE42Nh3TyEszgq7Mpv4LL7t2AI3BG/hrMaSYgue7sNsqN4ctuHuc9vdM1uFhAGQKRiENlaWTZ0t74Ist/XTsR1reGSTDsso8GsSAJ4SskwCkLqY2A0hiW8PK1t6esPBeJMTEBnWzRxtYhVYAExuW/EW8Jte9Q1nXAmNneDDzd6kznvFTS4hFzfxbaW1KCAFtubdaJKWdlSCHuGO61LQ0N2Cs52MdpMuLEsEwIdAdLXBuCQNAK2DKC6gWFxvuamXDYJzF3cxBa29ha3kOe9j12vVduwDhh8rlmaTWvdRp3kbEd2ryL4mW5AAJVTpF7ddN7VYfsx4tXHQliyvIpZXI22YkrtvtahnUyKrc2L0fssi8U2txJlYMe6P5ArMoL2ungPxHnXsyjG9mG62HxtajsWXFXdAbatLAeh2P6X+dFeIMnQkAGzK66bb6ien9+VWDp2sOC5Z2yB57I9BiGjdNLCzA3W172F78+f9aUMbxDH/hyC2rYHpf18vSk+TBurKQL7jYDlY7/AFBNbZvgBJcWtyK7bhuYP1AqzZIHNyF3BbslzhvGRkMLsWB5AmxHnypr9rnDj4yHupWmCnxgxlVuyfgYe8Sfw225+dZyeZ3swPjGxOwF1NiBbnvS1JI2JBSWVoSniuj6LknYNY2NxuB8aH7mQGF7eQjLw5VPjqGgZVQ5M4aNxDGJIbP4UO8rBbHULqCdybi+1+tKOY9lU2OE2LgkuzAI8fu9NyGLW8jY6eXOkHtwyU4HMIpi9wxlIdrkKPxXID/C4GwtepIk47jwGT4/EPYN3D/Z5AwaOZnAKaSNtd2GxAvVhBmoZCQfUt5dN5bTIqE9p+dRwztFDpd0BR5rWAbdWWMXPLcFr2N+VRsTWzG+/U3JPmTWtbtR04hia0eyz6rqTO8uKI16saqO8PZK+JkWJOZ5m1wB5mnnyCManKLFGZHBreV7KcnlnYRxKWY7WHT1PpVneyH2cljtJPZ5NuY8K+gHn604+ybsyiw6qAtyfec+8T1P9BVgeHssVbVn1xu75CWR7BaXbrMynaHybuQfDPBoQAWH0p6Zdg0XyreLFoo6VH3GnaIsVyCNgaGmj9USBKHafnsaR2va1j9Ki9O14adEfjbbkeXx8qjjPeM5sxkMaMwQHxuP0H8xp18M8DrGoVAADb/N8Sb1LLQwdS8ZNPCUQ2JxvhkaynmFO5+Z/pVnfZo7BYVUYuVQyttFH+EgH/EfzJPIHp8ainK+G+7UKBv19KtF2EcWxmL7KTZ4tgDtePmGHnY3B+FSKNzS/dUl0leYelS3DlsSrYKoHRQoA/Sq1+0h215HgnGFnkQYllDCNFBZQTYFiLAX6A86ljtw7UosswUuIZgCqMU21XcA6FsLE3aw2865FzdmeZZziDjsYWXvWE0skvhZ1O/3YtsoHhXa1redWNUKcgl7g0e6Bw58LdYKnPtn4OgzSOOFydCN3gdbEsSCPpvTQy/s6TDIqIoCKyhPM9dR8/8Aelv/AMtRLaNDKFAAF55L2AsOv93px5dwzrVVuxF9KqXufiD/ALUGsqZNPliQlqEKqtdO9z3lU69qPhpoccZbeCZEkQ9L6QrLflsV5fDzot7NkWIjzDD4uMWhhlWSd2OmPQp8Sk8ifSru8QcPYOULhpsPHiCATaUHwHbfba/wqoHtG8ciOb7Dg2iSKNQsseGULGHvfu9Q3cqLaiSd9q0C317qqL6UN3xgk8Y/lO0lSWuDm9l0u7He3KPM8HjMRLNhisOLmglEV9UeDU/dlVJ8ckgsFIsCSd9jTO7YMsXA4kzYRO+7iISyRBjGzQ4j3CAAx1Aqbsy8xbbmeYvZd2t4rKZhNh3IGpTJGd0fS2oXBuCVPiW4NjvVtuzj2mZc7xU87Oq48QKuFhcIsOJCXV4bMLamVtQUsdxty2pq+xmJrywZBRXSVLXE9iVZrhnMcNPGMTip4mUCOVIbASRsxDANzBIPhv8Ai9KM8UcYwYdxqDPp7yQakUr3YW3h3OwZgajrHcGQ4sx6lXB4oIC8BcsryBda7K9lKnfSL89uRqKMBwrj0YDF4lmBMgj1HVCU35ORzJC2rP2UrG6sPxjbCKoW9KlDMO1wTl1MYRWKxmX3Efvh4PEFazHe+x6UsdhmR4rDY91MkZw+jRqVSqsQC4VWZQZGQ3BbbpyqK5uHDgMNI8uueOS0jI7m2kPZdLKdQkS7MCPTzojm3aw8UkWGjkkjhjjVoGc3k0MvhXcXLm9i5PIXqYabzIi2Df5+yaqaFtSwtf3V8sRjYwO9kAVY1J73WPd8rEDc22F+hqGU9o7L3xbqyMVhRO7UeN5JSSXAXkpQAX58zUP47tFmzXASYSaXSY5I8QGY3+7VSLoy7MX923JdVzeq9cLYPGRzPO0iFO/McUXMnWASQy3YKuwsTz+dKoLPDMXSVWzgMY/9QxT+Hoac6T1LoDhPa3y+aVYvcLsRF7rFlXdi9t1I8txtzFShI4YFh5X89ulcguO+CcxwLfaLnQ7SL4GLaQxuB5i/MHpbrareezl7TMxRcFOS2iKxkk8TkqpIUm+9txqt1F+lX9XQMiha+nIx3VdcPDTKnIiGCrX4fExxQSSSHSqB5DJ0Fm36jzFVa7Re2+WbE9yiKqIjK0sheNS4cGMkAEKQLgE6gbn0JsF2WcWpmmClw04N2OIVmRbhVLHdhuCFNgOY8IqGu1DsxfCsZFZZY2UiRpCLFNxsdgLGx53AoEbVxunMcjc9hlWlksUVH/VHUFAfHnEs02IicteNW8UZfxDUoRihGkkNZtwLVIXtHkJw0qBQP/UwIbEk6bMwvfqQAelRbxPmEEp7iOONHVm1SE600WI5g2I6jn+W6/xIjS5DisOXRlUR4uIatT6YJFQ77blWLXHTb1o5pIw2WHIxgjZE9UzMLtKp9QbUI9BVtIWblJytfYC55WqwHYpwQIwHceNrE7ch0Hw3oj2Z9kyxuGnGqQgEAjZfUetSXl2XvhntvzJUeanpQPdLiJQY4jstFs9oNP8AiyjdSvkSaFApzDiNUFr1GGG4mBHkRtY0jZ3x0FB36UJCEk8Izc4KSeJu0dY1vfmPOod+2zZnIVXUsYPik23G+y/35UnZBlU2YNuWWO+7efoPQ+dWM4G4GSNVVVsBysKfcWwjA5UN7uwTR4Y7KQgAhBFgbA8j8fX1p8cM4UKbMPvAdKxnnq8z6fC9SllGRqo5USzvJE196ABJpsG5C/mar3uLtymdW2F7BYYC0YsWI3J/Nvl0otIzwOs0T6WQ+FvMDmT5ra9BZTiwoKn3yPvGPTnsPTyFFsTMcS/cpfu1/wARupt+H4c7/KkNcc4Zyk6Q/Ypv9rmYz5orlydAsV8iyEFSo5BQw253tVcOGO1nHTZgMvxEcTm7AylSraFGq+xt4gB0G56VeLHYSBYCrqBtz626VU/IeGYv+LYnEREEiHRyvZnYb3P8otVhL5TIH+dvtt91X3CjZLFhoxhKnEuGIl0qQQwsCLWVx0H1opmOXvDoGo3b3t6kHFcPKoitbe7OeewvdvTr9Krll3aJLmOavFGfukWZYkXe+k2DG3Vve+dDdvjdUMe9vDRlY663mSZwYdgVIGb5hNBBimjN3WByl77EgfoL1z+mkJJJ3JJJPmSbn866a4jARrJ3TC4ZAslzzBXSb3v51Q7to7Mny3GSQm5QkvC3Ro28S2+ANvlR14XqWHXGeeVHpcMJYecqNyaHweMZCGQlWBBVlNmBHIgjcEUIcNWhwprRS0O5VluOFOnCXtd4+JUhxZOIjUoWbVplIQ7XYbm3r86sJwZ7X/DrQmLEx4iO7tPdtRJlNhbUl9mBJsEAGkb8qoP9lNbfZqG6rw9R1B1acH42VzDdZ426eQuj+ce1TwxLDGpleyGzRaJnY+FRr8aqpUi3hB3tvba8Jcc+1llT61gwJnGwjOJZUACtqFtOp+7bmya1/DyAsaorhqFXCVHpvDNJC7VufzTz7zO4YGAn9xB26YmUv3KQ4dHVYzHClgEViwALXa5J8RuCdqSuHe1nFYYsykEsdVzfY8rjyprfZKz9hq/FBBp06AoBrZyc6lKXEftDS4vDnDzQpe90kRmBQ7brz6XHzpHyvtuxEI0xxxAWCnnqNrDUTz1G3MWpkpgKGXAimxbacN0BownTcag76t1MfC3tpZ1gJDLgmhjuCoVolmAQm+i8l7/Ei9N/i/2qs8xusTYohZGMkkcaIkZZlCk6QLC4HIbXqPGwIpKmwmk79KSLVSt6vKbn7BR3VcxOSVJvCPGiiKSGUWD6XDIfvFlFgH3NmA/huLX61OefcW4NcqxDGeV8RLEmGjSQX+8ZlLkaNW3dBgL23NVHTGcgKcU+KJRVJBPvbdPT12+FQpbaJJGu4wcq3juJbGWIFmoFmrDSUGz0TAYQ8Tkq3mV41CwbrttShnOOWRbE2IvpPW9RIZ5YTcEMP5Tv9KFHFTN4QGJPJbEm/lYVlppcHK236kEYKV814jKk6tmHP19a24R4Tlx8mtgRF67ardPhSrwn2XSYhhJiBYcxH1/1eXwqxPCvBgUAAAAWFhsKblnEY0t5TW5OTwifBvCSxgAC1thtUtcPZbaiOCyYAfSlWLE6N6ptRJyV0pdxEyqOlN3GZwoN25DnekXO+INI3PyqNOJON0U3ZvgL0trS/YBIwnVm2f8AeyMsewIAdhzA3vb1I2vTgyvNooE0jYAc77k+dVvzftrw+EVrtub7bE/ID41B3HXtD4vE3WEmJD1v4iP2+tXlLa5ZDsMe6YqLhT0zdzkqxHtAe0/Hh0aCBg8pFgAeXqfKi/sr5G5gOOxcgU4hy93NiVXwgb2Pia9gBVJe5aVwN2Z2Vbsbkljb89quLwnk02TnD4nu3mWNEskjhluTZwq2IXTzBAO/lXr/AErYaUQNPU79/hUlNWSVbpHAbAbKx0/DuqN1cFe9Bj297uyCLgbabg1BXY37LcuW4w4x50dQJEhRAblXuAXJuL79L72qzmaN3qJNYjvY1exFmXUNl+K9aqbD7QkcOb4jB4mXuoYtSwux8CSovjDctma/XY0BWFlVPHLBCcD+77LJZaqeOoe1rdhupDxPFmW4mQiDFQtiCzeAtpZWW4Ksu9iCCN9/SiXG/ZZh85w/2eYaZlBaGW26t/Cx/gY7kGwFUL4m4ovjZsVhyVBmeWM33sWJF6vp2PcZ/wDEsHDi1uGB0yoeWpNiR6HnRbU2p1sayaFx+ffKdNO55EsY35KojxvwBicvmbDYlCjqSOWzAfiQ8mB86Qu4rpbxz2ZwZtC0eKimUtdlcIGkjNxZ4XIsVS/iXbw352qmfa77NeOyos/3c+HBsJ4STYdO9UgFG8+Y9aNrbeo6kBrzh6thES3UOFEHcCtu4oZazROExhaLHWQlbVjVSl1e01mvA14mvLy9Xq01V7VXl5b0BiYg2xrcvQRkri9hAwZcqm9Gmai0ktaNNXNgu5whWmoFpKCaSgXlr2UnhXlyD2e5JLGd2PUqmwv6sfEfkFqS+Gew2GL3UAP8RF2+pFTXg+GFG+23nS/g8qHpWQPqHv5K2UNATCyTs2RLE/WnPDkoXalnEJpopjMaAPWohTyIY2yimrneeheRrGe50dwTb186rX26dtC4MNBAwaduVjfR6nyPkOtSKelkncGtCjz1DIG6nlGe2vttjwl0Uh5m91B+H+ZvIVVzOePMVMzO8jXbyNgPQCkPMcY8rGSRmZmJLMxuSaLu9q0uktkUDdxkrO6y6Syu6TgLabEkm5JJ8yb0ATWC9B6qtw0AYCpHOLjkpydnUCHG4UP7vfxlh6KwJ/KuruH7MsIYVxh1tqUuI2IKIygcgQTcny29K5ARy2IYXBBBBHMEG/7V0D7He1zFGSPDh9EM8SyozqJSHZFup1NcKTsDcAX5VlfjSiklDZGnAHZGdiflpYEqcY9sUmS4efFYp+8eZnXC4M+KMKNowNrqE3L+d1Fc6OJc8fFTS4mW2uZ2lewsNTkk2HQb11i4y7L8qzSN8tleP7TaOUjZpUv5Ee6DzIvtcbVzy9pD2f5cinC6lkgl1mCRTexU2aN/J1/MW3NM+EJoWAse3TKefkdsKDdqHTIZmjA7pmdjPZec3x0OB1rGJD4pGtsgI1Bb7ajfYHyrpr2OdiKZXIuDC6sJGr65X/i5+MgWLNz22Fxt583/AGfuKocHmOHnxGru1Y6ioLMLggMANzYm9q6VdjHawM2XFK14sLhgDFe15APeaQN4i7Dcbctt7VO8SPlc9rB6eVy3ws8suwkTG8aY2Z1w2GCiE4kiKdrKYXS4Mae9cFQQCy6SCbg1KuQZdGsRhxww83fXWSN4lICm/hawsb9TZRyO1VY4c42w+OxM0UciROkzx4YSGN43+0X7pjG24MaiQa1F1LruL1aPs3x0QhkhZVWVR3c+p9QLBRZ2JuQxNiBq3BFutCsjHsIPBAyFZtjZ24VBPat9khsmVswwzA4R5bKlwe7WT3ADffxBhboLcqrFXXHEYfLZu9ynNBHNFIC4jkliJTWuoyYcFtYMYYnvFGzCuYPbZwdHl+Y4vBw6hFDKyRa2Dt3fNLsvhbY8xWlWG4uqGeXL6ghyuphGdTeEy2rQmvE0HRaqhbaq9qoPvK0rq7hD6qD7ygia0Zq8uLcvQZetCawTXFwnK2dqljsI7CXzZ++xDfZ8BE1sRiTsXYC/cYe4OqVhzNiEFiQx0I5bsD7FTm+KiSdmhwpdlacqR3roFc4XDsVKHEMrBrE+FdRs5AV7Y45IVjJUR4XAYRdKlrrDDCCNz+J55TuR4pJZG/ETsH3q8Gn/AAIN3nvzjO35lGVjszaomec4jb+/+PlMbtX7KMvfBLFK0OH+zxSHLsxEfdxTxRai0E4ABXGKRdltec3dLsXQ0qaSpb7ee3yTNXXDwa4sBhzbD4ckanIuDiJ7bGV7khfdjBIXcuzRCDVnaaeaGHM56jvjsM/z3HGeFU3iphmmxAOluwPcj/HAPOOV3lfAik/MTp2FK2KktSLi3ub1mzj2WmsGRlJ+IkuKaWfYzQb36b0q8QcRxxg3Nqhni7iGfEXWIMibgsR73w9K42MlLwSo19oTt3+y/dQ271gQvpf8XyqnWOxrys0khLMxuzHckmpH9oqPTikTqIgTf+JmYn8rVFuqtLtVOxkIcBuVm15qXvnLDwFsXoJmrGqsM1XqHVrqr2qtdVe1VxeW2qrOdmXaVhUwmGEwYOC0QYEsboQQWIF0Xcbb3t9Kvs1SF2IcQwQ4tPtchSC9yltSM/IBhY7bn6UP3qjbUwHVnbfZXNrqfJl+6tlnOJeH72CUNNOonedQ1liRSFAsDfcHmRe3pVZO3btpfNBBF3ssqwKdckkSQ65ibMyBGbw2AG5F/KpO7SO3jAQt/wDLWkLqNDQyIPsxS5vp3vpN72Gw+dVix02t2ewGpmbSOQuSbD0F7UO2C2FjjNK3ft7q6u9Y1zRG12fdPzsTz/LMNLLJmKSlgivg5Y1WRUnjJYLLGxUPHKPCTqBW3W5tb72Lu1DDzx5hJigkas3eysxGgoSdMSIAzXBubXsABa9c/wDTUoezpxvDgcfhzit8M8iJOpayBWOnW3S0erUb9AavbxbW1ETnD1KnoqrRhh4Ty9ojMocPmzz4T7qKSKOfCyqhQPsVLFdiNbBrbbbbC9JvZV28tDLLK8hSTQzLM7nSWFzpZRbUD+EHkepvTJ7dIIEzHFJhp1xECzSdxMralMZOpQvSwvbba96YBFKitccsLQ8b4A/RcdXuieQ3hWV4M44wrYefOJccyZhHMgkge8hfDTuI2aINYsURi2lWHK3Woy7f8/hxGYzyQSd9H92qzAkh9KC7gMLi56Em3nUala201Pp6COB+tvKiT1jphhbE1p3leJoMirRQQs1qTWCa1rq5nK1JrUmvE1gmuLnC1agS1Zd6DkpK8FcPg/jHLsowEGExs0brIiySxRszvrkPfCSPutbI0TN91MAvK4vcgwf23e0FjM30YdpZDhICwgV1CPLYsEnxQQlWn0EKbHSvisAXdmimtKoqe1xwPMrjqcSTvwCfb2/VXtdeJaiNsLAGNADduSBxq9/0Xq1rLVo1XYQ9nK//2Q==;" parent="1" vertex="1">
          <mxGeometry x="590" y="70" width="220" height="220" as="geometry" />
        </mxCell>
        <mxCell id="ugAIHgSxgHmGyD-dgIst-7" value="" style="shape=image;verticalLabelPosition=bottom;labelBackgroundColor=default;verticalAlign=top;aspect=fixed;imageAspect=0;image=data:image/jpeg,/9j/4AAQSkZJRgABAQAAAQABAAD/2wCEAAMCAgsICggKCgsICAgICAgICAgICAgICAgICAgICAgICAgICAgICAgICAgICAoICAgICgoJCAgLDQoIDQgICQgBAwQEBgUGCgYGCg0NCg0NDQ0NDQ0NDQ0NDQ0NDQ0NDQ0NDQ0NDQ0NDQ0NDQ0NDQ0NDQ0NDQ0NDQ0NDQ0NDQ0NDf/AABEIAQABAAMBIgACEQEDEQH/xAAdAAACAgMBAQEAAAAAAAAAAAAFBgMEAgcIAAEJ/8QAQxAAAQIEBAMGAwYEBAUFAQAAAQIRAAMEIQUSMUEGUWEHEyIycYGRobEUQlJiwfAII9HhFXKS8RZTgrLCJDNDY6IX/8QAGwEAAgMBAQEAAAAAAAAAAAAAAwQBAgUGAAf/xAAtEQACAgEEAQIFBAIDAAAAAAAAAQIRAwQSITFBBRMiMlFhgRRxkbEG8CNS0f/aAAwDAQACEQMRAD8AaZlTECsQaIEJzXSyhsQpN/nERl3OhPIKB/WPjssUjFcGgkbxD3lm06xGkEBiDEBmCBuP1A1ZkpTRGqY0ZJBBbaKa6joYE4kE09V35/WLEtXKKMusb97R6XVMWOmx/SJhPwzwbSecXUTXSpKmLiymuGIbTXlAyXUOOsW+/wBNAOev9I0IsgyMpgwG23WMe41ayvvISTbqN78o+yZmQHVSR8ffp+/SOcM99DsU2I99/eKtUeLEqudx5jdnfbUa+npFXFcLFQlgAmanyDQK/If/ABOx94xCpg/AptHSM2XTU6k3tE6cRWGLSyT+RNt9mPziGrRfhi/SoDFC3QRs10KHT6jcRQm1K5Cg4JQfMQf/ANAbhidH/SHWuUmfaalpjACbLsRyzDRYHVi28KtfLKT3cwOk+VaXZXIoUXa2qSPUaQOz1hX7cGFhlI1HKEyZgZzKKboZwnRQWSXu9w0EsRpjI8BL5gGcHlmDs4SeYPOJaEqMePJUU8GoCAcwIUQp36aH4QImSwAhy3/v7H8I9Ia5RLkEMcp94Va2S+Qi+VU1/wDR/aDXwMRMqakICSBYDUcjeJ52KAKA52IfnEyJrJSHIJALAO4LxjOwlKw9ieZsflFReTpnkAF29iYhnyT194hlJMsi9um0WFVb+sQCbEDHcEeZ3hJNhYuQCNfjaPpDC8OM+WL7gnQ3EA63Bk3IKknpcH22g0WeYv1lZp1eB02viziOHEAlwpttD8LwtzavXb3ENx5IDBrYtYPxKunWmZKmLlTE+VaCQf7jobQrqxDqPjFdGI84KETa5OouDv4rpySkVATNTvMlpCJg5qI8quukb2kYkahCZiFpXLmJCkqSQQQQ7FtCNCDcGPzwlYx7Qaw3tVn0bmROmSSdQg+EtzQXSfUh+sVlFPljcZKXzHMh43n6d7NbkJih+sR0vGU5BCkzZqVC7iYp/wDuhcKo+Zo7f2ILwh5tm/sA/ivrUITLXNK2sFkJUW6uPnG5OBP4nJc5hUJD2GeUQD7oNj7NHDyVRZpaspLgkHpGZn9MxZOY8MlyVU0mfqFgeLy56BMkrExB5WKTyUnUH1i1UUe4j8/ez3tun0MxK0qNtdwoclJNlD1+UdYcC/xNU9YnKtIE4/dcJHXIC4PNs3x25XVenZMVvtC/6fd8rHqrW0U/tw9txzgrhuMyJ7hCxnAcy1AhY566gWuHijUYMHcWf99IxJQEsmOUHTJMIxO6knbTmR/aGCUsbbiAdHQBPXrp8OUX6OnOxfkDy5Pv7tDOKVdgQtSLuOWkfAgStBYm55eouPnEAn5TcEG7PzYxY+0OIadM8SJmve1iGPWI5q/f9G+sV6qYU3+6w8Is3Rhz5xXXWB2BDguzhy+oZ9v1heTolKwrRquX0BFuYj4CPElQCwCHSoOxD3HItYKHKMJAdrAW1vt8Y+VE5jmZwQzDXkPb97xRMgXcdoyknOe8lrPmJ8SeQVyIexAY/EQCClSilro+6efQ8ldIfxPBF0i9iDoxFwebi3SFPiCj7kuHVKWWUFFyjoo/9qhpFHcWWsuS5oOWxfKSLcxzhSrsQATow7xQZ/ymD9BUgLSlJzII8CrdXB6iNf1lWMs0H7tUQfcEwdv4bGYMdKOoD5chUyBf2J1izkH5gDrYR7DEgkjkAAN4nmU+rP6GLC2TsGTCBcvdxp/eB9ZSOCUgqY3SLluYGpaJ8Qmtpt0sYiplGxdo8AsEpqxzU4Oig3xEYVs/VrcoP4vh4qA4ITPSHsGE4D/zb/V9USrmkODqNr/OIqixSxSpIfT0hDxNW7esNtdPeFTExDmGRKAsxcYCo6xDWKvYvFMzvaHwoSTU84qV1Q8V0TY+FMVoIkaQj0YR6O8o0rM4zQuMI8DFTzZN3sT0+IFJcEgiKRMZRRpPhlTefZn2xFS5UuomKllJAlTwWY7CYdW/N8ecdj8G4oaoFKsvfJ8pCg00NsPxejgvtH5mSzHRf8OfbEJUyXJqCSEkfZ1ktlV91ClHZ2yk6aaG3L+penRr3Ma/dBk1ljtn+GdfTKYpJBBSQWIMeQvLrEVZjgnqK0uFqutBNwRqQ1urB4yp5wVY/sxyb4ZkZMTxumXpVS+zmLKG5AdQOfMaRRo5BHIC5EENNj9YYQvZDVEp1uk7jQwDn8OAkqzFLnOptXbnqB/SD82oa2oOsU1EGyTlUXsWyvyd7e7+0Q1ZZPaS0eJjQ2PU/q3z+kXjMB00+EB6eXmDGxSfVjz+P09IDSsDaYZxVMzJbwhWVIYXdncEbNtAWyUkxlnvzuCx9CbfB/nFReHZwQo2U+YauDtt8YuUtamYlwxcMSDcHf3j7KWA4cAvccj69IHJlWI9JgyqeoRLJeUvxIJ5aEHqCfg3OwDEODypdQjR6hChp+GNpVNGFFCj/wDGokG33v8AYwOxaW6yW1Wk6bOR8orly1AewK+wXLpmmTAHJZBt6EH6CPTa0A5SfFqxtBzF6DxunLmLhnZwevMQLxHBypk5RMUrRIsQ51za2bVxB4ytcCuVUwRiIGVszdPD/aA86sI8t+fL2h0kdlxSkFWQqYWdWnJza0AcS4VUkmwQNgC7/SJsXFgVBBd2I35ekY4vPlTy6nkzCLqSM0tZ5qSA6SdyHHSLVVhzallDY/rC+U6vrzEeshMFYpghTyUCHChoRCridH+yI2ZKxmWlKUTBYOyxqPbfXnAnGcKQRmQoLSd+XryMFg6YRGlsQQx9IHmf+3h34iwobawk1Mgp1DRrY5bkHMETomQqKKonp3MGrguaZj0ej0dsPmcej0eihZqz0ej0eipVckiYtS5zRUBiWIatUQdidiHaEudSSVzQpS6eaUJmJBOZCAkOrmQF5X3jouXLTNSlSSLhwoDV+d44k7F+JFopp3dKSqdIUSJClEJmS5rBamdipBAILWGpvHRXY32jpmp7tZyksSjMCUZnbTYi4O4aOC1+ncJyklxYzqMSnjTXZtjuFAaZm3H1PKIP8WCQRruG6a/u8XlKY22uDFWso0TArN4F7LSHfXzJcAjqllXOukZSlRgtUBqjHUqLPFCdPLi7jlEWK4MqWQ7KQdFpJUjXnsdwFAFtonpcCSSDy5b+vX4RLmC7DWE4rmACrhrPfT2/pBtEsEMRl/TkeqfhCzPpiB4BoGBGnqxF/X5xZwTEis38yfN7ahtiWI9SIC5FrLs3Dyk2ACA75QwGpZtjs0Y9zmu7HQEix5PtBOmmu5O9r3fp7x6roApiWSzkaEjp1HUaRRq+i1lQoVlIUGs4IFixd+tusEZeFJJHq7nk0s6bPeKdDWT5RDNMQ5JFiCNbatblvF5WIidN8KhcB05bjYPflAsvEBzTtWDMVwRUycwcAMSoaD+p1YQfpaIS/Im7XUdT8reggtiHDpIBCwlaWdJFlAjc8+VucVkYYrRRSCfK1+e+zwxi4QHLxICYpiOtlEDWzgQEqJKl+UHKlLsoga2DO0PooSAGYADaA2N4WpYLZdwPT2grYu0acxVJBIVYudTvCdjkopDm3LLdhuY29jPC+33mZ1dPqI1/inCi1Zg3S532bpFE6Bmqq1Rclyb2Jt8A+kVKLiUyCR5pavMnn16GGLiDClS05VajcfpGvq+Tcw9iimEQcncTyllmWl91afEaRSrsPcONDC3NlNDJgdSFywDqnw/CHktq4GIuxdn4dcxWNORDlVUr6NcMEnSKM7DGfna20H3BTm7NHs0Yx6O5o0EqJExlHpaXgrIpgYFJ0VQKj0FKnD7QLmJaPQdk2eBiZKogBiVKo8QMnBPFCqOfLmpvlLLQWyzJZsuWoHVK0ukx1t2d8D4fUd7XU9RNp0sCy0smUEgd5KWgJKlBJIGcEMPExCTHF8i8bN7GeIQmaqmmH+RWNKLue7mktKmADko5VaOlR1tGVrcG+Nr8/dB8OTa9r6O6+GsZzJyFSV5boUD5k/dKTfMCLxJi9bZtP2I0/wBn2EVFKFy5qZoMmoORSkqCVIV4gkKNizku7eMcr7oMkTEgnlfn7R8+yrZNw/hiWt0+yVryVqOtIDh25N9RcF+RizIlpUPCO7LbF0k7uNQD+XTkYhShtLjaPiCx+kBZkkv2jK2ax2u4Podx1+kZmi7xndLFwrR259OpiSmnhRY3GzWIJ3B09ouE5fzDZWx/p+9Yjs8CyiYlQUC6BmcKu+4L66PvF3/Ec7AHVrbfrC52jcWKkS090E96ogpzAKDJYq8O5bSJ+CeJvtKHWkSpqGzt5FZvLbYlr7PtB4cEtjabOA45KTqPUfeHzHXSA/D8tUqrCVMe8QllDcBeo/1f7QVVUNbUv+2jCkbvpKiH8RHo4cMf+mFdQ/hdB8D+JGwKtfPdMs/Bx+sUlywU5dR9Oo5EQcxfCxPQoSzlnyx4UH76QxYHR4QJWMKBUCPEH8JsQR0MXi6SL5uJBxEvKwUVEjnYfKPomnQWHWKEnFgoX3163cfCLUnEEv8A3P8AWCqViwPxlDJUqYcqU8tSSbAdf6GELAsTp8QVUS5DibT+ZKifFdnDpB16RhV9o6cQq5lPomnGZtBlTNKCpybqWpAVlZgje7Q94ThKJOQBISkg96uUEhRUVZrENmUg3BOgB5xp4tK5SrxRs4dPCUf94ND8dYCzu4PLqI1BjlBldr9AI6V7S8ON1uFFSiGF1JDBSCs6OoH2vrGjMXwwqO8Av2p7WZmTH7cqZq2tB9IzwfG+6cFIWklykki/Nx/eGDFMChan4e0aGOakREYZPFCF6pKOmvzi7MnOlx8Y19MMXsOmqIYE2/WGK4DJmkzTRiERdmKiqTHbWP3ZiBBqgmQGgnh0kwHJ0SEpogHXohjFKY+DBc0Kxyxj2eSFMCPohnm4A0C6nDMsMRzRmeK9MYu085mIsdXEUUiJ0GJmrKs7M4D4rVVUUiYhalVKR/6iWbicmS6XCleHvNFFKiHCrXAB3XwrX50seQPqD+wY5n/hZxX+TMQbp78hTA5h3ktDAagA5VC7aAuI6P4FwxbBUwhAK5qZbaqQJikpUpIZgSGyh9Pj8+9SxbMl/c0c+P3sC+pjxDSLSXli181/RtfeIqXElEXF+RSRs0MWI1aEBipOY6JBfN1DfHSB4nGzXB2jKaOVlFxdM+TJ5CDkYrALDd2sNecVeHqmcEjvCkl/wh22B2+XKJVT2IcDR3dn66X9YqUNc6gg5knLmcsXazczo5BaJRUJYhRpnJZSUu/hUAAUqIUMw202IgNhHCK5agQSpI1ZIvyfl76+0MkiYL2Sdzrmt72gnSTQwYF+mvq/WLKSPGX2MsSpCxuFMW9HZhfnzgbU1mUoOrLSR120/fvF+XPIUQCQLsQb7s99dIhxOfmTfKpx5ikBWo3DH4wDJTTLwdM2Zi3hUlQtmQPja8BeI6KXV/8AufypwsmegWLaCakM/wDmF2gpOq+8k0yuctH/AGiBlal3tpr7+zfFoLBfChnP8xrzETUUp8d0OyZqD3kpXooaHmCARa0QI4sU4AKHJ9Lc2u/xEHKmYuUSRdBfMhQzIUPzJNj+mohMxTDJZJVJ/lzFO8okkDn3RLm+6CSW0Kth/KJlGdiUiRMmTCZq5is3eFkoQnMSfBLSHADnzLUeusZUvaxLkAEKMyVdJYZlJzXykK0v98OW9IS8fnC4JBWQRyuNlDW0azxPC1pLuw3Is/tGhgzuPkbwaiUZG7pXaLJnKyELTnUEJKgDmJ9G3s8UMW4eQo2VlJ0TZz7PtCFwFw0TME0zUEIOZCSplAlwA192u0bgqcaleKXLAXOSk+JN0lTWGbZIJ57w17fuzUn1RrzxLLJSfRpXieSJCiFvlI8Kgfk0JtbJQt8qvjGwuJcKKkhEwZZqiVE/dHQHQ+0a/q8IEs83cQZ41F8C+XAo/KKdXTsYJcM4gmVnUQ5ABSOZeKmJoynSBhqmLw7FWhNI1RNmxFmjxEeyx2o+jNEHcMmXgAmDWHLvAMy4KtjXTCLctQG8UJUstAyqnFJjG9vcym9sYqmYGhdrp2sQqxAmK9RMeD4cTi+QoOCHMXJeHkxnRhoO06w0MZMjiuDyRs7+FOeRXJp1EJTUsAr7yZiFBSCi4LqGZFn1f7rjtHHpFjLQRmlIBlhYOoGlykHMdevz4B4GnLTVUhlEpmiokmUobL7xOU/Fo7lxTHhMnkjMUIzeIBR3AulCSbhz0dSmALDk/VY76fk1NLK4tMqYzKmzpMqchOeZIclSyAooWqUhlWYhCphfVTAsFWe3w5RTEpAWpCz6KTdy18ygA1vLtBCViuSUiSGCrrnkAslyVIlMW8oy5ja4azGI5tXsSQDezX+ItGJ7iT2mHqpx3tIvH8yW9FJP6j9IglYU5zFIAF3UpyzX8Kbj47GKIxBvCCSA7FWrewv6xnQYqZiwkMwus6Mkakgs7uEtzI0eK5En0Z3HgIyUIAIBJzAB8tgDrZ+jXMH6TDEmwVo12Zj6OXjDBOGxOKcqSlN2UVDwBz5gPMNwBDCqklyTlcrUzvo+1n5bkA39IiGCTV+AkcUqvwDcXpE0wllhNC8yS7jxAOGICmJYlmPlgPVyEKYeKWrTItmc3GVQJBHNwna0NdStE9CkKSnIdQSddruFAjmkj5wmcSVUySRLRIXUS2zImoWgGWHbKpKvEphYEAbB9Y9OCkqQVbaqh+pkFNNJ5pJSR/lWofQRWqRdRMfOFKiZPoiuYnIsTJhyO5SygQCdCb3LavGNStj6pHxERDjg9nXKf2Bk/KrMehfd36GErHcABFrXsX/XWG2akMfzMb2aKFdJJdg45GKNCT5NTYwgKJRMyonbTCGC+SJh2PJb+sawx6jMtZCswO48vwvcddI3fxNgWdKns2ha46dY09j1KtDpmJK5f3V7o6pN7HdJcRWPZ5ML8J8ZIlSRLKUmZMUsOUiyQEkAGzEkn4Q2UtKyXtLu7kgGNBVeLGQoFKgoguLaeruxaDdDx936CkqyqOoOt9xfSN/C21Z0OmzppJ9j/jqAh/H3hPiTu3Un96Rq3iLExMJKd7fCM6/FCiWgPcu56PChieLJD5bq29YYUXJhMrQL4jrCVkcoBTJkWVXubkxCKRzGjBUjKNeZYwyxJHo6Wx0jywcwhN4DkRdoKvKYpPlURLlDtLNoFVqdY+02KhoH4hiDxnwg7AJUyqua0YqqIpzp0RGdDygHSosmovFqnxeBiUvEv2YxMlHySdG/wz9msytVOqk52pSmXT5TLSJtZNB7pCpk490lCACpbnM5lpA8TjoXEJ6KcS2nCZUkDv0IQjuKVafCZSZiFFFStOmdKUywWKQo+Xmf+FrjLuJ02nUuYmVWJQkpStSEGbLJKVLKSFCxUnMkgsoguDG4UZVEpy5QCzOpg21ySfV44r1abjLal+ScuZ44fD5G9M3On+XMSou5cEEn1u++p3ijPNSPug+kxJ/pEmFFAHhtBKbWbC525mOZSMNzsAUWG1c6YEuJIUWUoqSogHkkFz6OPWN8cBcNU0hJSlInrslUyas51KSLnzAJljVki9tWeNZ4JhCjMR4nUSwABUSdrDlDFiXE0yUtYQlCykAqnFKQlBKh4cynKVH7twxQnY31tDFcykaekgmnJo2ricqZLRLXKEtJC0pyS0pCMiyQpKiCT4vCcxJ0bcwD4jUApLJC5qVMVqUooTd1JASsPdixFtuifjHaoZ0rugtMiZNKAVzUpSlLKzAmzFynVIUCeUT4XUqnJR3pIyOVlLDMpgHS1vca8rQ7qs0Yx2xHNTOOONIYp9SQE5ilLup/KCVfhD+KwHzvEwqkJBN8xDO4Yc26XgL9pS5ZIUohgtZKyG5XAEXpuEJlZVzyQ90SQf5s3RnGstH5jc7A6xgNt8mJuNncPUDUjbrSqYB+VRIT8WeA/wBszol5glXhYnKQu3VLfN4X+GOLFqqE5mCJiDJCQWSn8AA0ADEe8GaIB1J+9mU3Lez+5+EQpXLgNJ7oi9iU1BeykHZPnB9zlI+BgdNTrdw3mFx7j7p6KaLtUWsXB5NeAdTTtdJIWOXLkeh/pEtijZSxAZtb9YUcewdJSQ2sNs6rCw7MRrsP7fvSA+IJzDYiKFOjnnjPgvK5ADco15WYaU8wecdMY/gucMG13H0jWnFHBhBDMX5Q/hzOPAaMqdo1XUVqiACSRA+eA1ob8R4QWNj8IBq4dWNUn4RrQzRfkb37xcmIjAKhzouBpi7hJY7tF6Z2eqQHKT8IY/Uwj2e2s52jMSoJz6RjEKkx1qmmPUVEy4lly4jXNaLMmcLx52WPARhOmReCQYkThTwJSS7PKNgQmPSZTwSnYW0RU9OxgnuJrg8+EGcFwTNDH/wiGf8Af1j7w3MFn/esOcuclo5rU6rJGdIWs1fPp1SSCCUqBcKFiCNCOREdJ9lXHQr5Ss4H2qnCe+IAHfSicqZzc0qypX1Uk2vGjOIaBy8FuxnEFSa6QQFKSsqlzEJ1XKWgiYG38Jzez7R7PGOfC77LvlbToWfPCC4Op22ghhdeXBDF+cKeIr8Sgl8oWctr5dn5WgrhtS2/pHGdGO1TH+TicwB0LEmYAckxIBYqBS4foT8doQcT4ZneJKZkyclReaq/iII8yXZgw+Ahhk1IbUD0MTqrtAHBJADXJLsw0vA5ZHVJl1klFUgBw7wsUkKmLKwjypJUQk+5AaNrcPUa5gD+GX91Stx+VPmV7Buoilg3DCLKm+ObY5NEJ3AUAzq3INgbbGG6klh9j+n75RC3N22ecm+y/STBKH8pBKiLTZgBUOqUuUp6akbEawJWxUpSiSokuVKKj84MyKnLb6D+8BqOmZSlG5KllAJLMVFlNdn2+O4iZFGz5OlqSULHh8aV63sQR8TeG9eJZJhWCQFJQsEbhQLfSF+fLzhZUtMqXLSpalqd1KAJEtLarWzJDj1DRc4NrkzKeTMmB8iZkpQLuMiiQ/OwA9CYopNO0MY1dot4lXZtcqwXswI+jh+hgJUISTYqlvs2YeuygP8AVC9jPFSlLMynSF07XQ5CklPm823JibRBh/HUuabWIsUnUa6Pq3rDCkgMk1wwxOwMKsZiQ53C/i4BhTxGYpBKSCCN9QRzB3hwRVBUQVUoEsoekeYNoRE4YuYWGpgRi2EKT5hcRs4UQFxpzgLilAVaXim08aexCSsdYJ0NPLSEqmAqf7ouRDZU8LEs8OGCcEJRLOZg4crUBy6vGhpYObNHR4vckBce7WKOnp5UuXIBWBckB3trGt8e7TO+ICZIFrsB7besWeIOzRKJypgWFpPM2+toxpKZIzFgAN/jGpmTkqSOilhTjRxljigDAj7VBPHi5MAzKjtcSW0zDy1x5C4xyx7LDRJfp6iDtHXWhTzRPIqSIXyYtxZSodAl4H1SLxBT15aPTKqEoxopPonpqkphhw/GyRcwsBcW6Sa0Cy4lLkAxmmYiTEvCnEf2aokzrkIV4gLEpUClTdcpLdYXl1toq/boWWHijyidcTglQBDMUhSSzBaVgKQrfVJB94oKEU+x6p+10UliCunUqnmAm6Ug5pJP5SgkJP8A9ahs8bEp8NCdUoPqHaOE1OJwyOL8Mz8kHGXIrYfTLWcqApXQXbqTtDzw7w4ZV8wVN56iWN8p3UdCRpseXyUSWSCBuANG/SJFTLZU+5/X0EJULjfSywkMCN7HV+d9YtSqoWvr0a0LmFSSdST72hgp6XmbdQC3o7xdM8WzOGpdSb2Y3I2J5fP0tGa5jDMqw0tzIsANgOWwiMyiVBIJVy/6T66M99vaFqdxCJk9cp05ZWoCgcyj/l1AvZ4lnghVYgZuRGRQlo0YeFRe6lXGYva72A0jY/Z9RSyClYKZYmIUtLMDmACviPrCFh1XkGZ3BIyjRhud3hl4IxcqVOZyDL30zjYejxaHDGMDqQQ4n4bkiaEUsxKkpfIkJ8KC58Kj4swZtc0J3E3ZciYCQUy5pLqyZhLfY5SLdWLX0izS1aZalKfNMQpZyhylNrBRDlRNnSGbqbRVrZ6J5M3vVSVslWSYt5LOyQbO7nRLuSARy09LgjmTfX2NLHgWVu+yrR8PKpUOZgUGZQUT4C4TmQs3KSogFKmYsxLkD1XPe8OdZwV9pp50sd0kKSZcyaohIJIdSQFmyjZT5VMNg4jWmJpNKO7UUqCCEhQUFiwAy5g1wANRFtRpHiW4HqtLtW6P5Lf2uMhXiFVWOAxInFk7GMtGPQ4U9UlwToC8GOIOMJU2WEJsrT+kavqMUbeKI4wRJ8artoOcaeky7JV9TV0WXbLaWcb4XmMVHMU7Qv40UypQCrHbnFfi3t1mTUGWgBtg0a9kfaJ6nXmUBcB9P3yjRnljHpmzl1MYdHN2JzbwPIj7UTHJjCO6jHahFn0GPExGTHhF6PURqi1QU2YxGaeL+EqYiKzfHBeL5G/C+HQR+/6x9xHhhg4gxgdaGEW8UrAoRz88k9w3UWjW9RLyxNQ3gjWUrvFVNK0Pb7QrtVl9NDFaZhpe0H8JaDkqkBhGeocHQZRVBP8Ah64kFNV93NVkkVSe5WqzJmeaSsk+VpjIKrAJWomOm66iCSQcxIsxsHGsch1FCAY3X2adrQAEisWpUsBpU8jPMk6AJWfOuU1tyizBnEYWvisvx+RLPi3L7mxxLN7sPnFmkpr2cnk1z84iTXySQEzZawbgyzntztp6FjE03FAA0nMH8yzZZHIN5U9NeZMc1JNPkxWqdMMyZak/flZRqe9SG9Q+Z+gB03ixU8RSkf8AMqTyQO6QP+taVKU3ISx6wsSKcG6g3yeMMSxnu0qygWBYfePtuIrZATmcQTajMkZaaSTcS8xmzBukzFFSgH/CwPKwi5L4fkqAtly6KSWUObnd413S8WAMC7jV/qLWg3Q8Tk7KYD7qTePIns2BhGGgkJClKdkpB1JJbUQ9YhNFKZEhBGbN/Pb8ahdL/l0hW4An92hVWtLKDophfxTbvMyuxTLDXbzFtjFEVKpi3HiZWZSiQHu5MHhwgsJUxhTQBKl6KUVabws8W1EtM2SmfMMillKP8pEiWJcybMcqmqnAqUJoJZIXks7PmzBpnSimclaFpJLunL5C3M2J6ttCfjdWUlaXIL3URd3MM4MrxM0YZXilfZsDBpUpSUyklpQz5pypgUVgjxJygqCH0ILuDobRUxzhaTPkThLdSypkg7ZbJZhpy1t6wp4HSTAiYtpQUUDPNmNKBCT4fEBcgk6g+sFqDtFppIUkzJIUzkyyohxuUnU+hA6R0UckckKlwbEJKcefJq7EeC1oLXBEAa6lVL5n9+8bOxPj6RUTPA52UpmHQ/WIaqmlrG145jNBRm0jmdRDZOkaeXi6mhYxirUrnG6KrhpJ0EB18Ci5aBptOwKkaak4hlN0/KG6h4yCBcCDWKcAPtAdPZ0VqYwdTTJeT6nG+aPZYzTTmPhRH1q0bZikQVw6geBkgXhywFMK58m2NlJSogTgxjBOBXjYtLh4aMk4YHeMX9YwayULtBgpaLowMiG7D8PTrFurpQQYSnq22XWVGuKmjECaicA8FeJZ+V4R5tWXjT08HONhVMNycUywao+JnDbwh94SYMYTJuILlwRqy7k0uByFTmvF6jmwIlm0YJrCDGTPFYq5s3h2VYkFBchTBQBmSlNc/wDMlk9QAtPornGzaJQSdXjm7h3E1IUhafMhQUD6F29Du+0dF4bUpqEJnS2CZjul3MtafMgk65SbEsSCCweOY1mLbLchHKrdl6fV73+Dj/eBs9QN81+eVz05tFnulKIABJNmH7sOsX8KwWWFAzFg8koGYOOZLAsW8rg84yxboiwigPnmMtOqUEWPVRFwOm/xENGEYgpSj4jLloSVLUlwEIGyQLOScqU2ckRInDpavvkJFyySVf5QHZ1aC8V5slKk5A6JQLtquYtiylncJvlSGCXOpUom64LFbiXjkzlP5Ujwy0O+RA0D7ncnUqJO8DqfiMgb+wg+vs+UEheUsb9fhtC7Pw1SbAfKCJPyE2NPkcVKVOyGWwKkguTEnEWBgJHeTEd41mMJtfUq7lHdkpWgkWgVMwaZNBzEktqTb6waKVfcecT5iPFoH8tS1TG0vYeg0hOxCdLvbeAmO8PLlKLKf4xUwvC1rN4vKbrsn3WkOeHVoGjQxYfiZtCvhmAqTDXQ4WYBbZn5JbmMlBjQAa0G6WsQrlCtKw2CFNRqEWXLFkr4HHDcKTNLBL+0Dsd4cTLOjEdIP8N8SCnllkudXLQDxfHDNJUoMI6CGjjst9mzDRfBbPzvlYIGgJimF6ww/wCLgBoGYnXgx0mKU0+SIyAFJRXhjwzws8BJVYBGZrIanGUuyex6kYuGjOfjbwh01cd4JitjOlpqYNxHHDuIcsTVvFdjGtqrFC8faatJjz0a+Y9RZxvEcxMATBaooyXgPNQ0auBJR4GE7LdFKcwxU1LaAGEKctDpSSjCmqnt4GquJ9kIcRiihLxfkyS8H8Nw0O5jEyajarEJ8E+A4daNu9mOL5UT5HgK3E6Xn0OUETUhiC5SUqZ9EK6QgyWSPSBNTjplqCkkpUkukjUEbiMKV5mLHQczHVqSU+FCLZghLFWwCleZQGrEt0i5RrSm5YcufvCdwXiRxCWZqCo9ykfaUpt3Si4Ci1sk3KSHYDQmwKj8nEQpki4tctt6MfnGdPE4OmBcKGIV6WDG2p9ecXsEwqZNWlQH8sFySQHAayep0jHC+HkhPeAZ1MWSdGGquuVw1jrpaCfC3EeecZaEklDBZbKbh7MAMoB139o09Lod9Sk+DS02lUvjkBMersRl1PfGYgUQQULpRlKU6MoTLrWv8SlHowAgmnj+TJCjMALh0+/7HOGXtF4slDLKSgLkzEZJ7m4JDBidDc/2jTnC/DmeSqUpyZa1y3WXUQkkAn2aHNfiUKnH9jUyYlJbvIXpcYlzAZifIVPl5QaHGQWghCAG+cI1Zh/2ZK0O4BcN1ihgnEgdgWjOw0nz0VwwVWyzxBI71yAx5QLwzDSIZa3HUJTmPnOjQTwHEZS2syjrFdRgpbo9C2q06rdEDUNAYYqOlIhppaZHSLncI6Qgkc8xekSecXZAgmuQnZox/wAPEHi6Krh2Q4TW5l5VafWLHGeTKyNSNopVc5MsE7tAyirwouoiOjw51LHT7Op0+eMoWz86a+WUwLmzyd4a6mncQEXh1zHVY5xrkzUwW8WKcPFhVHE8hIEGlPgLaPiaXnGFUtonXPgfVVDwOPLKkExd4YsFlCFwCL9FW5TF8sbjSK1Y5TKMNAKtwjNFylxi0FsKAUYyXKWPkpbRU4c4RuDD7TYC0EcIpgBF+oniOd1OrnklRb3n0hfVhV4mpzljHEcWCRCziHEA5xOPFPJwUbbDmI420JOO8Ra3gLjPEWsLFTVFRjotL6ft5ZaOO+x34P7S5lJOExBOQ+Gah2E2USCpChodMwcFlBJ1AjrrgucioRLmodSZgzIZxmHNnLciOYI2jgpMdIfwvdskuSRRVJCJallVNPJYS5itZUw6iUtTEK+6t3sskC9U0G+G7GviX9F3jTR2griSmo5CkzEhdUE5sugRm0lqDg6MSxOrHSE/h7tUTMJV9nyTEghJQsIChdirMkqtye8IuKYarvZilkkkuSbl736wVwPBUrU5OVIDlV/0+QjlcWtnuWOuFwXxamW5Q8DzSTMxXMWlKiAVhP3HF9AS8a17O+1CXiU6oUmWqQoLZUs3AZ0kj6/1h8oKSXKvL8fqosfUcveFmg4TTTT5kyWhMsT1Ba8uj75fXeNjUNSxOzbauJ94pwnMtaecCa3gJFGkTVqJKhZOw+cHhVvOUdgRA3tV4nTNlWSTkYFhGJipqmCx8RYKkSJZGZd2ukc/WLuEBKCVgEE/KKHZxgSZozqcpHlBjYM6hQNgPaAZJ+EYmr1FvagPI4gJPKCYxTrEU/CEq0sYEnA1i4uITMkZUYl1iemxAneE6aJnIxYlVCxsYImV7GTElhdhrFHDOFC7k/OKKMTKLkX6x5XGraQeLZblHD9OXiVVOBFOnq2aLM+tcR3Mk0zU22Dq9LQHmVEWsQnEwHmqjTxQtcl4oknVMVyqMFGPkNKNBUqJ0LiTvIqpjIR4kv00+8OuCVLAQg06oYqKsYCEtTj3IDkQ9f8AEBG8fDxA+8Jk/EYqTcWaMv8ARqQBIaMTxF3hVxOt6xCvFn5wKrat40cGn2jEIlWZNcxjGJMZRqheydMfZcRpjNKoEeOhOxjtnzJFLVrdgE089ZuNhKmK/CNEKOmh2bqvA+FyaczJsyVTouEd6sJMwjUIBYq6NH5rAx0j2NdssqemTS1qjmlASqedNLyw5AAWdtmJfSOX1vpkfc96C/dL+z2PHDfukb4oWN8xI2L8ofZlXL+zJ70jvADl5tGt8TkIplBIQr8SSlRMtfIjoRpEeJUKlJM1a7qNkvYRl5rjjaSs2pcRGKlmBSFKA0DPzjWKsXGeahbZVKYPzvD1glU8tQeNV8T8FqnKUxKTmcXjLwqnUuCMeN7B+wDE+6TkDtsRo0T1dfMN4B8Fy1SRknXAsFxsfB8JTODpIKYWy4pJ2ujnNXgeN7hapcZKdYYcOx1LawYm8Bg7RW//AJp1gKTMswlYqlXKGDC8Nl5TMmFMuUNVktfkkXzHoAf0InC+FJUudJlzV5DPKky3BaYtACjLC/KJikl0pJBUArKFZSIE16JlfM8I7umlEpSVWlyUOLnR5i9SPMo22sDLkcaiu35/8+p9B/xj/HVq29TquMUfD8+fwv7M0yArLLmFMwrzGkqgnupdbLlglSFpypTJrpKEkkZUpnJGZLHMBfRwgiM8bxUhKJcq0iSGSncm+ZajupRKjyD+rz0WMJUl9CNRHQYdHJY98+32vH+vyvqU9fjgz5P+BLbHhS8teL+tdJ912fnlheFldoM1HCigHgxwZSBx++cbErKROSNvLqtrMpYFVnPuI4URtC9VSCI3TjeCgvzgRRcFBZh3Br0lyA2c0jU4pjFukwsmN4SOywNpFafwEEQafqMK4CSwTSNUowAxHNwMxtmm4e6RfwTs0XVTEy0DU3VsPWFX6mlywPtyStmjThhB0JgxT8JVBTnTKmlP4ggt9I7h4O7EqSlSMyBNmsHUoOPaHqjQhCSkJQEtYZQ0Kz9Yb+WP8iMsqPzfVw9PJbu5jnQZFX+UV/8AhaepYliVN7w6JyKf6R+k1NQyyQrIh/8AKImTRIzZ8iM4DZsoeIj6xL/qv5K+6j8+6LsAxCYCRIWG/FYwp8VcCVFGWnS1IJ5iP0ymzNYV+JeE5dWCmclKwQ1wLehgmL1jJu+JKvsWWc/NWJAmN6dsP8OS6XNNpgZknVSRcp/2jSJktY2I1jpcOphmjugNxlasxj0T5Y9li9kkfeRmlceUmIY8eN4dk38Qcyny09UozqUskKWcy5A5oUXVlH4X9Gho44/iAkFS5cnMuUi6JhtnPobho5oePqVQlk0eObsIsklwdFdmHbeVzcs2wUbdY36nKplag6ER+fsqaQXFiNI3X2X9vhkZZU8FUuwz7gdYxdf6YpLdjQ9h1LqpG+eLKCaoNKHpDX2S4+mSjuZhaY9zzJ5xNwvxlKnS3lFKgRZ2tGneJ+Jvs9VMBPn3Gx9YxMWNyTxyC5oxyQaZ1R/ibHmIlTjYMa84Fxtc2UAvUDw9RE2KqnGyUsIzckHjdHI5cbxypmON4mmYqaJgzyZhSFIJKSyPJMQoXlzUEZ0LTdJO4JB9VYrPqJaJXeLmiW4ExSUoXMDnIqaEkpMwIYKIYEupk5jEGFcIrmHNNNusOJSmUmwhPHDb3zzf7P7fQ6TX/wCQZtTijghFQhGKjUbtpdbn5/gQKDEFSCUzNDZ4p4pxIgE5Tc8oK41hKqg6H1iXCuy5KSCSSeRvGutbNR2syYa2SjtZ/9k=;" parent="1" vertex="1">
          <mxGeometry x="355" y="355" width="220" height="220" as="geometry" />
        </mxCell>
        <mxCell id="ugAIHgSxgHmGyD-dgIst-8" value="" style="shape=image;verticalLabelPosition=bottom;labelBackgroundColor=default;verticalAlign=top;aspect=fixed;imageAspect=0;image=data:image/jpeg,/9j/4AAQSkZJRgABAQAAAQABAAD/2wCEAAMCAgsLCwsLCwoKCAsKCgoKCgoKCggKCgoLCggKCgoKCgoKCgoICgoKCAoKCgoKCAoKCgoKCgoLDQoKDQgICggBAwQEBgUGCgYGChAOCw4QDw8QDxAPDw0ODw8NDQ8PDQ0PDw0NDQ0NDQ8NDQ0NDQ0NDQ0NDQ0NDQ0NDQ0NDQ0NDf/AABEIAQABAAMBIgACEQEDEQH/xAAdAAACAwEBAQEBAAAAAAAAAAAGBwQFCAMCAQkA/8QAWBAAAgECBAMFBAYFBgoGCAcAAQIRAyEABBIxBQZBBxMiUWEIMnGBFCNCUpGhYrHB0fAVJXJ1tOEkMzVUgpSi0tPxNERFVYSSFxhjZHOzwsMJFkNTdJOk/8QAGwEAAgMBAQEAAAAAAAAAAAAABAUCAwYBBwD/xAAyEQABBAEDAwIEBgEFAQAAAAABAAIDEQQSITEFE0EiUTJhcaEGFCOBkbHRFUJSwfDh/9oADAMBAAIRAxEAPwAd9q72ouK/yrnqWXz2Zy1GhmHoU6dGq9NVFICmTCMJJcM5LSZYjYADPlP2peOq0Hi3EGkEAHNV/MXHi3wQe0LnD/K3EhAMcRzk+v8AhLj9mE9xvKNqU+7+7fb4TjHMyHGRwcVl5JnaimfR9qfjcGOK583uDmaxPlaWxNy3tT8ZbSTxXPwJ1AZmsCfIHxT+/CVOZkkDcCbbEDf8r/I4inNH9/ri71+6p1uHlPWh7UHGJaeK8QiDH+FVgZsfveU4iP7TPGSR/O3EIv8A9bzHlP38JSpnGjfYyD5YtMjmtcRAMGVtMjeB5EXFt5HQYiQ8C7XznvrYprZr2meM7ji2fHp9Kr7f+bHjI+07xgmDxbiGxj/Cq+//AJsLem0QfI4+0FE7RikyOA5Qxmd5KcXAvaW4sy34pnyR55qv+Xi3wUUO33ibxHEc8JH+dZiPj7+EblKtjgq4PUJUDoL/ABJwkynv5sr5s7vdNOj22cR2/lPOt/4nMf7+LCn228Qj/KGc/wBZrn/6sLfhiXUkTO46jyP44CODc3MlR9Xips5MDdZNyPME7qflhcxksoJa47fNXd0+60ZS7Xc//n+c/wBYrf72B3n/ALbeJrTPd8RzqGLaczWG3+lii4TxKYKnUp2I2wH89820i60ytRSSQSIgfLc9PLfFOIch02xOyKhjkl+EppcM7XuJ1Mr/AJSzyVYUh/pWYBOk+Ie/HiU/iB6zN5I7VeJsuaB4ln3cUNVMPm640kV6ZYjU4uKesT0vih5ao0zQQEzrA0naQfL8MDHIXCK2WzprNodSj0yrnUrpUUoysoMwVJBggjcEEA4NizX/AKjXvqt0xiALSx53RZX7ceKL4f5TzrsbQM1XYD5lon4bY6Z/tt4oC385Z6FUCBma4GqL/b85GJuV7NPer5cGoqhmFDetTYdIAHfU1NxUprsPGiWkDrKADrMajJ+E/mTgf87JdBx/lKpGvjNOUjLduXFQCTxPPkmw/wAKzFvM+/j1Q7c+JgFjxPP+k5vM/j/jMDmczyHUQLLtNhHTAVxrj+rY+EfnhpDLNL5KoMleUw+Ie0RxWIHFeIKTcxnMz/xMQU7f+K/968Rb/wAbm/8AiYVz5qfPFvwehJvfr8sNC5zG2SodwpiZfth4rE/ynxEDefpubkn/APsxPz/tC8VpKFHFeIFiJac5mTE7ATUPTfAe+dCrqIkx9Wp8/vEeQ/M4GqlcsdTGY39fQYHZLI7clddJXwpm5D2huLkyeLcQ+H0zM/7+OnE/aC4sTH8qcQHwzmZH/wBzCuGYIvN8S34jKes46XvvkqvvO90zv/WI4oCP504hYRH0zM/n45J88VKdvvFmYzxXiJv/AJ7m4j4CpGFxTY3+GLLIQvqepx8XvA5K53XHymVlO23igN+KcRPp9MzX/ExNrdvPE9zxPiAA/wDfM1/xMLelX1ST4Y3OPlZy15gCwH7TgTuyHyre873Rse3nizG3FOIC/wDnua/4mG57N3tIcTpcUySVc/mc1Rr5mlQq069erWQrWcU5+tZtJVmDBlIMiJIJBzdSy5jBx2A5Y/yrw0NseIZKP9bp4KhneJBv5VsUrtQ3Vb218dSpxjiqKxRv5TzwGsgAsM3VHhO0E/Z32INiMJ7mfjhBAAuNQM9DNx8sPPt54NlU4jxt6tM1dPEc+ysHgioc1UAUxdfEda2vpi84S/NfONfPU0as/evl0WitQogc091Wo6KDUYGYapqaNVzh0Io+4X15WhyMOOMarCp+D5hSST1WN+pABP4EnHisL4HKlCN8dsjxQrY3XaDuPh+7BjoL3aUsfADu0q4Jx57wqyuN1IP4fvx3oUNV18Q9Me6lCLHA5NbIXdpRVRho0zpa4JESPxj43MGRjy2Tj53/ADIxXcp5kkOhNhDgeUSrEfiCfhPQ4vAkiNoP6/75wnlBY6kumbpKkZHMWwZcLWSOg/icCnDcod+g3wVZJIBAa4EjpN4j4YR5O+yraFYpmvFPr19OmFjxnJlKlRYgBzp/okyv+yRhnfRmItBOkGDa+md/L88LnmvJOjsz+INEECwt7v8AogfMXxPp59Tgpc7Lpy1xeqjE0yQv21Pun4j92L/ieRo5p6c6kJMCLwQfEs7C22of30/J2alTAmGIO3lb1H4RbfB1wjgYp6qhABYCFGwtdo2k/q/K7JkET7GzvCtjkdG5SuYs8EcLRXwqNFNd9vje37cRM01Sk1NqjBg5hovBNwPwxwLlmMCCAxp+Z0RqHncHVPWD8peQywzCMg98DUh9QRP5YUFtfEOeT9VMyEm01OE0Wr0gqVTRr0/FRfVpBH3C3QzdT5+Uk4gJwqtmy9LOZQmsk/4TRZabkC3jkGnVPoy94x+0bYDOT+PFVhpDISp9CDg84TzPUDKVqEKbEnxBQOhABMfDCKR0uOXNaL9j7I2OcPHbk/lLfm3sIzDz9GrJXUbUqg7iqbbeItRY+X1oY9F6YTHGOX69FilWk9Fl3WorKw+Rgx5HY41zxfiIFYzeQGJEFfEJtBMgjy/Zi5z1JatPSwGYo9abjXokQSje+h8mQqw/WxxuvPipszNvcIQgAkFYhVun2sX3B5SHcWjwr971PoMNvnPsFqgGpkqrZldzl3VDXQb+G0VQP0AH/Q64VL55gIbe8iwj5RjXtymZDLjIIXz9IGy81nLmZuRP4YhZh9gNh+vzwQcA5zpofHT1DaxE/qGLHN8Vyr3p0viurS3y6H8cUh72mi017qrSCLtBtXHRKQVQTeTYftOLs8Wyy2ajUHxOLjI8ZyL2ZXpwN9x8MTdI4b6SvhFfkIUo0RE/iMTstQmTIVRux2H9/kOuLDMccygBVadUgxckTby8sQszxfLkBYqKo6W/E4hbnf7So9v5qFmc5Nh7o28yfM45/SfLElK1HaH/ABGPVDM0lMaHB6EkH5jE/wBlAMXKlQgAt7xMwfythj+z9XnivDL/APaOT/tVPAXR4MGk6m/GcGXs+8PH8q8M8R/ylkhB3/6XTx2Jwc8V7q6Np1BevaKdl4vxYgEhuIZ0NYQR9JqSDNmF7SDHTCiqZsxAAUDZQABf4R+JxoL2i+FhuJcQbqc/m5APnmal/wB+EVxLIQWgbYsbk6nuHzVssriSCUEccyMN6MAw+eKTM07/ABwdcS4drE/dAH5YH+JcvtG2+2H+PONgSjsaYH0lC2ZrEe7I+BIxe8GyZABknVuDtfaPXFLVy5BggqfIiP14IuFZ0MADZhA2sw2+RH5jyi5sx9OyPlJ00FbcAY99Ti8tpPqGBB/2ScHPD8kXYCCQN+lvjf8AjzxV8ncpOCKr+H3u7U7mRGozECCdPmb7ASXZCrFtgPLe+MnnTjVTUimAsK6yHDAoEbEWvJ9QfWd/x649Z3h4ENbSyD8mIIn0sfmMdODUmIkAtpJNhNjH4XH54nnK61qUirKTD0iQffUE6T6ODH9IL5YzBede5QhXDgp1oyzLUiIP3qbE9P0WtP6QHTHvP5VKmqm6wCL+ZidJB6MOh/HczVcjIy1iGDKGRlJj3YIYEyQI1KATPXBLnOGX1O6kdNM3m4vbT+B22GOPPbk1AqICFOz/AJFFMVCT3gD+8JAMA6Vg7kSS3QSILbi343nN5MEC/oJA/aMG/NuUanlFzAFOmrjTRR3WmGP2iha25kajLeJpi+F/wTKMUY1FKt9rYm8NPqBG+3kcFfqTDvv4uk1fhSiPvOGy6cLqgFXPigiCPgJ/HH3gtLusyI90VP8AZJj8Cpx27oIkdbnbodvFPX0xE5gqGabCYempgdSv1ZJ8/cxBw1bIAbo5zPC1TM1FNhUSTbqpif8AymemIFKmUaV2mGU7QLEibg+nxwSc26jTy2ZW57tdY6lSo1mPQ3Mbb7A4p0zkkx4ySGFt/TyvOx+GFDha48bqRTqXvbyYXt5fD0O2LKnxRqfumJva4PqDvB6jFTxDLypKCPESyHdItMb6T+RsdxPXLcTlRsd56xhZNHagCiPI8wh7le6fYsD4T6xuD6i3oMCfaj2cpm0evT0rmUAL3UU8wAQCSTASr11MdNS+oh2Be84fn0YQ0HewABFuuLrltUDAyGU2ZTJWDuGBsQwkEdcV4+U7EfrbYHt4Ug4nlY14lRZGKMjIymGBFwcRxh8e0p2d0su9DMUHdqdfWpRr9yyaSKYb3iuloTXLaVux6JpqQP2Rj0/HyWTRB7eCvuFxocTbZgHHk3798Sxk1b3Dpb7jHf4Hb5HEM5UeZH8fHHnNLMEdYB+OLjR4Va6VqRBggqfI49qvpIxIy3Gbaag7xfP7S+qn9hx6zvDyq6lIdDsw6ejDcHESSuKAcsfs39DuPgf34s8nnQLNuPPcYr1r/DHasga5kHaR+3HH+rYqwFXtLmNV9Zwfdg3H0bivC7X/AJSyMf63TwoafCgftR8v78G3s/24xwsHpxPI9f8A3unjkMDNYKuicdQTm7eqajiXEVIN87mCD5E1nP68KatkhJAAmD03w3e28k8U4l1jO5oAR/7d/wBmACrwN5DU1JEEGSLN5X9MZqSTTI4XW6hL8RQFxDhZEWjVY2jrioy3DST6jY/DBjncqyDVVteFU7z5ke9ET0ucQGy58LRHT4jp+GGUc5aLUGmjsl/zXmmrVWeqQWsthFlEC2PXB8mZBiAOkC/xnDEy/Z9Sqd7UastEqbAgXMD16nAmaRU+Y8x1w3OXrbQKaOLiASeUeai6U2Avo0wB1XwkR0tFvI4+pldCz7rE9fLpfFDwHl18zNFGIkajchRHU/HbDh49xbLjKUcrQywodzaq4g6qseKpUbSGZmWNAJgKdI90EoZg2PYnc+F82EFpcSg3gtU6wSfDEEfEQY6euCWksWIDi1+uKDIUZGkGNJkHpcdRv03EnFxmQyrP+0tx6XGx+N/TCOf1HZL3bFWr1CdILGoNPhDGVX4Az8Jtv+ETLspdtYbukHe1WUSQASNI8y0gLP2iNhJx94PmC4QgXupvAAAnUSbQFnUTEAT8LrloU3o1gi1fGCKVUBAS2pdVZVeCX0A92qsIpHSSWdsTgit2/CddH6c7LmAr0jlGHNPIaceyGW7iomWNNtXctfSCpVFEbSoBBi+F5W7PXyBFFiWhWUyZsApEQJHiLHp7xi2JfZDxqnlKxpszt3Rovp1SSUBsmkQ6rSY6hum52BJj2vc1LmcyHTwqEAMEG8j3gOsfr9cN5Xvh/QHwchbfrc0MOMYq9R2H7JUNVRqdiC67LBv0gE3ImIxWcxoAtMH7IZT8dWs/H34+WLCg/hgCD8BO+07i/l+y/HmrJkBLH3CxBuLn9w3kYHBsry0bIrzdcnh1Bw16dSJ+BYD5XHpH50GdQOne0hp0kCqgvoJvqHXuzFvum0m2L/hGWLcLqXjRUB63GtZ+WAvh3E2pVJQzMqykSrKTcMOqn8txgQC7+q5J7oj4Zxwhg8jVcGTIcHcRuZWQwP4+U3ivD6c97RDaQfrEO9MzG1/Aw91ifQ3Hih1OCiqpqUbkXegf8ZTj7o+2nqALRMQcQ+G8QYNIlGUTIsTNiCSYIvcGx6g4Gc0KpXuQohXDoRBFwfI9IPzwW8pIv1ikqGgkAgyChmx92CsjfywD/wAvIhUsko25p2IJswvK2PiUCBH5EOT4wlqlNWKg6tbMi1FOxBUE+U2N8LJ4SRvwpN5Xbtb4I+cyQpUAlWqmYp1Fpq6FmUUqyvpJYAmWTwgljuAdJxmbiHBqlFylanUoutmSojI463VgGHpIxqzgPBaC6SrNUOqTrYEAdIKhfPqLeWDbMcRp5hTl64TM0mRlFOoiFqeqRqoVSC9N1sVKGAQJBFsG4fV48YCBw9Pur3NDtwsJVqf4Y506I2JsY+R6H5Ya/PXs/ZjLo1VKlPNUVeG7vvBVpq06HrU2UBQx8Jem9SmKhCa5ZdSrzmTK72xt4pmSAFjrBVBbSh1skQ2mL/r9RizoZs040gC3i6hh5EbHHoViUDRJSx89J2PyP68cFafwxcXkrhUitkFqAtSGlhdqXp5p1I8xuMVdIHHQAg6lsRcEYs3prVuIWp9pdg/6S+vmMfXX0XyiqfPw4YfYCq/yrwzVc/ylkdJ8v8MpThe08oPvbYPuwemF4twsRtxHJQf/ABdPEoj6grYhTgm52+Uo4pxCNzncwZNh/jnbf90YDUqEDwnSdJqAXPiCyF+JNh64MO3154pnxb/p2ZHr/jmv6R1/vxR5rLAX3IiN+hgdRPpv7s9cZTIAMxB919Ju8pUZ7ipaCx1sXLsT6f8AM4uMxVHhB63t+X4nFJztl9GYdbKPCVGwhlDAjpeemCPs74P3lRWjUqbyYiP14YTAMYHeFECzSCuOOVq1Adw0H0PljjVzlrjfpgw7YaSLmC6jSXQFwPvC0+mqL+uAnIZQ1GVE8TOyqoG5LEAD5kgYOiIewO8JiOKUnhmrUBT1ybAJJY+QtcycMxeXalOiupgTUOthqnSRKhSQYJAufjHTFnlOVVy1QogLQoptU3NRoHeEEbU+81BQL6AsyZJl8X4mFAAOohpJgaZG0L+Ek+8bxhFl5ep2lnHuoFwbyq+ghVR4YSATYST4r+aiGtj+ymbJYlfdFo6HzB8xiq4jLTB1km8XNyB8fywV8ucJ7qC8F2g06ZIIJLBRrUeIwxHhAIkgEiYwHp1bjlTgx35EgYwcoo5e5Odk0CmfEUd4lV7u8QT4ffAZ590aP0tKo597Sq2Qb6O9JFNOsrEhAVq0KlMOgUnweEEe7BkkA2OHjy3WdKLkulQ1SS/eamChyb+G0lQJVbFrWtgXz3LdPMsUzrLVpvTAJQHXT0Ug1PSFSFKVZBKtBQsDYg4YYT2QvPc3C9Jb2OmxCPWA/wA+5Su5V4jmPpVGoyGigos9NygmpTrWkT+iAo6iCbTBZlLMUldiab3VjdlHuqW+7+rEnJcPULTVgQlKmVW4J0qCVpqY2JMXFpJubEb4xnj4psICCBBGqxF4+xqvizInErwQKA2XnfU8381LqHAVZkc2okqmozYt9na+m4J3gkkemP7jl2U6mllnUYBmWG/4eWPXBspc+WwnqfKOh+Zj1xZ8wZEyvgJ6b7He9rC8noB64qCVgqXyQ7fQMzDHUjiDN/s/H8OuB3IUhU1eALVAkRZXAI1AKNmi8KQCJhQRcz5Fyg+iZxRfc2II92LEdPT8zhdZqiRB8Xh69VNoPwtbb44HHxEKMh4XWlmWVwyMUqKZGmQZHl1+I+V5OCrKcZoZhStYrlcybLV0kUqn2g1TTOh9wWC6Tqk6YOI70VrUzWBAZAgrLEXmA4i8HqOjyNiJHxkZnaRtdQdveA+1t0xyh5Vdq/znD6lB9NRQJUkTD03B9x1N1YN0ZSR5dcFPK1elp2QQTIcKRJWTBIIibgHpaTvgS4JzI9Id2/19LfunJ0jY6kO6N1JWxjxK1gC3gHBaNa1OsaDuSBSqwviEGFcfVmAR90mbLsMA5DbFBSb7qyanT1QumCsjSFAB07iItq6RtbH1s2xC2C6bah5evzv+OOWc5CrU/eVjbw6VLAwOhHnI264m8sIQSjFiXEadDE/AgAmRb5x54z88RAtFRRukcGtG5RbleHUhQzLVH8LZPNCqJtAy7mTI3DhGUrcOFIuBjD9DiRceOTNpO9rY2X7RfDBS4YVpq6lqlAV7LHd+MEEgkgCuKYZQbsROwGMhVUsJIIPpjX9ANY1k3Z2+SvzIjGQ1woqBTpGm3mOo6Mp/ux/VuHAXF1N1Pp5H1HXExaYYaRuNgevoPhjnQq2KG3VZ+95fPGm1FLlBWhfHyrTIuDEbEYlZSjOodYj88ezkNpIF+px3V7qIXrKEVNwEfoejfHyODPsYBHFuFgj/ALRyV/8AxdLA3w/hpmYDDpfDR7GMgG4lw4kXXiGSIPqM3TxUyYCUBGxN9QV/225pV4rxElyG+m5kyBt9e9p3sPLAvw7PII8QcgeEmYItC9QSNumIPtL8wRxniYj3c9mV33+vb0/fgCyvMBmJAEyOmAsjDcXOKEmdTyiTn7h61SjCKbJKyZgiZAtMwSYMSZPla15ezNSgqotIuCSXqKV6+gllA/SIPoMVGY5jpvUp5Yzd1fWDYtohUjyMmDPvEW6jrxvkisKve0tNUM2vRqCt71x4iAb+Rn0GKw30Njk222v/ACrWDyhrmnN6q1QsdR1sL+hgfIAWwxexPkJwfppACUge4JvNZYlwsSRlwRUJsA5p3vgS5a5ErZrNdwEKu7Fn1AhaS7s7nYIB16yAJLAHTfHytKlTy+W0aaCEIG0lXCoWqF7GTUAeowIg7bRFObk9hgjZyf6TKJt2lTzJmVHh1ajuCOh6R+flin4XyzXqGag7pSAQzyCwOxCAFzIuDGn1waVlqTc011EQtGmq33+yqwvnEztEbeRSIlijVmYwx90JF5Jm485X5+aFkuhukblQLLK5ZNKNAqlLvKuYJAaAIAIkrqm1o2A6gyDGJy03LgiglNtQ8YiyhpEA6QxV5JidQgR4RiVQ4ass1LMKtQqxLKwOljGlZuDtPvCPK8498q5DMVaaVcy602ol07jTTOsaZWrrQggAz0gkbycHxixrvwt30t2PBGXAjXV0onNfNfeNpp2p0zpVYInSANUm7CLjrHTEjh/DQY1LUVmWzhigEaifeEyVA2E2NxfFFl8w4qhiWWDeIAgHyJ02HngpqcdDydaqPECHkkGNwRFj003E7WvKOg4WsVHmtky+/kixe4VR2gZPuatKirmrqps7EvIXSRuetzuxtE7TgazmXLrcnwksLTvY/Ei3yk9LlXMPEaQYaVDuUu52I6aQS1g0zqudrYqeHCXBiRq8Q+6ps3oAL+S4LleHOsBQ6pkQzza4W01fOD5WwgyYgiP3+kD5YqObK7aIQEsJBk+LSSZKqCZPRpnTNh4pF3xPi9KkzFH74yYCghJ6amaDbfwggxZryArjvFixkAIQIlS3ziSYvtGIByUgpj9n2WKZDMkWaBqPkSv5ET8iPlgY4cVbTrnoNS3+CsLz0giGAixsAa8vUinCqpsNZXcTMqD5HAhyBmKa1qLVVVkFWmXmQukN4iYIEASSIgx8cDO+JdeNTg1RKeSqUw1RBElASRKMpDllgiGBgSDJt0MHEXNKtQ+Cz2mmdxH3CfeXyE6h5GCcEvZRVzeaGaZqqI1OrpNNsvRKnS7AjRo0qoMgaFEX26/W4PRdu7zHd5GuRKsWIoVFG3ia1NjEQSR5b4Llxnx87/RPMnoOTDGJatvuEKt0J3266iF3npYWE3gRGJHDlurNGkNMmZO2oCOpAE9BFyJxM49wurSOmogcixY6h/tghWEEGTNuvhJxFJkHyIEXUlQJ8tugmBM9ZOASUgBpEPJ/P2Zy0ohNRDIFN1FVbkaoRjCyBBg387CGPwHtAo1C/wBTSpNUplWpMi6Qw91thEtcSDAg3gjCYbiNQRpVihnWyKrMm2ykPb9LTsAvWDWU6jPBk6tRjV4SR3jQIMFfDsLEb4+fih0eokbrQwxOx42ZUbxqvjytfZrjaLRVqsMWMAVRRdYKnWMwAhpOjLI0eJpJOk2Bzd7RXYolJfpuSUNlXE1Vp3XLtqCiFP1govI0kiEaVOkGnJfwjJ5k0TRq09ECnWoVw5akaverpTXoKg6vA4mAGBLRcOfkCtTcMrINFRalOpTYaYZ1K10cLBGpW0mLEaSplVYKYpD0x7TfoJo+wvynmZjS5JuYVYsfVfnIE8sWVOnr394XB8/Q+uDbtx7LqnD801KCaTjvKDmAXpkxDAWFRGBSoB9pdQ8LoSvqYYXxvQQ4Bw4KxEkZjcWu5XzMV5JIEHqPP1GPmXpE73GJ9ZNQDrY7MB0P9+OdSgpGoEj7wj8xiWocKIFqw4QAOtp2OGh2JZkfynw6D/1/Jj//AFU8KvK6beGQPPfB/wBh9D+deGHf+ccl/a6WBWtuUH5oqI0QEOe03X/nniv9Y5v+0PhcVK83w7faq5SB4rxGpT653Ml1v73ftLD4m5Hnt5BLfQSREYbGVj3Gj7oWVh1lcFzxDrU3KFSB/RiB+AjGguSOa1rmmoQnvGCqy3gk/bBmAASzMNgCYtjO+c4aw3Fv78ah7L+z76FlxVOoV66gsjbUqbEaFA3DssF5NtQSAUYsl6w6EQhzueAiYoiQm1wvhpClaRnSYZhABgSBJI1Hrf3Qy2AhnFeZqqJdnp0zpKkBgQAYBE+5tbdjFpsMTuP8306NNUdyz6SQhbTB06iFtoRb3O8dGJkoTJ9qNF6lB6qiSGcq51AfWAQmwGhUOixufxy2Pgy5PqF6futJhdPdkD/i33TS5R4Ar1Yp1dQgE6VJHWwYwCLQLXgxsSBjtR5lejnUy6sqpY6bMrMdiVYSYIOqSR5RfBBk+0mlUzVJkDldS1KmmfEFTu0sLQCfduQfjgk7WextMxT73vEGYLIVYEK6jSfA5ExJbTCrO25w2ghZBKBKPHlbvF6TBA3VVn3VDzByglKnKqoqP9dXKe7LWFhIGzeW2BvJVZJgFjpugk9Y1DfzwQ8sUi4ptUuEoCm3is/iYFmm5OinHpqtBNqh6FQkgQBq2WFHXcCJ+JJOISD1m15v19jBkudGf2C+16DRcEEzJYwB0vPnf5H1xxdYiSqi8X3MXIgHYwOnTEnL8NkgN7pMkWJte1/KfxwS8K5LrZhz3OXlUEKurSqqDZNRBLNM6jEsSdulGoDlIIYHymmCygXMU021GoVkHSIAuZ8R3HwEeuLBEaosAhUEQAukH9J7nUQLy5IHSMXHGOV+5YrVGkhvMeLqb3iAY+M+WKviHEiUKgBFhiItdbCftG9hPrgluyhIx0btLhRVNxR6QgMWa8EoJ+ckgH5SPXFDxThTE6kPfDoVBJECTqW7LHra25xctlpgEQQJ6/xtEYi0OFfWKR94WHWbT8BacdtRATZ5mIp8LorEd5UGqN4E/kANvzws6OUYQbOv2SdJU/EEEWkSpGodQJw2+1u2Sy6bSCfmGQ/qnCdyueKe4ZE+IG6GNjHmLw297EYqAtSk5RBybw+sM6mYytanl6zkU8xSqH6usNJJIAt3hCmAI8QGxkt87RqOYr1hFJitNYVSqgBCghp097LBtWlE0qF+0ZxfZHh1OvRmlTSjVo3roXbU9OJ75AxJ8EHWq3UEG4mK0U1aAp1EKw1DVJuWgaQJmwF5i8ThlHmuaKIB8LXYn4ilhg7L26grLN8DYZegDBemop1aesOL1H0ITsxCNokCwEAkqcBNbhNMGaddQJjxh1a+06VZSPmJG4GwLsvyxUp1FfSAVIb6yotMkg7RVYTNp3iZ84H85wCD4XoGRde/oGLkROoKZ3EEmCMLH2XElZOVxe8vrkrglBveRlY7ELNjPQNBIiI8MXxWDUDcRubgEyt9jF+h3MfKLLivK9SmfFTZVJN4kG1oPXxGfhiGmfqBQJBhjHeKhtA2LyQJmw2xHhQa/S4E+E8KPP8AXGQp9/Ty3cV0bxUtRqpF6QCamJZqoALLp7uJsYwZdnfEWqURVeKb6CaqiyFwoUtrJK3geZ3E2vn7L87OqqpCaRAUKiRM6jFoG/2d972w5uWOdBqYPUpvSdR3ZhAF/pJA0tckzNwbxfC7P/Uh7bW+bXp+D1T89IGaQAB+6EefeUTmaGZos/fVKddszlpcE0A6qGoKA2nuqqyZUwagQkAupKQ5f7EM3WqUaSoqmsVXU7ALT1EAF4logydAYxsCbY05mua6FcoGqCk66mC6A0qpKkr4W0Fqc6WBkq5EXkWfZwNDMzUlZqTPTABpRBXwyQhQnumUMJAD61jwjDKPLfDEARwkv4lxxFI2Ro2KRnF/YY4xSc91QpZxdtVGvRAYegqtScEfpKL7T1WPMnZHn8rJr5LNUF6s9CsqR/TK6Pzx+h/D+0rMK3hGgTYCWBHkR4dMT0BmN8NXl7tlRhFSmU6WIZSDF76T8hP7MFRdUjkNP2Waj7L9tVFfjrOnB12EZv8AnThv9Y5L+10sfrT/APl3hudDIaGUr6gxZWo0i3iMsYZNVzBJ84O8EZsz/wD+H/Ty+fyeZyOYfTRzuWzFWhXWVFOnmkc93VUC6oDCVAzHfX0LiItc4OB2tGNw3CnNNrNHtD8LnifEGBg/S8x/89jP7MJzinDQy61iV98bT0kevn/EvTt8A/lHPkG/0vMyD6V3+WFZnuDAq0Eyykxa9ukdTthSJSJD9UFJu8qD2eZnKrXRs0QtJPHpKVHV2UjSjaFYhS0FpABUETfDzzvMn0qpSGTf6S7VC9QhHVVVUdhrqVFFNWNUJKtPhNhcTms0wbbHDN9mvmIZbPoWgK1OqtQEEgrp1SYBsrqrExYAn0P2XjMf+puSAaHj60jcJ7O61r+LRp2q9hdQBalYiqkq76WJZF1MWAkAGZXxTMFvDsMLbjnZ/lqjgDvXWhTRdBAXX8NiCTJPikknbG8qfLdPOZWnWhkLoEAk6Sjg30MAJMgaom0bROSM9wpkq6SDqHh238x+F8K+n58tabqvZbXqHUxhAFjLaVx5f7GqGWy1TMGuVZj4KYAdhBUinAYzcMNUxEHbBW3Oz5wtRVCUNJBUVffKqdIdiCI8RLELFrSYk1vBeJ06cPW1PS8QYJcg6AdQHzg+mLHs044BXqVQvdpWpilTVtIcU9WoPPST0g/HDh0gfC6R+7vC+b1USYhm1UdwG+VHpUQ9KoWbuirrTRXstMhCJ8iJjSNp9TOK3j6aQoFRaYAEkKpLzOogjqYHUx6XGGbwvKCk1QVqYem3igge9cqYO8EDa8fDCq5tzBrZmVAFNAIABVVmzGDJhd/X0wrZIHADysa/Iikx9Dm3Je58rhka8iJLABADA6kEy29xNhE9emG1w7tV0E0yEpDL01IKtBn7oBvLTJa5ABjVgAymWqVjTy9BUZ6lgWgKq94qM9jcJIIuSSLDDsz/AGO5apIeqKNLL00SoxIFSrUGka26wogLO5J6QSRTI3DvBbH8OYLsZrnyirqrSb43USq7knUXd3QgDS4ESbjZTI/H7wmHmuTnmmBTdQ5JLuQKYpoQzvqNgqrEtMtNh5lme7BqaZqnQy1VmCMveu19KAhm8RMFiWsALDebT27QedWz/wBIytJqeWpUg2XWudNQ1TIUJDRIchyxVRqgAQBJKJZPKBDx5TDqHTMfOkDvPySypJUzFRwmiqq7VKbL3TbiEYWJACyCJMiJBOInDqatWpppgKZkdTMNIImfdvIFj4b2ueAVxk8xXAFFwgphwqBDUqMsu620qJAkTF+pBiv5SQPm5AMHxAEzEy0TAsItAE7+mJ5ETY3U32WB6thQYsgbE7c8j2TB7aaULlliRovtaTGqYMAQQZBERhd1a8GSirFvCqq1hEkXAMACwlT1BGD3t4zmivR/RpCRBIILGxj4fj8MCo4Nq+tpv3lNgYGzJ5o6gSNJ2YWYX6xgSIXYWffyhV82yNqQsjKQQZ8U33O3owuDscG+X4g1WlqywFAkRmFpKda1CZDarutGqJKhCArakM+AuPcS4X709b/jJ/jr+2Jls/UoK602Yd+pp1IPvUpBKn0LAbfdiYLA2OjLVEFe8zy4TqmQ0m51C4sN73/jbFJnHp0wveg0u9laVRhNMtTZl0vYFC3QgwARMSSpZy3zCpXuq5KoB9XU3ZCoMAT4mRgNIUkKpghlAbVVczcp1HUUiv0igzBtdKSUJeCzoR3qH/RCkzpNpJuGyOQkSGlpOjQY07nNnP0X1zVywXSzaW8YQk6G6EMhibysx56T1xY1uBpXQVaKmSdNSjuabRMrbUUIkgmSPdO2K7Jcs1aNDuaisSlR2oEmWFFgCUNyQhqAsga9ybBpPDIVSsjTIIuJhtjBVukGSLEXIIvhfPFpeQ3dJc6ERTOY02AomX4QS2gbGAQQQQZ8Nj1vA+Pxx6pVKuVzgUBjRqaUa91vuPVR4gdukeRHl8wXpsQ3fmnDFKqL3yrMGPe7xBIlgVYfdUA4jZjjjsZC76T7sERI38RMD1xW0ll7K3AzXYkmtotVvOfAMxkMytSj9bRrtTZCIZmDEjwmAQbjUNRVfukAQ/ezjiGp61PQ1I6KGYIaCCKtPSdgQW7yk5YyZZiIGm655C4wUqIKg+reQUfx0xtJWbKTYSBIF5th18P5jU1alOlTpotNacMRdgC/eREMQC1MKJILF2+0ZnLIJoHNeNwOVrM/Njz8Qnhw4CuAR0Ambf3zP4kSYt54rM/zQqbMCfJZJ/E2/PEDi+cZxA8ImSATfbfzwP1uHx6486myr2ZwsEGDyrZe0OopDUyUYSQwJkfCIIxZci9oObbO5WczWipm8uHXvH0uGrIGDCYIIMX6WwItw4+WLfkLLf4Zk/8A+Zlf7TTwRgZEnfjGo1qG1o2J7g4AFKbt2WOI8Q9c7mf7S2F0+WtJE23m/wAvPEX2k+d69LjPE1V/AOIZqEIBAiu+xiR8jjjwnmMVaaspAYiSvX3iCRe4B8vyx6RmYUkTy7xajK/1lUvEaA1nVbfxjcn1FwT62w1uyHsTGYem1SrUptUUlQmkBab6lltU6ta3AUABSJJkhV+uT1EliCBaBvPpjX3s48D1ZenVYSe7KJH/ALOvVpBfiEpoZiLne+FPUct8OOXM5TTpkBnlo+N09+E1lSmqC6UlWOh8EQAdheMYq7VOfC3EWopS0KXgeLUr3AGmB4ZnxBTvIxufg3KgakS8wy+Jd4npPp0gWxTcI7H8irit3YrVEko9SGKyZMCACSbyQTPXGZ6Pk9przMOeF6RLjRywGNwWQcxkKagoF03JMsSsnYEGSJsLecdcEXKfK8VaY0lRumsGJBk2IBKDfe/hg+IYldo/AhTzr0zIUkMgB9dYEbCLixHTyw1+BI+g1QFLqBSUr4gFgXv52Yk9B6YfPlJaK8rLdH6a2SRxm4aaASY7X+EZ6hoqmsr0316O61B/E9MA1FYDU2p4UKLQNsU9SklYPrpqWt7tmIm4MXv0EGQDsSMH3ahwmq6kVXao7Ro7tlUiASNK2IUtuw3ElmAWcI6nTNPx7NOkgyFH9HqZ6sTJ9OpEdUHeQqerxtw8ls8dVYNKjfnTNZbPuabKpVCFbSCpViLpaEYgMNZaAJ31A4bp7Y6lSjSdqatVg0+9qKytHUuuo02aQYLL5WFoosvoYs7IrNUUggqG3AB36mL+sne+K7iFEaWnSkaYBnpYWWSPDMQDeMH5EjZwDVKnqH4hdOwNh9N8/wCAqPinFXPeVGeoYR3a5DErJIBDaoO1o/K492XcrpVTvqmtUCsSLwhJgXMXALdJkA9CCTZPKoz6KjoabAow8aiWBAltKwAxkkmwnEviXENNPuk0AakIVTIWA1ywGlp1brNwZxODIELXNZyUDgdXOLC8cuPHyVNnHLE6QYAgblio2JJ66fM3wU9nPCAtf7xAEkXi0R+JOIOV4Z4Qdz+zy+X8b4KOzDKA1SSLGPXr6YhR3cVn9Ze8udyVK9oLhharRgNGgDUL3iwva5IiB8sLPh3CHLjSe7ZZgltB8IkzsBIt67dcMjtsrsM0rDZaYDC5BEix6/Ai4ImcBfMvGqaqpL929V2kVFUu4hZhQrFh9YJeFn1iRCEFxIbuVYY3SSaWiyp+T5iSu2mr9TUeAKotSN4GtYlCdtQJB3KrJOOPE+BFWKsDItEQQAL77H8vInFRw3gAqVFSlVRgzIIqjuiJ3gOQrhTEimzEAC2LTNc+uIpV6E00Oik6kisirsGYkiqBeA0FdlYKFXBRselyjJG+LZ4oqrzXDgACQWkiBtPlP7R6+uIVCuyMGRihA8JViGAgSCR0Pl5YL8jladdgtOsKjSIpMrU3IiPCD4GMDZGJ63vFFxLh8EzaOh6QYv8AH9WKngEbKm64Vvw7mEuq9/SUhi4XMUxoeViSyj6qpo1CbK17ttiu4twx0XWpDUifDVT3CfuNYFG03KOA0XiLmFm+NsFCDxUxLBYFmcAMQdxIVQfOB5YtOXuLinqgColVdL0jdGG4JH3kMFGBDKdiJMjt2XNRKo8rmLs0kNEWtcm3r5knHXLVXMktrBBADXY3Fi12/O+JlThNP3qbbkg06hhhb7LDwutz72lukbE/Xyc6RZXAupt13B22iRY722GJE2V1Qq9dgUEhYk+oBJG1xaJ+e2GL2NvqzJHeSXpGKZifBp1MosCjwm19Qm84EON5pKS1GdgFRNTn/TKj4kklo6ggYRHOuYqZmk2cUhKdB1yypqIqE1RUqB4A20077QSPPB2Jguyg4XQqrTzCxnljpD8NL9DG4K3QfkcRjy+3l+vH5WVuacwNq1dY2ipUG/zx3rcdrvTYtWrNZRDVHaZPqYwuf+CATfe+3/1DmADyv1Gr8HA94iB5kKPxOOnJdCj9LykVaZP0rLwBUpmfr0tAaSTsMfmDllIVRJMb364Zns5X4zwr+ssj/bKWPsf8INjma7vHY+3t+6hG0B4Vt7T/AA1m45xRVBYniGagC5M12MAC+I3BORq9Pu6jKAtOkylQZZSxMaxsCxPmYFtwcaH7WuAL/KXEXVSoOdzbO9tdRvpDCJBLCmplQogEjUQSfCDZysF1sZIem/h6qdLFJ8/EF2iDBk3w1z+pkzOiYPJQ0o9ZQ5wfhZYoApklQoEbkkTMHruf140R7O3aEWqLlqIWpRoVqyu7HQ4+0X7sgME7zUgsCdzExhL8p5TW9C0gsHHpDSfwAw/ODZtpLLEsxLQApYkydup/M/E4xvUsuJkbo3tsnjdPumZjMOy4WStNcd5uo5XL6q9ZKKe6GYgST0HUn0GBvkp5Bqd6lWnUYshS66el5Inz9cZ+7esv9Iy1Kmar0ZJK1CupQTur3kHxG3Sx+zdrdgvKZyuQpUidYUFtf3pvIG4EzE9MLvyzRhNmDvVfwr1PGqSIPHBSl7cOC5lc6SA1SYek6IdIQfZ2MFdj5yD1nAhk+ec5l5UVGSYkVKck320sJgeY0nD6545oqVJSio7xfCCSQpUkEzB3tb1+OE720cQpmupVu8YU0Vhb3wLjynafX54b4bzIA1w2WE6xiOwg6eOU2Twgzj/G8wziqGJIsNKxGoGd5tcx8d8UNehp8TEEnxEiD8oFifMkiNseeL8WPusxA6DyEzcfrOB7NZ7XYWX4b4cGIDhYaSeSY6pDZVvX5iJlRIE+f68dOG5VmJABbUAPn0v0tipyq6YMTO2LI13g+NtPlMD8BbEAh1/ZygZIMC97gm3w/iMSeXaAZwfK4ny/5frxV5m1wRff8MFnLXCogxMCx26euJMbuvlYcQzQVSPTpv0/d0wQdk2Xgsx21KL+R/5Yo6+ULC5tBlgB4jBtNuo6i0/iW8h0dNEnctVQX+B/fi4kkFWR8qo7ZNRzM3MqoiN+sD5kX6YRHtA8GK1MrVKtSVUFFmazIzDvKZa4EjxEBoGmBHXGnu03gCZioKS1BRzCBdCuwC1ZAgKSRD9ACb9CTAKQ57yUUq1GsILsENMrJGgbwxBRkKqAwv4ryGAwV0xwjmDvdPemydvLHz2QxyBzu+qjVApPUWuAF1AIxFRQTJkJrlRLBQNQhuqvHMcPo5imGosKlNyzL4hqUgDVTYGCjqTER4rEGCJypypl62TrPTFQUdbU0DuVBC1S3iZIclUIGplBK+AidS40z2a82qK7zTpUXrBKiIhTuSKkqzECYIYKAIBsQJNsPc7FD7cFuOqYH56G2D9QfdB/HOXDTbUAykHwmDIIM2P4fl5YK+Z80K9CnmWK97qahXUAKWceNapA8M1KZg2kspY74aHadyJpAZmFQuhbQvuoYgEKPskwJNrx0wquFI4mhKqrmmfEquO8WRSkEHQJbQYglXJkjbLudp2XmmRBJjuMcgooSzGUMCwW1j5neD+zH9kz89x8Da3XzGLnNcUE6auXWLhhTdkqA/eXVrTboVv5jEvinAFCipTbvKTMQrRpMqFlaqydDKT4rwxMqxF8VoLSofDuFKWhmCah4ZEamPugbC8+RJiwxYcbyDUvC6+NNJgyPAQD4Wm8bCxAMg+Q9cJrDUsgEwCLA6SCCGgzEdCbfGcWPGalWqalWs1JVpUt9PvAglRCsSZYgCQJEXkSYM9R0+UwxcZ2Se3GLd9kr+fuYKbVqFF40ZlkqVUEmaVAFgBJkd5URVE7aT5iVlm6yBGsfrMzWYkHwlVKrThRYQASCNw3piH2l8YNeqpQAmjloqMDAP8AhBJZQTPiLABQLD0GIvFMqVApmxpgKR6gX/PG3ZH2cdrfJWs6hWFhtx28k7qLmV+B+IBxAKLBBUCSJK22/EfljtTfz2/b/H8bY5Nv6XPxtjrSVhw4rvQ4Lq9x1YxOm4b4QbE/0ScaE7EuzvIpn+EVaXFErVxn8g1XLNQzCEOc3SL00JpiSpJAYjuyQTqAgnOVClOGD7N9uMcL/rLJD8c3TxYwOLhRRULvULWu+f8AIls9xGQTOdzRW1gO/YAC+0yxtckm0k4WWZ4LpqBgOskNB2N7WtF/4GHH2oZ0/Ts73aso+k1QzQIJDsDpJ6SCTF5+F1NxjNQ2okRBDwSZU7tpgXSNVumrHlGU935uQA+SoSj1lfOHcJSkadRWCg1SoViAqd7TqAwTuEPiWmAS8QLgYZXBs5pAkTq2EE6v0Rff1vpPzwkuNZtmzWRobDWcwSDM91TcJHTbWZv08rtPM8cgaE0oBEAaQot7oAkAeliI8zgbPiHajc74jZ/a9le/TobXPlMPlrmVTqDKGWZhgDq+R+0pF8XfMXalTaiyLmKalUY6J0sWj6umJgCT5G+ExmuINTMW1Ot7iV9eniYdegOJvIHAWzFGsvcvrWKiOVGl2SGSms+9r2noCDvGA8Vg1fqH0/ZanomfIHdm9qKJOzjjLM9dak0yELK5YFWt0J8vX9mE1naulmZjJvpm53xJ5kyJSpVAO7EWJixv5QQbEbgyMVOdyswS0EiywfIyZ+NsauFgbu1Ieq9UflkRvFFt2hXPOXN7k4lZPhhESN+v92LfKcHPW3549cQhdjHU+nwwdo2tIAqaoL/OPwOJmXpTIFzFvXEipn4ElVZjEHr8TsPyxBrZhvdsAYsAAT8xfENNLoC55elqdUkSfK/4/wAHDd4RU0IpIn9f8evTCq5Jph8xUIk6Vt/5gtvPc4dnKVEuwAIldROrZR0PX4wASYMAwcWRts0ro4nSPDGjlEdPhdBhoLdzU1toJTvFcIoLk6SF8FlgSSxuDFvfB+UKpTu0QOwqLV8AIUpoWHJIsPGgJuAWgT1Fe03itXL5XLpTcjXXI1AKDpALlipLlA7FTZmE+HVAuZ9gXP1T6HUq1VLrSbuRuGKGmD73ullrootdQ52MSznwzHD3AvT5Og47YGmvVVn6oI7V+EE5h2HiCwZWToMbMBcERuAR62OBui6ZhUGaTvhTZVXMIwSsAxA0FiCrgRtUXWtgCBAxK7TM0wrCos6pOoTuCZj13G4jFDnuJ6NJIlGM2sbx6aS3xu3ywohkFLzqS2SEj3Qd2s9jRerUfL1FBUWp1T3dQCkujQKh+oqeFYDE0y25WTJDeAUq2UNRqiVC7AUwagfSykg6VedLAt41ZdVwDEScaH5jbvUFQDXqDaviHuNt2EHFJy5x9VD0Kq9/l60K1IyQpBlKtM3K1EaLjcEjYnDaPqb2+h4tq0OH+IJcd4D9wqfs456zWeru9WlUJp0jSBLlqYWFDKVYqR4lFSQSZ1CbjBdlHan3jhaVUmFVKveBA2oMpbSyssaTpbVpB06iq6mBVl6dGgrCmioKk1JVhLTcFhuGAt4txPrhU8c54LHTpGkkBtw58atKtJKkMAVN4I23BXSTslk11QHhU5XUY8jOZMR6RVqp5p55p1RTd1WnUY6BSpse7WmrsBUDku3eAaS1OuwKgoSSrQeXLPMzHvKaEhWXUVIAnS06oJKgoJBYG0m+Gbzn2VF6FOvTorWy+bj6Q7Cl3up11vqZSC3iKLqJ1lqEECQzAWT4TRyisbhKaFNZCuxDKQAbrtJgdB8zgvKlhLKjHqTjrsWNLpEFF3ikV8vcuPUrLpMqLsw+2h3VrHTqIM+Q1AEGDgs7YuNZdUq1KlGn7jNU0OIfu6fd0lIgRZuk39b4oKXH+6ywNBu6DgP3rmNTMCQvlqIB0sfCt9rTmztY53qVKT06pOpqoFt/CfF1JgEz1vN8UYGM6WQeE+6TiNwoPUPWQl/wrh9Q6WKMi1izkEQDRV7ETcq1WFB81MTeLh21SfeNz8Z3+OPvDM6ag7wyFCJRorcaaVEFVPxZiznpqJI3tFzVOfT8savIcC/QPCwHWcjuz0DsFFqjH8i2M/wR/F8dkGohTAJIE/E9fX9eI9R/kBYfx64rG6zo2XlDBwwPZ2X+eOF+nEsj/bKWF+MMP2eB/PHDP6yyX9rp4uiPrCJh+ILZnbAR9MzgNiMzVKiRfVXMj5gz52jrhY91LFVJBMMwAF/Tb4T0wa9rCRns4zkMWzeYFNFmwFdo1RF/OOvXzEeYuPJlENWoqmqy6KNL3SxNyzR4giCDJFyQo3Jx4/O1z8l4ZySVdL8ZSh7UeZGyubpusassEAGwAdS2kREWY9Tv0FsF3Z92sZauyq7HJ1WMaqzA02n7lUIFQk//ALwVdvHhL8wVmzFYljqd5cn+jIgeQAgAdAIwe8tcpIyLrERv641uRDA3HY2YWa/991S59eE3eKUNNV1KMpDAkuACdQIEMBBVokFSVIII3xovs3pFaabwLiZvsLDe56Cfj1xlGpxSpSy1Q03DvRFLuu8AdFVqsaIaQUGpiAbCT0tgG4j2qcTrIG+l10BHuUW7imOkKlHQgEdIxmpOk/mWel9C1osaRmGxuQd9Xj6LT/b1kk71SpBqFWFTSBZbMhMAXuw6mANouocvlpgmYEEfPf8APC05J59zVPTSd+8oytnksomCEf3gCLQZUdBjQ/NPIxoyZZ1E7IxO03iwAg+Kyxe04fCFuOGxg2kWQ85EjpWjZBfG0I6QCP14F84lmMggQPPr1xdcdz5aSf4tijprFJ+pkDDUjakGV4fLmJtfr/G2K3O19KkyJ2UdSfMdbYuMgkqCTFsCvEVNRyOgsP34o0UvgjP2Z8mGz9NWCNqDyKg1KfAZMbagLqTs0Y1Vm+yJ6tV2oMlKgrKxAULqZQNUhY1QSYLGBJFsYs5O5l+iZzL1JhQ81I+4QQ34KSflj9D+x/mNajV6MjwkOCCDqWqoZXU9QRtiHcdAdYXpfQO27GuhqaUmM52L5rO5jvWomhTYkAOTppikoVZvJJBJAAAnyAwW8F5RGRCZTS1Wk1Si9SsFID1a2aSQSdVhQRdRJIAC7knD9q8SphGgghAQY3GkbRczhVcH5m+k5i4qUtCA9wyqUJJJpvqidUARBgFY3xybOll5HpWtEmsF3ikosxxLLMc0GVKtShV06CCNKM3vWgtZN7AAGSAWOAvnLs7qLQFan9fQdbstjTYqGXUOmpYhpIBiY2wPdpuUfKcTauh8DaHrkyAtNqqoWtI8JMzAjxdAZfPMn0g5J/oxotTdHgCSopq3iZfsyV2vYfCMAvYWhpZw5ZodNZlY+4pxuiktyVzMSDQ0xKBkJtri7bATIJiJiNrHHXlrs+q5rM6KayN2O2kEiem5EwL7emBThVE02VhqPcPoZTJCsoHukHWNawwm17SAY0h2LczKMyrkd0tY6GmBFUjUPgGaQBF9W5xN5LdlisXFacoRSe6peN+zrngpE0GpIHCKGPelbxJ0BC3imAY9TOM71+WqiatYZQjQbWUzEEEBhHp+7G8+0ztgy+USpVd+/Wnc0qQD1FI3kBup84jra+EhzJnsvnsoOIZcBKOYZqVdHkNTctp1sVYAEQZE3LzOJRRnUC8bLS53QGUJIhXuEF+z/wBoxZ/o3fDuGqqjZd6Ze5sCm+j7M+VzqEDDK7YOxmi7KqUgKZEs2gMKOkHUxYkRI6NIYx5CUR7JPJZfimZrrUH0fKCDBnWxpEWgkEjVMz0Fr22PxXL06grF3KI4qBwxUQop051Bp20+WD8iNsc7WN9lq8LEZFG307+6wxneT6iV6qsVGVBOmqGBU06KKumxOlWYAKxG9pvblzx2cZWtRqZ6oDSpU9VCjSIKtVrKG8Q9G1AsSPCBN7AtziPBUoUczmmzKijTKtRVz9VmGGlwioHDOdRBkGAQWiYjOXP/AGv1OIPfwUqIK0qQnSo6kTeTFySSepOG0kb4wHt2QHV+psxoi0buKB6pH2RAEAKNgOgHwxU5vLnc2+O/4b4t8zTIJgQCN+pxUnLz1+W+Oxu8leQucS4uPlR1o6fIk7EbCf2+flj1VTVv4Wte8N8R0PqPw649FQokkAbn0Hyn9+A3M1a1Rj9YyoWJAm8EyNvTp0wzii173SIih17k0irL5eSQCJXcSJ2+OGJ7O+Xji/C5/wC8sl/aqeEJX4aBsGafXDN9mOmV4xwrf/KWSiTP/W6eDBjgGwUc2FoNgrf3FOEKuf4jWZg7fTMwEBgimO+ayyDD651R5xFiTl7tn4oauceb6AqevuyZ/wBIn5YaHajzq+X4rxDT4lOfzBZJgH6w+hgleo9PhhBcwc0fS81XrIhprrnQSGv7puAoMkEi3ljzmPAfFlSTOqkFO71EBQaWRK5ilaPC0/C378MjhWeW/wBoyIA/Hb9eBPM5IO1JpvDKbwDBEDz2GGFwrhehO8fwU9u7UBTVIHwnQB7zvOkeZMY5lvDw0eePurWYz5XtjaNyvnMGfCZUn3WeWPkApZKY+bkx8Abzij5fy8ooaDbpiD2g5KvmaYq011UhV0vo89MU1VdxTUAKo9B54uez/ioCDvBdXgq0E2tEHrOB5IxHD6Tve/yTHrDQwMxm/wC0c/M8qCeBggwMaY7HuOjO5XuakPWop3dZW3dCCqVB1IKeF+ocE21LITlquTVidAhr9SBbymMSOH82ZWlVWrRUU3WYZRvPvKwsGVhZlNjvYgEL3PDhRKTY0vYdfhUfajwMZXQgAUHWFeSZAYQL31KCATJkQSZnC4yVOWK3MrPzB3w7u2PjNDOZUPTEVqTqzKIJRCCpdWgHSWKAjzImbEpDKNpIYNqix9Lft9MaDCe98YL+VZMGl1t4K98Xz2hSB1AxSZCi+w8IPXfEnMUyz7SMS6smFVYHUn9mGOlCoXzHDR3ypvAMnqSRuf3YaPY92pZmiO7UrqUdyKkEVFplh4AwYAgX061YpPhK2gS4dwTQTUe7PZfQA9Pji45QUJVd26vI8rGf144+K27oyHJkhsRuq+VoXs8yj1Kw+v0HW0qWJLASWJEgkIx3kdJ6DBLzDxYLm+HkFw9fOVFABaKiCgwql48GmmwpqhIMRIJAMo/gnGHyme7zUXSrlC0giKTkhHUyCupnBqwPvDopGGzzTzXRfM8IVHFWstQudbeOmHy1SprZRcoVBkgadupBUgYumMDkEL2LADRhgtN+n/pJX2tmqac0EBAZKMxE92jtrPQ73YDoYk9Sv2Wu3elWoDLtS09wgpU6hIZVLU/EJJBC1CkAQZcx6Dt288HYVqRaagelVoVRI0sjU+8LAzCh9KsCTAHrbGV8vw7MDO91k/qKBqo1MOSF8QDByx38AJZlsF6iTiOMyObH7buRZ/hDdPla6Cx4JH72tIc00aSZp+8ijTryqlIB76kgCyQ4HiRIuFA2gkmXryd2Kd3l3JrCqa1PVTCWVGWGRtRJOoW9LHCG7ZeXK/c98FmpQda6gXFTupWoVBDWZSGUww3Hrgm7Gu39szmMvTDFTqFGoollI7ttUbCTAmIG28NC90BfEZGmyEDiYkL3mR4/UBXPtCo5jL02q5XL9/mczUNCs2kuqkganCyRNWZk+EAbGbMOl2bfReDVqDIpetSZ8wqgaUdk95VFoQgFoBJgkTEYOeK8bFGodRCqVXT0Bdp/HSqzbpjD3bb7X2YObKZepUCK9RDTnw1dLlVACkHSyR1ubeuLsVs2UWtAoDclaTImjiFu4Vn7MNDM5B2qGkpV5Aqapp/WM5DjQJeAhmC1tKgzIBTx3tsZzULD6TTbvUCXVKcBRUqFonT41WWkaxpEkXTuR7Ucy2X7lJojWWDTpdVb7FMW0wGI2ABJudh7TirmktGQtNAJVRGtgZ1VDcuZJgE6V+yq4d5T8eB3cO7lm878QQYzC2Ld1IO7W+bq9UKSV7sGEppMJAAAI22+11vc3wO8pZONRbfr8T0+QF/j6YN89wqQdmHl1+XwwPNlAthbzHrgT853WaV5jkZz8gkv5K+5q9rCbXOKpqcGIJI6dZ8sWdHISfK+CEcDWpAaZW4cHxCOh8x6HbFLZWx8oJpHlKDi/HNZ0jwqp2O8j73qNv75xGasI88MfivYXUdwKDKSzRDEKCSbXkDe0AG/XyC+aeXhl6rUe9WqyQKjU50axZlUn3grSNUANEi0E6GGWKUfplOY2hzbbwqlFvMHDE9nJv544V/WeR/tdLC7auOowwfZvrfzxwr+s8h/bKWDGcqxo3Wku3LJa+KcRAF/p1eYufDVcEedwLRtAGA7kflY1kJoUmqLUJNNUQKWKmDqYwRcj3t95tcy7VuYWTjHEVoJ3jJns01Z6h8Ck5ioVRQBYFSJMkyJBEwIXCOa66r/AIxaELMUgfCvmJ2m0kbxjCdSkDXOBPnhNI+nwEGSZ1H2Cr+N9nP0SmhzRam3v0xTakYbVMEEFrW2AHrtgW5k52avr8L+MjUYCjQLhQqqERB5AAfssedKZd0q6u8VrMSWJ1bySb3B/LA09SoSKVJwneHTJMe9bfpgGF4dTv78Ip+fFAzTjNo1Wo8pv8r0lpZRlYgAwQsxs02N+k3jFhkeWsm5JKV1JMwtRSSSZJ9yY6zfAnxvJmiKWVctqRatN3G4N0J/SAAnTIt1xNy+QzVBQyTUQCddO8L95ljUAP0dQHUjGdkY7ctduSf3WVyXl5BKPafY3lX/AP1c1TPkTTP5FAcVuf8AZmfelnUfyFSmy/7Ss/6sD3DudzU3qMfKLGPQ4OeC88oAFfVAmCZnef1nAfeniNH+kCEs87wHN8Pqg5miTQcGm9RCHplWtdlkr5jWFMx5WrV5fekx1eKjUGpXGnSV3VvMGwEEecTjUPCObqTiGdSCIKEAg/EGxHS4wiO17JhKlUU0CUw1goIVF0KAFFgAYZgBYScafpmYJDoqlcOEFrnlF/wx9rcamDaQsQBgaA1ELtJ/g/LHbK3m48jjTsVat8rmi+kE2BnEyvewO7AD5nELKKALegB+OJQea9JBFvESP0QWP5DFhHhdG6NG5HSsQ1TXpQr4VbTqQHxDYi/XaR1uIcXKfE6AqF9AWo1Kgl9JdEFJKVmghdSBiBBm51XAxU5fh4OXQggte42Ktvik4NwdpBYaU8JAFQart4NYHiRbSmoRcqLzK+WR7XaG8LQ4ubmNhdFHen+k1H5VWvVpIrCaKnQZERSRUJ0/agQvVdQMm0FU8+cjvTzRdg+gO3dtADoHpNTdAAIKrJZVIi5gjUcF3PnLVapl6eYyrvRq0KmqmabKrFKgAk6iJR6itqExDTB6uniPB3fIpUrDRWNIGp6NFx5W9LYzc73Qu7jD8iFv+lRtigB99z9VmDm/KtSzCJqLKqm2ow+uoQY6aTJNtrCBbE3kLlrLUKgrBaVBURn72I+scFQzHUQAIsdO/wBoEGY3FeBZitUUq2gUz4gxmwBmQNgQoCwLHrfC99prNtGXyNOq2qoFqVYPuqAQNRFtJJBCk7nrhzhapCATQ5KDnx5MfJdk36FQc6+0HXzWYanl2Y0qRZFqGxmSpbV8D8+tjBVVTga0qxrT3rBjo1Cy/mZMmZ/LDN5L7PaYSmpBI06vJTczqjxN4vJ1I22sTmjyZQqqab01ew0lUVGUiOqQxBG+p26dd2MmcGnRHs1YXqPVpsp5ANNSe4Vm1zMyIq9ItqAU7DzkAAA3n0x1PAGmVabkQ1j4ZPouw6xg8zPs6Fh3uSq/WKSRSq6RqK9EqSIPkKiqDtqFsdn4SXRnde6enrSrSKlSrlYYkG4kj8x54UzzNsFpsf0kzGAin/yljUrkEhgVPkRGPf8AI4qDprHuj74G4n7wHu+e25UEC4pzDWyxWl4KoipUKsuoKhYKtzdfErEBSBL3mYwxM1kyIE+IKNhpBgCSoEAQSBbzHnhlLjmFoeODwq5IXMFqNlKU+8OtrQfK0b+V5xbpk9MspLGNoMj1PmIn9oxYrSFWnSqWDfWJU2EtTg6oA+0jrP6QbzGPOZpEANcqdmiIjoek+V8K3vsqpoV12YS1ZQzEFiQIsQfMW3G+39+Vs00u5/SY333O/mcOfmrmupRpB6LGnU70IGAlh4WJK9NUgX/5hQ18lG7QWM3mfmBMEmTvtGNL0qIta558/wDSd4+0dKsqVjO/7v3YY3s3f5Y4V/WeQ/tlLAWvBxHvT8jhheztwrTxfhR1AxxPI2v/AJ5S9MaBkjbAVw+JaS7SuNmlxjiKldSNnc0HEedd/F8lwseduZTSbQVqKSoadJ092yjTMSI6EEi467lndt/Df51z7++BncwdBtqPfN4JO8xHQXv5ibSy65nT3tFlqKj06zMKRWqjgd3oCkz3VLwgL9qdjbHmWTLGyZz3Cx9Vo4DGCS7lLKlSDZZmBlGTUu0qy7WHRgCvzGBfIhTY+90Prg05l4ZRoIy0KpKu600QTYRqqKTMHRBB0gadaDc4CMjliSSRYzp+W35XxJlaSfBOyU5kY1EhOLi3Djm8vRzSjVUgpU/+LShGJ/p04e8SZxbcjcyNThCQsWjT06ze3TFX7NHNCVDX4e50vUZqtJiSPGBEb2MTMdGn7GL3jPC0yDVHYPVaVdSWBKkatUhkYMrW8DDUumzEsYQZsFEwn6tSd0dom4n2W0K4FTScvVa4qooAb+mghHE9bN+lFsAfHuWsxQJVga1M7VaYLILT4gBqQjrIjyYxg+4L2w0sxSlagcMRIJ0tTYeYaGB9NotJG5xwfh5caqbiqARuCvQweo26ekTjPunmxnaJhYHvyEMY6KzLytzWi1J97pOpvLe//L0wYdoFda9IVaZLOqjvQYgqLB/9HZgABp8VtJ1GPNfZRRrvU7ykuSeIFWkR7xE6mUQr33mD+kInC3/9HeeyjSFGbpm4akQXKnzosRU+Shh6nD7GyI3vEsTqP/EriV/EDoViPtWtuo63iL+nT44r+FZ9XPdKDrYeEyIL7gGdtUaR+kRMCSGDS49RrRRektIozDQaYpFdR8Q0gKdxsZA6ReXvyj2W5FsqlREpitl2ZwmtkLSDHih2IgixBkqNumq/1JsezxSJx4WyO3Oyy7xIhQiLUloVyulkcSJ0wdys30Fh12Bix4FkCKr1GV1VaLkOVKr4l0iS0LfVAvufUSVcycuox8SiZ/D5774rsny0kQS2lT4VJJH4TH4YgOtR1ZCuDYg4+yIeXu2EJRIek1lFOnuzOCQrswsKahZIYkkiTAtqv+Y+INSzGVzBAZczRqUXVGCACjXLMCIkhKO8QWEwdpXnHOGoJIET0tH4fHFhVok8NNVS9Svl65o0VXxeDM0iX1JBGgKjtqENqVQWIgYMw85kz/UOVtOlZcYjdEB8/qtW8s8eDlKKmVrU6wptKkladOacR4SQ6vE3BmQNsKSv7UlYzlakVGAqU2YqUcQDDDxEMYI1WuZi0YVfJftIHK5jKEOlen3qGuSIdQ/1DmmBIgh9VxMAEAT4ufPXLzJnMwailJqOqqL6KZMgSOumJHTaTGOZeKyJhcRyis3L/LY1gUuLc4ZsqwR4BGksQpYj4kef7tsUtLJM+qrUJeoWh2MyYXwgeUCw0xH46mZyVwZNIgfH1xe8f4HTKxF7Gx0m2qRBFwZHwj1OFmHM4ktHC8/lz55W6XONeyAuN8y06VKlJqEQ+rRSDinABABNZILNBkAiAYAkYfHs+cnUM7RNam7mCB9ZTenBK6hBMq50lSShhTAN8IbnTKBKSFV8JYioNTAi3hFzpPVlkX0mwnFFkOJ1RTakuYq00a2hHYKBOqCkxpM3WCjG8EgHBuQ1gGkqMMkQA1MWlO07tOyWQrGi9OtmqqQH7qmqimWAZVFRihcFZjTrA2LAgjCT5n9pHhbVKgOUzdJ66JSaq+lVpmINVk1EsQNMki6ra8lqepwc6QzDvFAGoho8UQpjTPym3ncYs6XYvQzlPWpV2CkvQt3pFhNKpM6lBBgiCbE7kjwdgENeLCK7jX+kBY/5+4ofpFQgggqqg7gjUtQEfEwfgcc+WO0SpRrd9ULZiQVYOx90kEwbxtbpPwg/e0HhHc5qvSnV3VVqWq1xTOgf7IEjptgYzlwd/lj0yOJjowwjaq/ZE6BWkrY9PKI9KiySEdQ4IiBrUHUxvfUYHosbWx3TPU6SNUqT3dIKXje9UIABJJhmvsNsCHYrzCtTh9NS/ios1NgN1UuXSfirMBMgwfIzI7UK8ZVxPvPSUjzB1vEk/eRT8o6nGAdjBmSYT7/ZJ+2A8hLvtJ51+kVT3YVaCE90q6QTP22FjLb6SBpFh1JtOx7sfbOOatZvo+Upt9bXNix37qkL6qhHowQQSCdKt47Heyv6bmKaVXNCg7lTU0kd4yhWNCkxBTvWUyATZZIDEBWf+bRSvhC5TJ5VYUkEU6NMEX21PVqGDF6lRzEk4OzcwY7RDCPUft9Pcr0z8M/h5uZeVkmom71xf+B80Mc8ci5c5dUdkodzTb6HnAnd08zTpgk0qogFc0oB1LH1/vp4iylYdgD/AM7cM/rLI/2yljl2tdrL5srRpg0spQtRpGNTG81qsWNRjJi6pJAkl2bj7PCH+VuF/wBZZH+2UsMunxvaAZOT4/8Ae/kcXwlHXszHyMqsZo0t2DvLgOP44B5rlaX7V+ah/KPEISSuezaefu5qoJgXkxbAXxDmiuwKLFFSBLfatsFXUT8zEeR2w1u2nsD4hS4nnnOVrVqNfM1sxSq0lZ0Za9ZqoBK7MmrQytFxIkEEg/8A6MM9qn6HWFouoH6yMYvLw3xzu9F7rNyueHEICp8I8geviN2kmSdW9ziRlOEHWrMZABEdL9T8OmDqp2bZ0iPotX/Y/wB7H3K9lWeBvlqn40/97Axbkc0f4Q5c92xSa1PQzS16Z0tTcOD8LwfMHYjqLdcbVzmapZqnRzQ/xdemNR30VNnRugJIYHbUylvtA4ztnOw/Puxb6LVg7WU/qbDh7BeQc8i1crWytXuKoLqxAinUgC1yYcATGxVWizBo9QxpMiEUDqbwrWtNUl/2hcLp1CEIbLuBpGYphSlQavArjTqfSpidSmRv0wf9mHOFVSykBKNPQFMRqlYlWEgxs1y0yDBgYn8V7H81Gk5d2Bm4g26BlB1T6DHDLdnmbRdH0TMBZv4WM/L4COg+EDGdmEs0Ijew2PkqnWRuEYcWyUVDOxk6pJ1Br2+W3W/TEHJ8MLS9Sm2hbrcrPi8/ei/mJ2nzu+XOFZjSpqZfMApYfVuSb2NhcRAHlHrixz3A65fMFKeYfUCQlSmxDSBCo0CQrkErAIAMTGEceFkbkNOyrEZPhCPGuWKdemRVpU6iEiNYuoAuUYQ6vcAEMCBJO0EPPZB3f/RcxWpSLLVXvVB8lYMjR6MG+O2GhwzlbOFIbLVlVNl7uTO50iIkidyL/iLTjHLGY0DRlq4N0goTMKCrEgQFkkHraLYYMjzgKANexFhS7Lgs+8e7OM1JladeN2puJM+atpP7MDmY4O6jxKUMGzW/PbDzynJfEG8RommQ8OpR4ZbHVTElpEkNuOvnInzz2bZ8E93lq9UTaKTGZvsbwNsHRx5BIaWL7tuSN4zNh8SRM9bfljnkadiT++MX/E+zjijG/Ds1PmKFT92LXgXZBn2s+RzSAq0k0Ku4UkD3bSbCeuH/AGJWNBooxuposJU80dm5zR1vVYMrgliusldXu6iwIXYAHUBAgL4gxnwriy1CymSaZ7uoH98xYVJ2Oog+IehN2wy+Gdk2b0gNk8yPP6mr9m/3dif1emOHEOxrM97qXJ1/GpQnuag0zcE2uuoCZmLEbYn/AKhLK3syg14XJsiSVumTdV3AUFMyPdMRgm4xTDBXEAjeRNvW8/h54g8H7NM8tjk8wQDBik5sdjYHYj9WLx+Rc7MfRMwR/wDBq/7uK4w+M2Ek0EHhAvFEpnWHAUONLD30byMi6wdiVsevmErkxq0I6OZ0oNYWZaB72m58vOw6Ydef7IqxVtdCum5E5euxt00ojOSd/AD5AE7h6dkGZy1Ulshm2KkEMmXzDp5ghlQzYiR6wdiMN5HmQC2lM4IBpDpAdN+FAyvJWYCvNMinpLO2pCEM2Y+JYHU6o69YwwOzbgaUayWqHVIJK2mLgMVC6lm+lrnaYnCu7U+YeJQ1Kjw7iLayNdZMpm1EC2kxSBa1oaNOlSCZsS8M5p4u2XydOpw3iJ7moxrMmUzavUUR3TEincxq1QRJ63OCR0iZzWyRrYw9Lw3gPjcf3Cy17SHY7UyWdra9dSlWqPWo1ztVWoxYyQNOtSSHFjN4AZcKGtk19T+GP0kQ5rPUsxls3wbPNRcsKTHK1+8pyAFddSe8rXDBgYABHnifmX2WuL06roOF8RqKrQHXJZkq46MIS0jp026Y2uBJI8VIKIQmXh9p1tNqk7G+fKeUzANQHu3XQSLhCWBWoV2IWD6gEkTEHQPPJpnI5pj4hpoCixBANR8zScNTJA1TlhUMrI0k+Ywk8p7L/GCQP5H4iASAWOSzVvUxTJgC5gT5A4OOLdhfG6wpq3DeJulFFp09WRzKnStllRTiQsKCSzBFRdRCLinNwWyStlHI+6TPYAdRCMOW+Z8tlMrTo16iurqGempJaWJqB0KamR6ZP1dURESJkgrXtP7ZK+cCUmqu1CiT3eoBXqXIWpXCkqa2iAxHhBkgAsxM1fZo4uP+yeIf6nmv+Hj7/wCrXxj/ALp4j/qea/4eAIcARu1Otxu9/BPt7J/1Hr0+XE2CNgZGAG0Lsgcaj5/hLFX/AIv+/DB9nysBxbhf9ZZGd/8APKWJo9mfjH/dPEf9SzX/AA8Oz2SPY94nU4nlK+ZyVfJZfKV6eZqPmab0dXcuKiU6aOFd2eooBgaVWST7oZrEwlwCzDGOJ2C//9k=;" parent="1" vertex="1">
          <mxGeometry x="115" y="355" width="220" height="220" as="geometry" />
        </mxCell>
        <mxCell id="ugAIHgSxgHmGyD-dgIst-9" value="Healthy Eggplant Leaf" style="rounded=1;whiteSpace=wrap;html=1;fontStyle=1;fontSize=16;" parent="1" vertex="1">
          <mxGeometry x="120" y="290" width="210" height="50" as="geometry" />
        </mxCell>
        <mxCell id="ugAIHgSxgHmGyD-dgIst-10" value="Cercospora Leaf Spots" style="rounded=1;whiteSpace=wrap;html=1;fontStyle=1;fontSize=16;" parent="1" vertex="1">
          <mxGeometry x="590" y="575" width="220" height="50" as="geometry" />
        </mxCell>
        <mxCell id="ugAIHgSxgHmGyD-dgIst-12" value="Horwnworm" style="rounded=1;whiteSpace=wrap;html=1;fontStyle=1;fontSize=16;" parent="1" vertex="1">
          <mxGeometry x="355" y="290" width="220" height="50" as="geometry" />
        </mxCell>
        <mxCell id="ugAIHgSxgHmGyD-dgIst-13" value="Flea Beetle Damage" style="rounded=1;whiteSpace=wrap;html=1;fontStyle=1;fontSize=16;" parent="1" vertex="1">
          <mxGeometry x="590" y="290" width="220" height="50" as="geometry" />
        </mxCell>
        <mxCell id="ugAIHgSxgHmGyD-dgIst-14" value="Lacebug Infestation" style="rounded=1;whiteSpace=wrap;html=1;fontStyle=1;fontSize=16;" parent="1" vertex="1">
          <mxGeometry x="355" y="575" width="220" height="50" as="geometry" />
        </mxCell>
        <mxCell id="ugAIHgSxgHmGyD-dgIst-15" value="Carmine Mite Infestation" style="rounded=1;whiteSpace=wrap;html=1;fontStyle=1;fontSize=16;" parent="1" vertex="1">
          <mxGeometry x="110" y="575" width="220" height="50" as="geometry" />
        </mxCell>
      </root>
    </mxGraphModel>
  </diagram>
</mxfile>
